<svg width="125" height="41" viewBox="0 0 125 41" fill="none" xmlns="http://www.w3.org/2000/svg">
<rect width="125" height="41" rx="7.69231" fill="white" fill-opacity="0.12"/>
<path d="M30.9111 21.0024C30.9224 20.1519 31.1551 19.318 31.5874 18.5782C32.0197 17.8385 32.6377 17.217 33.3839 16.7716C32.9099 16.1142 32.2845 15.5732 31.5576 15.1915C30.8306 14.8098 30.022 14.5981 29.196 14.573C27.434 14.3934 25.7258 15.5968 24.8279 15.5968C23.9126 15.5968 22.5302 14.5908 21.0416 14.6205C20.0787 14.6507 19.1402 14.9227 18.3177 15.4098C17.4952 15.8969 16.8167 16.5826 16.3482 17.4001C14.3189 20.8121 15.8325 25.8264 17.7765 28.5844C18.7491 29.9348 19.8857 31.4434 21.373 31.3899C22.8285 31.3312 23.372 30.4886 25.1289 30.4886C26.8694 30.4886 27.3794 31.3899 28.8968 31.3559C30.4586 31.3312 31.4425 29.9994 32.381 28.6361C33.0798 27.6738 33.6175 26.6103 33.9743 25.4849C33.0669 25.1123 32.2927 24.4885 31.7479 23.6914C31.2032 22.8942 30.9122 21.959 30.9111 21.0024Z" fill="white"/>
<path d="M28.0449 12.5256C28.8964 11.5329 29.3159 10.257 29.2143 8.96875C27.9134 9.10144 26.7117 9.70524 25.8487 10.6598C25.4267 11.1262 25.1035 11.6687 24.8976 12.2564C24.6917 12.8441 24.6071 13.4655 24.6486 14.085C25.2993 14.0915 25.943 13.9545 26.5313 13.6844C27.1196 13.4143 27.6371 13.0181 28.0449 12.5256Z" fill="white"/>
<path d="M48.4102 13.1953C48.4102 13.7786 48.2969 14.2799 48.0703 14.6992C47.8438 15.1185 47.5286 15.4401 47.125 15.6641C46.724 15.888 46.2591 16 45.7305 16H43.6172V10.4961H45.4922C46.4245 10.4961 47.1432 10.7305 47.6484 11.1992C48.1562 11.6654 48.4102 12.3307 48.4102 13.1953ZM47.5234 13.1953C47.5234 12.5443 47.3477 12.0482 46.9961 11.707C46.6445 11.3633 46.138 11.1914 45.4766 11.1914H44.4961V15.3047H45.6406C46.0234 15.3047 46.3555 15.2188 46.6367 15.0469C46.918 14.875 47.1354 14.6315 47.2891 14.3164C47.4453 14.0013 47.5234 13.6276 47.5234 13.1953ZM53.0469 13.8828C53.0469 14.6042 52.875 15.151 52.5312 15.5234C52.1875 15.8932 51.6979 16.0781 51.0625 16.0781C50.4297 16.0781 49.9453 15.888 49.6094 15.5078C49.276 15.125 49.1094 14.5833 49.1094 13.8828C49.1094 13.1693 49.2773 12.6263 49.6133 12.2539C49.9492 11.8815 50.4401 11.6953 51.0859 11.6953C51.7448 11.6953 52.2357 11.8763 52.5586 12.2383C52.8841 12.6003 53.0469 13.1484 53.0469 13.8828ZM52.1719 13.8828C52.1719 13.3255 52.0872 12.9219 51.918 12.6719C51.7487 12.4193 51.4753 12.293 51.0977 12.293C50.7122 12.293 50.4297 12.4232 50.25 12.6836C50.0729 12.9414 49.9844 13.3411 49.9844 13.8828C49.9844 14.4115 50.0716 14.8099 50.2461 15.0781C50.4232 15.3464 50.6914 15.4805 51.0508 15.4805C51.4466 15.4805 51.7318 15.3503 51.9062 15.0898C52.0833 14.8294 52.1719 14.4271 52.1719 13.8828ZM56.1797 13.1523L55.4414 16H54.5117L53.3594 11.7734H54.168L54.832 14.5586C54.8529 14.6523 54.8776 14.763 54.9062 14.8906C54.9349 15.0156 54.9622 15.1458 54.9883 15.2812C55.0143 15.1562 55.0404 15.0326 55.0664 14.9102C55.0951 14.7878 55.125 14.6654 55.1562 14.543L55.8906 11.7734H56.7852L57.4961 14.5352C57.5221 14.6393 57.5495 14.7539 57.5781 14.8789C57.6068 15.0039 57.6367 15.138 57.668 15.2812C57.6966 15.1562 57.7253 15.0273 57.7539 14.8945C57.7826 14.7617 57.8099 14.6393 57.8359 14.5273L58.5234 11.7734H59.3203L58.1406 16H57.2109L56.4961 13.1484C56.4727 13.0547 56.4479 12.9479 56.4219 12.8281C56.3984 12.7057 56.3711 12.569 56.3398 12.418C56.3216 12.5065 56.2982 12.6211 56.2695 12.7617C56.2409 12.8997 56.2109 13.0299 56.1797 13.1523ZM60.6953 13.6133V16H59.8594V12.6914C59.8594 12.4492 59.8568 12.2552 59.8516 12.1094C59.849 11.9609 59.8438 11.849 59.8359 11.7734H60.625C60.6302 11.8177 60.6354 11.8841 60.6406 11.9727C60.6458 12.0612 60.6497 12.1562 60.6523 12.2578C60.6576 12.3594 60.6615 12.4518 60.6641 12.5352H60.6758C60.8346 12.2331 61.0221 12.0182 61.2383 11.8906C61.4544 11.7604 61.7188 11.6953 62.0312 11.6953C62.4896 11.6953 62.8294 11.8203 63.0508 12.0703C63.2747 12.3203 63.3867 12.7057 63.3867 13.2266V16H62.5508V13.4219C62.5508 13.0286 62.487 12.7487 62.3594 12.582C62.2318 12.4154 62.0182 12.332 61.7188 12.332C61.4062 12.332 61.1576 12.4479 60.9727 12.6797C60.7878 12.9089 60.6953 13.2201 60.6953 13.6133ZM65.2773 10.2031V16H64.4453V10.2031H65.2773ZM70.0938 13.8828C70.0938 14.6042 69.9219 15.151 69.5781 15.5234C69.2344 15.8932 68.7448 16.0781 68.1094 16.0781C67.4766 16.0781 66.9922 15.888 66.6562 15.5078C66.3229 15.125 66.1562 14.5833 66.1562 13.8828C66.1562 13.1693 66.3242 12.6263 66.6602 12.2539C66.9961 11.8815 67.487 11.6953 68.1328 11.6953C68.7917 11.6953 69.2826 11.8763 69.6055 12.2383C69.931 12.6003 70.0938 13.1484 70.0938 13.8828ZM69.2188 13.8828C69.2188 13.3255 69.1341 12.9219 68.9648 12.6719C68.7956 12.4193 68.5221 12.293 68.1445 12.293C67.7591 12.293 67.4766 12.4232 67.2969 12.6836C67.1198 12.9414 67.0312 13.3411 67.0312 13.8828C67.0312 14.4115 67.1185 14.8099 67.293 15.0781C67.4701 15.3464 67.7383 15.4805 68.0977 15.4805C68.4935 15.4805 68.7786 15.3503 68.9531 15.0898C69.1302 14.8294 69.2188 14.4271 69.2188 13.8828ZM72.0117 16.0781C71.5924 16.0781 71.2734 15.9661 71.0547 15.7422C70.8359 15.5182 70.7266 15.2096 70.7266 14.8164C70.7266 14.3789 70.8698 14.0443 71.1562 13.8125C71.4427 13.5807 71.8906 13.457 72.5 13.4414L73.4336 13.4258V13.2031C73.4336 12.8802 73.3685 12.6471 73.2383 12.5039C73.1107 12.3607 72.9062 12.2891 72.625 12.2891C72.3464 12.2891 72.1432 12.3398 72.0156 12.4414C71.8906 12.543 71.8138 12.7083 71.7852 12.9375L70.9141 12.875C71.0417 12.0885 71.6211 11.6953 72.6523 11.6953C73.1836 11.6953 73.5859 11.8203 73.8594 12.0703C74.1354 12.3203 74.2734 12.6797 74.2734 13.1484V14.875C74.2734 15.0938 74.3008 15.2539 74.3555 15.3555C74.4102 15.4544 74.5091 15.5039 74.6523 15.5039C74.7305 15.5039 74.8086 15.4948 74.8867 15.4766V15.9648C74.7826 15.9909 74.6836 16.0104 74.5898 16.0234C74.4987 16.0365 74.3997 16.043 74.293 16.043C74.0273 16.043 73.832 15.9753 73.707 15.8398C73.5846 15.7018 73.5143 15.4922 73.4961 15.2109H73.4727C73.3008 15.5182 73.0964 15.7396 72.8594 15.875C72.625 16.0104 72.3424 16.0781 72.0117 16.0781ZM73.4336 13.957L72.7344 13.9688C72.4297 13.9766 72.2031 14.0091 72.0547 14.0664C71.9036 14.1237 71.7878 14.2109 71.707 14.3281C71.6289 14.4453 71.5898 14.6003 71.5898 14.793C71.5898 15.0143 71.6458 15.1836 71.7578 15.3008C71.8724 15.4154 72.0312 15.4727 72.2344 15.4727C72.4661 15.4727 72.6719 15.418 72.8516 15.3086C73.0312 15.1992 73.1732 15.0495 73.2773 14.8594C73.3815 14.6667 73.4336 14.4674 73.4336 14.2617V13.957ZM78.1484 16C78.1432 15.9714 78.1367 15.9167 78.1289 15.8359C78.1211 15.7552 78.1146 15.6667 78.1094 15.5703C78.1042 15.474 78.1016 15.3893 78.1016 15.3164H78.0859C77.9609 15.582 77.7891 15.776 77.5703 15.8984C77.3516 16.0182 77.0807 16.0781 76.7578 16.0781C76.2396 16.0781 75.8516 15.8945 75.5938 15.5273C75.3359 15.1602 75.207 14.6185 75.207 13.9023C75.207 13.1758 75.3398 12.6263 75.6055 12.2539C75.8737 11.8815 76.2669 11.6953 76.7852 11.6953C77.1003 11.6953 77.3646 11.7552 77.5781 11.875C77.7943 11.9948 77.9648 12.181 78.0898 12.4336H78.0977L78.0898 11.8867V10.2031H78.9258V15.1133C78.9258 15.3034 78.9271 15.4727 78.9297 15.6211C78.9349 15.7669 78.9414 15.8932 78.9492 16H78.1484ZM76.082 13.8867C76.082 14.4388 76.1576 14.8398 76.3086 15.0898C76.4622 15.3398 76.7044 15.4648 77.0352 15.4648C77.3971 15.4648 77.6641 15.3307 77.8359 15.0625C78.0078 14.7943 78.0938 14.388 78.0938 13.8438C78.0938 13.3203 78.0078 12.931 77.8359 12.6758C77.6667 12.418 77.4023 12.2891 77.043 12.2891C76.707 12.2891 76.4622 12.4167 76.3086 12.6719C76.1576 12.9245 76.082 13.3294 76.082 13.8867ZM85.9609 13.8828C85.9609 14.6042 85.7891 15.151 85.4453 15.5234C85.1016 15.8932 84.612 16.0781 83.9766 16.0781C83.3438 16.0781 82.8594 15.888 82.5234 15.5078C82.1901 15.125 82.0234 14.5833 82.0234 13.8828C82.0234 13.1693 82.1914 12.6263 82.5273 12.2539C82.8633 11.8815 83.3542 11.6953 84 11.6953C84.6589 11.6953 85.1497 11.8763 85.4727 12.2383C85.7982 12.6003 85.9609 13.1484 85.9609 13.8828ZM85.0859 13.8828C85.0859 13.3255 85.0013 12.9219 84.832 12.6719C84.6628 12.4193 84.3893 12.293 84.0117 12.293C83.6263 12.293 83.3438 12.4232 83.1641 12.6836C82.987 12.9414 82.8984 13.3411 82.8984 13.8828C82.8984 14.4115 82.9857 14.8099 83.1602 15.0781C83.3372 15.3464 83.6055 15.4805 83.9648 15.4805C84.3607 15.4805 84.6458 15.3503 84.8203 15.0898C84.9974 14.8294 85.0859 14.4271 85.0859 13.8828ZM87.6797 13.6133V16H86.8438V12.6914C86.8438 12.4492 86.8411 12.2552 86.8359 12.1094C86.8333 11.9609 86.8281 11.849 86.8203 11.7734H87.6094C87.6146 11.8177 87.6198 11.8841 87.625 11.9727C87.6302 12.0612 87.6341 12.1562 87.6367 12.2578C87.6419 12.3594 87.6458 12.4518 87.6484 12.5352H87.6602C87.819 12.2331 88.0065 12.0182 88.2227 11.8906C88.4388 11.7604 88.7031 11.6953 89.0156 11.6953C89.474 11.6953 89.8138 11.8203 90.0352 12.0703C90.2591 12.3203 90.3711 12.7057 90.3711 13.2266V16H89.5352V13.4219C89.5352 13.0286 89.4714 12.7487 89.3438 12.582C89.2161 12.4154 89.0026 12.332 88.7031 12.332C88.3906 12.332 88.1419 12.4479 87.957 12.6797C87.7721 12.9089 87.6797 13.2201 87.6797 13.6133ZM95.4062 15.957C95.1667 16.0299 94.9062 16.0664 94.625 16.0664C94.3307 16.0664 94.1068 15.9844 93.9531 15.8203C93.8021 15.6536 93.7266 15.4049 93.7266 15.0742V12.3633H93.2227V11.7734H93.7617L94.0156 10.8125H94.5586V11.7734H95.3438V12.3633H94.5586V14.8711C94.5586 15.0768 94.5938 15.224 94.6641 15.3125C94.7344 15.3984 94.8516 15.4414 95.0156 15.4414C95.099 15.4414 95.2292 15.4232 95.4062 15.3867V15.957ZM96.8555 12.5352C97.0065 12.2435 97.1901 12.0312 97.4062 11.8984C97.6224 11.763 97.8906 11.6953 98.2109 11.6953C98.6667 11.6953 99.0065 11.8216 99.2305 12.0742C99.4544 12.3242 99.5664 12.7096 99.5664 13.2305V16H98.7305V13.4258C98.7305 13.0456 98.6654 12.7682 98.5352 12.5938C98.4049 12.4193 98.1927 12.332 97.8984 12.332C97.5911 12.332 97.3438 12.4466 97.1562 12.6758C96.9688 12.9049 96.875 13.2083 96.875 13.5859V16H96.0391V10.2031H96.875V11.7344C96.875 11.8359 96.8724 11.9414 96.8672 12.0508C96.8646 12.1576 96.8607 12.2552 96.8555 12.3438C96.8529 12.4297 96.849 12.4935 96.8438 12.5352H96.8555ZM101.285 14.0547C101.285 14.5156 101.378 14.8685 101.562 15.1133C101.747 15.3581 102.014 15.4805 102.363 15.4805C102.632 15.4805 102.848 15.4258 103.012 15.3164C103.176 15.207 103.288 15.0625 103.348 14.8828L104.102 15.0273C103.833 15.7279 103.249 16.0781 102.348 16.0781C101.717 16.0781 101.237 15.8919 100.906 15.5195C100.576 15.1445 100.41 14.5924 100.41 13.8633C100.41 13.1654 100.577 12.6302 100.91 12.2578C101.243 11.8828 101.717 11.6953 102.332 11.6953C102.949 11.6953 103.414 11.888 103.727 12.2734C104.042 12.6562 104.199 13.2266 104.199 13.9844V14.0547H101.285ZM103.359 13.4688C103.328 13.0573 103.225 12.7552 103.051 12.5625C102.879 12.3698 102.635 12.2734 102.32 12.2734C102.008 12.2734 101.762 12.3789 101.582 12.5898C101.402 12.8008 101.306 13.0938 101.293 13.4688H103.359Z" fill="white"/>
<path d="M44.8749 26.7393L43.9594 29.376H41.7987L45.5634 19.0562H48.1122L51.8622 29.376H49.7235L48.808 26.7393H44.8749ZM46.8378 20.6455C46.789 20.8408 46.7206 21.0752 46.6327 21.3486C46.5448 21.6221 46.4814 21.8149 46.4423 21.9272L45.3583 25.1133H48.3246L47.2113 21.8613C47.143 21.6611 47.0795 21.4585 47.0209 21.2534C46.9623 21.0483 46.9013 20.8457 46.8378 20.6455ZM60.2124 25.377C60.2124 26.7002 59.9463 27.7231 59.4141 28.4458C58.8867 29.1636 58.1397 29.5225 57.1729 29.5225C56.0254 29.5225 55.2246 29.0537 54.7705 28.1162H54.7266C54.7559 28.2627 54.7705 28.707 54.7705 29.4492V32.4888H52.7124V23.2749C52.7124 22.8989 52.7075 22.5596 52.6978 22.2568C52.688 21.9541 52.6734 21.6855 52.6538 21.4512H54.6533C54.6729 21.5098 54.6875 21.6099 54.6973 21.7515C54.7119 21.8882 54.7217 22.0444 54.7266 22.2202C54.7363 22.396 54.7412 22.5693 54.7412 22.7402H54.7705C55 22.252 55.3272 21.8882 55.752 21.6489C56.1768 21.4048 56.6943 21.2827 57.3047 21.2827C58.2276 21.2827 58.9429 21.6392 59.4507 22.3521C59.9585 23.0601 60.2124 24.0684 60.2124 25.377ZM58.0664 25.377C58.0664 24.4883 57.9297 23.8218 57.6563 23.3774C57.3877 22.9331 56.98 22.7109 56.4331 22.7109C55.8862 22.7109 55.4663 22.9502 55.1734 23.4287C54.8853 23.9072 54.7412 24.5762 54.7412 25.4355C54.7412 26.29 54.8853 26.9517 55.1734 27.4204C55.4663 27.8843 55.8814 28.1162 56.4185 28.1162C56.9702 28.1162 57.3828 27.8892 57.6563 27.4351C57.9297 26.9761 58.0664 26.29 58.0664 25.377ZM68.7823 25.377C68.7823 26.7002 68.5162 27.7231 67.984 28.4458C67.4567 29.1636 66.7096 29.5225 65.7428 29.5225C64.5953 29.5225 63.7945 29.0537 63.3404 28.1162H63.2965C63.3258 28.2627 63.3404 28.707 63.3404 29.4492V32.4888H61.2823V23.2749C61.2823 22.8989 61.2775 22.5596 61.2677 22.2568C61.2579 21.9541 61.2433 21.6855 61.2237 21.4512H63.2233C63.2428 21.5098 63.2574 21.6099 63.2672 21.7515C63.2818 21.8882 63.2916 22.0444 63.2965 22.2202C63.3063 22.396 63.3111 22.5693 63.3111 22.7402H63.3404C63.5699 22.252 63.8971 21.8882 64.3219 21.6489C64.7467 21.4048 65.2643 21.2827 65.8746 21.2827C66.7975 21.2827 67.5128 21.6392 68.0206 22.3521C68.5284 23.0601 68.7823 24.0684 68.7823 25.377ZM66.6363 25.377C66.6363 24.4883 66.4996 23.8218 66.2262 23.3774C65.9576 22.9331 65.5499 22.7109 65.003 22.7109C64.4562 22.7109 64.0362 22.9502 63.7433 23.4287C63.4552 23.9072 63.3111 24.5762 63.3111 25.4355C63.3111 26.29 63.4552 26.9517 63.7433 27.4204C64.0362 27.8843 64.4513 28.1162 64.9884 28.1162C65.5401 28.1162 65.9527 27.8892 66.2262 27.4351C66.4996 26.9761 66.6363 26.29 66.6363 25.377ZM81.7986 26.4023C81.7986 27.4131 81.4227 28.187 80.6707 28.7241C79.9236 29.2563 78.825 29.5225 77.3748 29.5225C74.7625 29.5225 73.2415 28.5776 72.8118 26.688L74.8992 26.3438C75.0408 26.8906 75.3167 27.2886 75.7269 27.5376C76.137 27.7817 76.7059 27.9038 77.4334 27.9038C78.1902 27.9038 78.7567 27.7891 79.1326 27.5596C79.5086 27.3301 79.6966 26.9858 79.6966 26.5269C79.6966 26.2339 79.6111 25.9922 79.4402 25.8018C79.2694 25.6113 79.0252 25.4526 78.7078 25.3257C78.5516 25.2622 78.3221 25.1938 78.0194 25.1206C77.7166 25.0425 77.3406 24.957 76.8914 24.8643C76.3738 24.7422 75.9686 24.6396 75.6756 24.5566C75.3826 24.4688 75.1483 24.3857 74.9725 24.3076C74.7967 24.2246 74.6258 24.1343 74.4598 24.0366C74.0936 23.8169 73.8079 23.5239 73.6028 23.1577C73.3978 22.7915 73.2952 22.335 73.2952 21.7881C73.2952 20.8555 73.6444 20.1426 74.3426 19.6494C75.0457 19.1514 76.0662 18.9023 77.4041 18.9023C78.6834 18.9023 79.6429 19.1025 80.2825 19.5029C80.9271 19.9033 81.3421 20.5649 81.5277 21.4878L79.4329 21.7734C79.3255 21.3291 79.1058 20.9946 78.7737 20.77C78.4466 20.5454 77.9754 20.4331 77.3602 20.4331C76.7059 20.4331 76.2152 20.5356 75.888 20.7407C75.5609 20.9458 75.3973 21.2534 75.3973 21.6636C75.3973 21.9321 75.4656 22.1519 75.6024 22.3228C75.744 22.4937 75.9515 22.6401 76.2249 22.7622C76.4837 22.8794 77.0379 23.0283 77.8875 23.209C78.3807 23.3164 78.8055 23.4189 79.1619 23.5166C79.5184 23.6094 79.804 23.6997 80.0189 23.7876C80.2337 23.8804 80.4241 23.978 80.5902 24.0806C80.761 24.1831 80.9075 24.293 81.0296 24.4102C81.2786 24.6494 81.4691 24.9351 81.6009 25.2671C81.7327 25.5942 81.7986 25.9727 81.7986 26.4023ZM86.5966 29.2588C86.0985 29.4248 85.5199 29.5078 84.8608 29.5078C84.2553 29.5078 83.789 29.3442 83.4618 29.0171C83.1347 28.6851 82.9711 28.1846 82.9711 27.5156V22.8428H81.9677V21.4512H83.0736L83.7182 19.5908H85.0072V21.4512H86.5087V22.8428H85.0072V26.959C85.0072 27.3447 85.0805 27.6304 85.227 27.8159C85.3735 27.9966 85.6005 28.0869 85.9081 28.0869C86.0546 28.0869 86.2841 28.0527 86.5966 27.9844V29.2588ZM94.7564 25.4062C94.7564 26.6904 94.3999 27.6987 93.687 28.4312C92.9741 29.1587 91.9878 29.5225 90.728 29.5225C89.4927 29.5225 88.5235 29.1562 87.8203 28.4238C87.1172 27.6914 86.7656 26.6855 86.7656 25.4062C86.7656 24.1318 87.1172 23.1309 87.8203 22.4033C88.5235 21.6709 89.5073 21.3047 90.772 21.3047C92.0659 21.3047 93.0523 21.6587 93.731 22.3667C94.4146 23.0698 94.7564 24.083 94.7564 25.4062ZM92.603 25.4062C92.603 24.4639 92.4492 23.7803 92.1416 23.3555C91.834 22.9307 91.3872 22.7183 90.8013 22.7183C90.1763 22.7183 89.7075 22.9429 89.395 23.3921C89.0825 23.8364 88.9263 24.5078 88.9263 25.4062C88.9263 26.29 89.0777 26.9639 89.3804 27.4277C89.688 27.8867 90.1299 28.1162 90.7061 28.1162C91.3408 28.1162 91.8145 27.8916 92.127 27.4424C92.4444 26.9883 92.603 26.3096 92.603 25.4062ZM97.8551 25.4868V29.376H95.797V23.3115C95.797 22.877 95.7897 22.5156 95.775 22.2275C95.7652 21.9346 95.753 21.6758 95.7384 21.4512H97.7013C97.711 21.4951 97.7208 21.5928 97.7306 21.7441C97.7403 21.8955 97.7501 22.0664 97.7599 22.2568C97.7696 22.4424 97.777 22.6182 97.7818 22.7842C97.7916 22.9502 97.7965 23.0698 97.7965 23.1431H97.8258C98.0211 22.5962 98.1993 22.2031 98.3605 21.9639C98.5167 21.7344 98.7023 21.5659 98.9171 21.4585C99.1319 21.3511 99.4005 21.2974 99.7228 21.2974C99.9864 21.2974 100.199 21.334 100.36 21.4072V23.1284C100.033 23.0552 99.7399 23.0186 99.4811 23.0186C98.9684 23.0186 98.568 23.2261 98.2799 23.6411C97.9967 24.0562 97.8551 24.6714 97.8551 25.4868ZM102.741 25.8091C102.741 26.5806 102.883 27.1641 103.166 27.5596C103.454 27.9502 103.862 28.1455 104.389 28.1455C104.75 28.1455 105.046 28.0674 105.275 27.9111C105.509 27.75 105.673 27.5132 105.766 27.2007L107.707 27.3691C107.145 28.8047 106.005 29.5225 104.286 29.5225C103.095 29.5225 102.179 29.1709 101.54 28.4678C100.9 27.7598 100.58 26.7295 100.58 25.377C100.58 24.0684 100.905 23.0625 101.554 22.3594C102.204 21.6562 103.124 21.3047 104.316 21.3047C105.453 21.3047 106.322 21.6831 106.923 22.4399C107.524 23.1919 107.824 24.2954 107.824 25.7505V25.8091H102.741ZM105.832 24.52C105.793 23.8804 105.639 23.4019 105.37 23.0845C105.102 22.7622 104.74 22.6011 104.286 22.6011C103.803 22.6011 103.429 22.7695 103.166 23.1064C102.907 23.4434 102.77 23.9146 102.756 24.52H105.832Z" fill="white"/>
</svg>
