<svg width="64" height="64" viewBox="0 0 64 64" fill="none" xmlns="http://www.w3.org/2000/svg">
<circle cx="32" cy="32" r="31.5" stroke="white"/>
<path d="M46.6163 35.2627C46.3578 33.1413 45.4092 31.1636 43.9166 29.6341C42.424 28.1046 40.4702 27.108 38.3557 26.7977L36.3326 26.5039C38.8582 21.0483 34.5176 14.3614 28.4682 14.5002C26.5625 14.4978 24.7105 15.131 23.2052 16.2996C21.6999 17.4682 20.6272 19.1053 20.1569 20.952C20.1226 21.1103 20.151 21.2757 20.2361 21.4134C20.3213 21.5512 20.4566 21.6505 20.6135 21.6904C20.7705 21.7304 20.9368 21.7078 21.0774 21.6276C21.2181 21.5473 21.3221 21.4156 21.3676 21.2602C21.7699 19.6828 22.6866 18.2846 23.9727 17.2866C25.2588 16.2887 26.841 15.7481 28.4688 15.7502C38.1944 16.1552 38.1938 30.0058 28.4688 30.4064C26.61 30.4047 24.8211 29.6975 23.4636 28.4278C22.106 27.158 21.2809 25.4204 21.1551 23.5658C21.1443 23.4004 21.0682 23.246 20.9437 23.1366C20.8191 23.0273 20.6561 22.9719 20.4907 22.9827C20.3253 22.9934 20.1709 23.0695 20.0615 23.1941C19.9522 23.3187 19.8968 23.4816 19.9076 23.647C20.046 25.7482 20.9575 27.7238 22.4663 29.1927L20.0563 31.6252C18.9378 32.7535 18.1884 34.1951 17.9076 35.7589L16.4451 43.842C15.6182 47.9814 20.5251 51.112 23.9326 48.6208L31.3169 43.407C32.0295 42.8967 32.515 42.1287 32.6704 41.2661C32.8258 40.4036 32.6389 39.5144 32.1493 38.7875C31.6597 38.0605 30.9061 37.553 30.0484 37.3728C29.1907 37.1925 28.2965 37.3537 27.5557 37.822L23.3063 40.5427C23.1667 40.632 23.0682 40.7732 23.0327 40.9351C22.9971 41.097 23.0273 41.2665 23.1166 41.4061C23.206 41.5458 23.3471 41.6442 23.5091 41.6798C23.671 41.7154 23.8404 41.6851 23.9801 41.5958L28.2301 38.8752C28.6959 38.5673 29.2645 38.456 29.8121 38.5653C30.3596 38.6747 30.8418 38.9958 31.1538 39.459C31.4657 39.9221 31.582 40.4897 31.4775 41.0382C31.373 41.5867 31.0561 42.0717 30.5957 42.3877L23.2119 47.6002C22.6349 47.9987 21.953 48.2182 21.2518 48.2309C20.5506 48.2437 19.8612 48.0492 19.2701 47.6719C18.6789 47.2946 18.2122 46.7512 17.9285 46.1099C17.6447 45.4685 17.5566 44.7577 17.6751 44.0664L19.1388 35.9814C19.3751 34.6661 20.0054 33.4536 20.9463 32.5045L23.4238 30.002C24.372 30.6868 25.4499 31.1711 26.5915 31.4253C27.7332 31.6795 28.9147 31.6982 30.0638 31.4805C31.213 31.2627 32.3057 30.8129 33.2752 30.1587C34.2447 29.5044 35.0706 28.6594 35.7026 27.6752L38.1763 28.0352C40.019 28.3056 41.7217 29.1742 43.0224 30.5073C44.323 31.8403 45.1494 33.5639 45.3744 35.4127L46.3869 43.8289C46.4068 43.9936 46.4912 44.1437 46.6216 44.2461C46.7521 44.3486 46.9179 44.395 47.0826 44.3752C47.2473 44.3554 47.3973 44.2709 47.4998 44.1405C47.6022 44.01 47.6486 43.8442 47.6288 43.6795L46.6163 35.2627Z" fill="white"/>
<path d="M39.5888 36.8463C39.567 36.7671 39.5298 36.6931 39.4793 36.6283C39.4289 36.5636 39.3662 36.5094 39.2948 36.4689C39.2234 36.4284 39.1447 36.4024 39.0633 36.3922C38.9818 36.3821 38.8992 36.3882 38.8201 36.41C38.7409 36.4318 38.6669 36.469 38.6022 36.5195C38.5374 36.5699 38.4832 36.6326 38.4427 36.704C38.4022 36.7754 38.3762 36.8541 38.3661 36.9355C38.356 37.017 38.362 37.0996 38.3838 37.1788L40.4632 44.71C40.5091 44.8676 40.6152 45.0009 40.7585 45.0809C40.9019 45.161 41.0709 45.1814 41.2292 45.1378C41.3875 45.0942 41.5223 44.9901 41.6044 44.8479C41.6866 44.7058 41.7095 44.537 41.6682 44.3781L39.5888 36.8463ZM27.2657 35.6738L27.8057 34.87L28.2488 35.5063C28.2945 35.5764 28.3538 35.6367 28.4233 35.6835C28.4927 35.7303 28.5708 35.7626 28.653 35.7786C28.7352 35.7947 28.8198 35.794 28.9017 35.7767C28.9836 35.7594 29.0612 35.7258 29.1299 35.6779C29.1986 35.6301 29.257 35.5689 29.3016 35.498C29.3462 35.4271 29.376 35.348 29.3895 35.2654C29.4029 35.1827 29.3996 35.0982 29.3797 35.0169C29.3598 34.9355 29.3238 34.859 29.2738 34.7919L28.3101 33.4069C28.2511 33.3248 28.1733 33.2581 28.0832 33.2123C27.9932 33.1665 27.8934 33.143 27.7923 33.1438C27.6913 33.1446 27.5919 33.1697 27.5025 33.2169C27.4132 33.264 27.3365 33.332 27.2788 33.415L26.4288 34.6775L24.6701 34.5625C24.5645 34.5565 24.4591 34.5772 24.3636 34.6227C24.2682 34.6683 24.1858 34.7372 24.124 34.8231C24.0623 34.909 24.0233 35.0091 24.0106 35.1141C23.9979 35.2191 24.0119 35.3256 24.0513 35.4238L24.8013 37.25C24.8325 37.3259 24.8783 37.395 24.9362 37.4532C24.9941 37.5114 25.0628 37.5576 25.1386 37.5892C25.2143 37.6209 25.2955 37.6373 25.3776 37.6375C25.4597 37.6377 25.541 37.6218 25.6169 37.5906C25.6929 37.5594 25.7619 37.5136 25.8201 37.4557C25.8783 37.3979 25.9245 37.3291 25.9562 37.2534C25.9878 37.1776 26.0042 37.0964 26.0044 37.0143C26.0047 36.9322 25.9888 36.8509 25.9576 36.775L25.5876 35.875L26.7063 35.9481C26.8156 35.9564 26.9251 35.9352 27.0235 35.8868C27.1218 35.8385 27.2055 35.7653 27.2657 35.6738ZM36.0082 35.1931C35.9522 35.1168 35.8797 35.0542 35.796 35.01C35.7123 34.9659 35.6196 34.9413 35.5251 34.9381L34.1401 34.8919L33.1482 33.3088C33.0915 33.2202 33.0135 33.1472 32.9214 33.0965C32.8292 33.0458 32.7258 33.019 32.6206 33.0186C32.5155 33.0181 32.4118 33.0441 32.3193 33.094C32.2267 33.1439 32.1481 33.2163 32.0907 33.3044L31.3938 34.4C31.3497 34.4693 31.3197 34.5465 31.3055 34.6274C31.2913 34.7083 31.2932 34.7912 31.311 34.8713C31.3288 34.9515 31.3622 35.0273 31.4094 35.0945C31.4565 35.1618 31.5164 35.2191 31.5857 35.2631C31.655 35.3072 31.7322 35.3372 31.8131 35.3514C31.894 35.3656 31.9768 35.3638 32.057 35.3459C32.1371 35.3281 32.213 35.2947 32.2802 35.2476C32.3475 35.2004 32.4047 35.1405 32.4488 35.0713L32.6144 34.8113L33.2576 35.8381C33.4976 36.2738 34.2513 36.1081 34.6882 36.1619C34.6401 36.4444 34.2851 37.2581 34.4363 37.5363L34.7551 38.3444L34.1413 38.6044C33.9887 38.669 33.8679 38.7917 33.8057 38.9453C33.7434 39.099 33.7448 39.2711 33.8094 39.4238C33.8741 39.5764 33.9967 39.6971 34.1504 39.7594C34.3041 39.8216 34.4762 39.8203 34.6288 39.7556L35.8038 39.2581C35.9541 39.1946 36.0735 39.0748 36.1366 38.9244C36.1997 38.774 36.2014 38.6048 36.1413 38.4531L35.6757 37.2719L36.1069 35.7319C36.1325 35.6406 36.1369 35.5447 36.1199 35.4515C36.1029 35.3583 36.0649 35.2701 36.0088 35.1938L36.0082 35.1931ZM36.3944 42.115L35.1626 41.7056C35.0071 41.6597 34.8398 41.676 34.6961 41.7511C34.5524 41.8262 34.4435 41.9542 34.3924 42.1081C34.3413 42.2619 34.352 42.4296 34.4222 42.5758C34.4925 42.7219 34.6167 42.835 34.7688 42.8913L35.0626 42.9894L34.2232 43.8631C34.1523 43.937 34.1006 44.0271 34.0727 44.1257C34.0448 44.2242 34.0415 44.328 34.0632 44.4281L34.2582 45.33C33.9707 45.3525 33.0988 45.205 32.8638 45.42L32.1576 45.9263L31.7551 45.395C31.7066 45.3269 31.6451 45.2692 31.574 45.2253C31.5028 45.1815 31.4237 45.1523 31.3411 45.1395C31.2585 45.1268 31.1742 45.1307 31.0932 45.1511C31.0121 45.1715 30.936 45.2079 30.8693 45.2583C30.8026 45.3086 30.7467 45.3718 30.7048 45.4441C30.663 45.5164 30.636 45.5964 30.6256 45.6793C30.6152 45.7622 30.6215 45.8463 30.6442 45.9268C30.6668 46.0072 30.7054 46.0822 30.7576 46.1475L31.5276 47.1663C31.6258 47.2963 31.771 47.3827 31.9321 47.4073C32.0932 47.4318 32.2576 47.3924 32.3901 47.2975L33.4213 46.5581L35.0207 46.6C35.1151 46.6017 35.2087 46.5821 35.2945 46.5427C35.3803 46.5033 35.4561 46.4451 35.5164 46.3724C35.5767 46.2997 35.6198 46.2144 35.6426 46.1228C35.6654 46.0312 35.6673 45.9356 35.6482 45.8431L35.3544 44.4888L36.6482 43.1406C36.7199 43.064 36.7713 42.9707 36.7978 42.8692C36.8243 42.7676 36.8249 42.6611 36.7997 42.5592C36.7745 42.4573 36.7242 42.3634 36.6534 42.2859C36.5826 42.2085 36.4936 42.1499 36.3944 42.1156V42.115Z" fill="white"/>
</svg>
