<svg width="64" height="64" viewBox="0 0 64 64" fill="none" xmlns="http://www.w3.org/2000/svg">
<circle cx="32" cy="32" r="31.5" stroke="white"/>
<path d="M46.6562 27.0688L40.4062 23.9438C40.3197 23.8976 40.2231 23.8734 40.125 23.8734C40.0269 23.8734 39.9303 23.8976 39.8437 23.9438L35.75 25.9875V21.375C35.7525 21.0442 35.8849 20.7277 36.1188 20.4938C36.3527 20.2599 36.6692 20.1275 37 20.125C37.3312 20.126 37.6486 20.258 37.8828 20.4922C38.117 20.7264 38.249 21.0438 38.25 21.375V23.25H39.5V21.375C39.5007 20.9359 39.3856 20.5044 39.1662 20.1241C38.9469 19.7437 38.6311 19.4279 38.2508 19.2086C37.8704 18.9893 37.4389 18.8741 36.9999 18.8748C36.5608 18.8755 36.1297 18.992 35.75 19.2125V18.875C35.7507 18.4359 35.6356 18.0044 35.4162 17.6241C35.1969 17.2437 34.8811 16.9279 34.5008 16.7086C34.1204 16.4893 33.6889 16.3741 33.2499 16.3748C32.8108 16.3755 32.3797 16.492 32 16.7125V15.75C32 15.087 31.7366 14.4511 31.2678 13.9822C30.7989 13.5134 30.163 13.25 29.5 13.25C28.837 13.25 28.2011 13.5134 27.7322 13.9822C27.2634 14.4511 27 15.087 27 15.75V16.7125C26.6203 16.4922 26.1892 16.3759 25.7502 16.3753C25.3112 16.3747 24.8798 16.4898 24.4995 16.7091C24.1192 16.9284 23.8035 17.2441 23.5841 17.6244C23.3647 18.0046 23.2495 18.436 23.25 18.875V29.0438L21.9187 26.7312C21.5872 26.1561 21.0408 25.7361 20.3997 25.5638C19.7585 25.3915 19.0752 25.481 18.5 25.8125C17.9248 26.144 17.5049 26.6905 17.3326 27.3316C17.1603 27.9727 17.2497 28.6561 17.5812 29.2312L24.5 41.2062V43.25H23.875C23.7092 43.25 23.5503 43.3158 23.4331 43.4331C23.3158 43.5503 23.25 43.7092 23.25 43.875V50.75H24.5V44.5H38.25V50.75H39.5V43.875C39.5 43.7092 39.4341 43.5503 39.3169 43.4331C39.1997 43.3158 39.0408 43.25 38.875 43.25H38.25V40.8687L38.4562 40.3562L37.2937 39.8938L37.0437 40.5188C37.0137 40.5921 36.9988 40.6707 37 40.75V43.25H25.75V41.0375C25.749 40.9282 25.7211 40.8209 25.6687 40.725L18.6687 28.6062C18.558 28.4189 18.4997 28.2052 18.5 27.9875C18.4991 27.7122 18.5891 27.4443 18.7561 27.2254C18.923 27.0065 19.1576 26.8489 19.4233 26.7769C19.689 26.705 19.9711 26.7227 20.2256 26.8275C20.4802 26.9322 20.6931 27.1181 20.8312 27.3562L23.3312 31.6875C23.3863 31.7829 23.4656 31.862 23.5611 31.9169C23.6566 31.9718 23.7649 32.0004 23.875 32H25.75C26.9099 32.0013 28.0219 32.4627 28.8421 33.2829C29.6623 34.1031 30.1237 35.2151 30.125 36.375V37.625H31.375V36.375C31.3727 34.8839 30.7793 33.4545 29.7249 32.4001C28.6705 31.3457 27.2411 30.7523 25.75 30.75H24.5V18.875C24.5024 18.5442 24.6349 18.2277 24.8688 17.9938C25.1027 17.7599 25.4192 17.6275 25.75 17.625C26.0812 17.626 26.3986 17.758 26.6328 17.9922C26.867 18.2264 26.999 18.5438 27 18.875V27.625C27 27.7908 27.0658 27.9497 27.1831 28.0669C27.3003 28.1842 27.4592 28.25 27.625 28.25C27.7908 28.25 27.9497 28.1842 28.0669 28.0669C28.1841 27.9497 28.25 27.7908 28.25 27.625V15.75C28.2524 15.4192 28.3849 15.1027 28.6188 14.8688C28.8527 14.6349 29.1692 14.5025 29.5 14.5C29.8312 14.501 30.1486 14.633 30.3828 14.8672C30.617 15.1014 30.749 15.4188 30.75 15.75V27.625C30.75 27.7908 30.8158 27.9497 30.9331 28.0669C31.0503 28.1842 31.2092 28.25 31.375 28.25C31.5408 28.25 31.6997 28.1842 31.8169 28.0669C31.9341 27.9497 32 27.7908 32 27.625V18.875C32.0024 18.5442 32.1349 18.2277 32.3688 17.9938C32.6027 17.7599 32.9192 17.6275 33.25 17.625C33.5812 17.626 33.8986 17.758 34.1328 17.9922C34.367 18.2264 34.499 18.5438 34.5 18.875V26.6125L33.5937 27.0688C33.4896 27.1193 33.402 27.1985 33.3411 27.297C33.2803 27.3955 33.2487 27.5092 33.25 27.625V31.5062C33.2538 32.9078 33.6187 34.2848 34.3095 35.5043C35.0002 36.7239 35.9936 37.7448 37.1937 38.4688L39.8062 40.0375C39.9027 40.0947 40.0128 40.1249 40.125 40.1249C40.2372 40.1249 40.3473 40.0947 40.4437 40.0375L43.0562 38.4688C44.2564 37.7448 45.2498 36.7239 45.9405 35.5043C46.6313 34.2848 46.9962 32.9078 47 31.5062V27.625C47.0013 27.5092 46.9697 27.3955 46.9089 27.297C46.848 27.1985 46.7604 27.1193 46.6562 27.0688ZM45.75 31.5062C45.7457 32.6924 45.4365 33.8575 44.852 34.8896C44.2675 35.9217 43.4275 36.7862 42.4125 37.4L40.125 38.7688L37.8375 37.4C36.8225 36.7862 35.9825 35.9217 35.398 34.8896C34.8135 33.8575 34.5043 32.6924 34.5 31.5062V28.0125L40.125 25.2L45.75 28.0125V31.5062Z" fill="white"/>
<path d="M38.0669 30.9331L37.1831 31.8169L39.0581 33.6919C39.1753 33.809 39.3343 33.8748 39.5 33.8748C39.6657 33.8748 39.8247 33.809 39.9419 33.6919L43.0669 30.5669L42.1831 29.6831L39.5 32.3662L38.0669 30.9331Z" fill="white"/>
</svg>
