<svg width="64" height="64" viewBox="0 0 64 64" fill="none" xmlns="http://www.w3.org/2000/svg">
<circle cx="32" cy="32" r="31.5" stroke="white"/>
<path d="M44.8953 50.6188H19.1047C17.8625 50.6188 16.7575 49.9723 16.1487 48.8896C15.5398 47.8069 15.5617 46.5269 16.2071 45.4656C16.2137 45.4548 16.2206 45.4442 16.2278 45.4339L28.2182 28.3261V20.9461C28.2182 20.7918 28.2795 20.6438 28.3886 20.5347C28.4977 20.4256 28.6457 20.3643 28.8 20.3643H35.2C35.3543 20.3643 35.5023 20.4256 35.6114 20.5347C35.7205 20.6438 35.7818 20.7918 35.7818 20.9461V28.3261L47.7721 45.4339C47.7794 45.4443 47.7863 45.4547 47.7928 45.4656C48.4383 46.5269 48.4601 47.8069 47.8513 48.8896C47.2425 49.9724 46.1375 50.6188 44.8953 50.6188ZM17.1922 46.0853C16.7772 46.7795 16.766 47.6133 17.163 48.3193C17.5629 49.0305 18.2888 49.4552 19.1047 49.4552H44.8953C45.7113 49.4552 46.4371 49.0305 46.837 48.3193C47.234 47.6133 47.2228 46.7796 46.8079 46.0854L34.7236 28.8436C34.655 28.7458 34.6182 28.6292 34.6182 28.5097V21.5279H29.3818V28.5097C29.3818 28.6292 29.345 28.7458 29.2764 28.8436L17.1922 46.0853Z" fill="white"/>
<path d="M37.2364 21.5281H26.7637C26.6094 21.5281 26.4614 21.4668 26.3523 21.3577C26.2431 21.2486 26.1818 21.1006 26.1818 20.9463V17.4554C26.1818 17.301 26.2431 17.1531 26.3523 17.0439C26.4614 16.9348 26.6094 16.8735 26.7637 16.8735H37.2364C37.3907 16.8735 37.5387 16.9348 37.6478 17.0439C37.7569 17.1531 37.8182 17.301 37.8182 17.4554V20.9463C37.8182 21.1006 37.7569 21.2486 37.6478 21.3577C37.5387 21.4668 37.3907 21.5281 37.2364 21.5281ZM27.3455 20.3644H36.6546V18.0372H27.3455V20.3644ZM25.7644 38.9826H21.8909C21.7366 38.9826 21.5886 38.9213 21.4795 38.8122C21.3704 38.7031 21.3091 38.5551 21.3091 38.4008C21.3091 38.2465 21.3704 38.0985 21.4795 37.9894C21.5886 37.8803 21.7366 37.819 21.8909 37.819H25.7644C27.451 37.819 29.0983 37.3466 30.528 36.4529C31.3306 35.9508 32.1997 35.5639 33.1098 35.3032C34.0197 35.0422 34.9617 34.9098 35.9084 34.9099H40.0728C40.2271 34.9099 40.375 34.9712 40.4842 35.0803C40.5933 35.1894 40.6546 35.3374 40.6546 35.4917C40.6546 35.646 40.5933 35.794 40.4842 35.9031C40.375 36.0122 40.2271 36.0735 40.0728 36.0735H35.9084C35.0694 36.0735 34.2357 36.1907 33.4303 36.4218C32.6247 36.6526 31.8553 36.9951 31.1448 37.4396C29.5316 38.4485 27.6671 38.9832 25.7644 38.9826Z" fill="white"/>
<path d="M29.6727 18.0369C29.5184 18.0369 29.3704 17.9756 29.2613 17.8665C29.1522 17.7573 29.0909 17.6094 29.0909 17.4551V15.1278C29.0909 14.9735 29.1522 14.8255 29.2613 14.7164C29.3704 14.6073 29.5184 14.546 29.6727 14.546C29.827 14.546 29.975 14.6073 30.0841 14.7164C30.1932 14.8255 30.2545 14.9735 30.2545 15.1278V17.4551C30.2545 17.6094 30.1932 17.7573 30.0841 17.8665C29.975 17.9756 29.827 18.0369 29.6727 18.0369ZM34.3273 18.0369C34.173 18.0369 34.025 17.9756 33.9159 17.8665C33.8067 17.7573 33.7454 17.6094 33.7454 17.4551V15.1278C33.7454 14.9735 33.8067 14.8255 33.9159 14.7164C34.025 14.6073 34.173 14.546 34.3273 14.546C34.4816 14.546 34.6296 14.6073 34.7387 14.7164C34.8478 14.8255 34.9091 14.9735 34.9091 15.1278V17.4551C34.9091 17.6094 34.8478 17.7573 34.7387 17.8665C34.6296 17.9756 34.4816 18.0369 34.3273 18.0369ZM32 15.7096C31.8457 15.7096 31.6977 15.6483 31.5886 15.5392C31.4795 15.4301 31.4182 15.2821 31.4182 15.1278V13.9641C31.4182 13.8098 31.4795 13.6618 31.5886 13.5527C31.6977 13.4436 31.8457 13.3823 32 13.3823C32.1543 13.3823 32.3023 13.4436 32.4114 13.5527C32.5205 13.6618 32.5818 13.8098 32.5818 13.9641V15.1278C32.5818 15.2821 32.5205 15.4301 32.4114 15.5392C32.3023 15.6483 32.1543 15.7096 32 15.7096ZM27.3454 15.7096C27.1911 15.7096 27.0432 15.6483 26.934 15.5392C26.8249 15.4301 26.7636 15.2821 26.7636 15.1278V13.9641C26.7636 13.8098 26.8249 13.6618 26.934 13.5527C27.0432 13.4436 27.1911 13.3823 27.3454 13.3823C27.4998 13.3823 27.6477 13.4436 27.7569 13.5527C27.866 13.6618 27.9273 13.8098 27.9273 13.9641V15.1278C27.9273 15.2821 27.866 15.4301 27.7569 15.5392C27.6477 15.6483 27.4998 15.7096 27.3454 15.7096ZM36.6545 15.7096C36.5002 15.7096 36.3522 15.6483 36.2431 15.5392C36.134 15.4301 36.0727 15.2821 36.0727 15.1278V13.9641C36.0727 13.8098 36.134 13.6618 36.2431 13.5527C36.3522 13.4436 36.5002 13.3823 36.6545 13.3823C36.8088 13.3823 36.9568 13.4436 37.0659 13.5527C37.1751 13.6618 37.2364 13.8098 37.2364 13.9641V15.1278C37.2364 15.2821 37.1751 15.4301 37.0659 15.5392C36.9568 15.6483 36.8088 15.7096 36.6545 15.7096ZM26.1818 47.1278C25.2193 47.1278 24.4364 46.3447 24.4364 45.3823C24.4364 44.4199 25.2193 43.6369 26.1818 43.6369C27.1443 43.6369 27.9273 44.4199 27.9273 45.3823C27.9273 46.3447 27.1443 47.1278 26.1818 47.1278ZM26.1818 44.8005C25.861 44.8005 25.6 45.0615 25.6 45.3823C25.6 45.7031 25.861 45.9641 26.1818 45.9641C26.5026 45.9641 26.7636 45.7031 26.7636 45.3823C26.7636 45.0615 26.5026 44.8005 26.1818 44.8005ZM39.5636 48.0005C38.6012 48.0005 37.8182 47.2175 37.8182 46.2551C37.8182 45.2927 38.6012 44.5096 39.5636 44.5096C40.526 44.5096 41.3091 45.2927 41.3091 46.2551C41.3091 47.2175 40.526 48.0005 39.5636 48.0005ZM39.5636 45.6732C39.2428 45.6732 38.9818 45.9343 38.9818 46.2551C38.9818 46.5759 39.2428 46.8369 39.5636 46.8369C39.8844 46.8369 40.1454 46.5759 40.1454 46.2551C40.1454 45.9343 39.8844 45.6732 39.5636 45.6732ZM31.6364 33.6005C30.6739 33.6005 29.8909 32.8175 29.8909 31.8551C29.8909 30.8926 30.6739 30.1096 31.6364 30.1096C32.5988 30.1096 33.3818 30.8926 33.3818 31.8551C33.3818 32.8175 32.5988 33.6005 31.6364 33.6005ZM31.6364 31.2732C31.3156 31.2732 31.0545 31.5343 31.0545 31.8551C31.0545 32.1759 31.3156 32.4369 31.6364 32.4369C31.9572 32.4369 32.2182 32.1759 32.2182 31.8551C32.2182 31.5343 31.9572 31.2732 31.6364 31.2732ZM33.7454 43.0551C32.4622 43.0551 31.4182 42.0111 31.4182 40.7278C31.4182 39.4445 32.4622 38.4005 33.7454 38.4005C35.0287 38.4005 36.0727 39.4445 36.0727 40.7278C36.0727 42.0111 35.0287 43.0551 33.7454 43.0551ZM33.7454 39.5641C33.1038 39.5641 32.5818 40.0862 32.5818 40.7278C32.5818 41.3694 33.1038 41.8914 33.7454 41.8914C34.387 41.8914 34.9091 41.3694 34.9091 40.7278C34.9091 40.0862 34.387 39.5641 33.7454 39.5641Z" fill="white"/>
</svg>
