<svg width="25" height="24" viewBox="0 0 25 24" fill="none" xmlns="http://www.w3.org/2000/svg">
<mask id="mask0_0_3693" style="mask-type:alpha" maskUnits="userSpaceOnUse" x="0" y="0" width="25" height="24">
<rect x="0.609558" width="24" height="24" fill="#D9D9D9"/>
</mask>
<g mask="url(#mask0_0_3693)">
<path d="M15.7148 5.04805C15.4292 5.04805 15.1881 4.94948 14.9913 4.75233C14.7945 4.55518 14.6961 4.31383 14.6961 4.0283C14.6961 3.74277 14.7947 3.50161 14.9918 3.30482C15.189 3.10802 15.4303 3.00963 15.7159 3.00963C16.0014 3.00963 16.2425 3.1082 16.4393 3.30535C16.6361 3.5025 16.7345 3.74384 16.7345 4.02938C16.7345 4.31491 16.636 4.55608 16.4388 4.75288C16.2417 4.94966 16.0003 5.04805 15.7148 5.04805ZM15.6859 20.9903C15.4004 20.9903 15.1592 20.8918 14.9624 20.6946C14.7656 20.4975 14.6673 20.2561 14.6673 19.9706C14.6673 19.685 14.7658 19.4439 14.963 19.2471C15.1601 19.0503 15.4015 18.9519 15.687 18.9519C15.9725 18.9519 16.2137 19.0505 16.4105 19.2476C16.6073 19.4448 16.7057 19.6861 16.7057 19.9717C16.7057 20.2572 16.6071 20.4983 16.41 20.6951C16.2128 20.8919 15.9715 20.9903 15.6859 20.9903ZM19.6859 8.43265C19.4004 8.43265 19.1592 8.33408 18.9624 8.13693C18.7656 7.93978 18.6673 7.69844 18.6673 7.4129C18.6673 7.12737 18.7658 6.88621 18.963 6.68943C19.1601 6.49263 19.4015 6.39423 19.687 6.39423C19.9725 6.39423 20.2137 6.49281 20.4105 6.68998C20.6073 6.88713 20.7057 7.12847 20.7057 7.414C20.7057 7.69953 20.6071 7.94069 20.41 8.13748C20.2128 8.33426 19.9715 8.43265 19.6859 8.43265ZM19.6571 17.6346C19.3715 17.6346 19.1304 17.536 18.9336 17.3388C18.7368 17.1417 18.6384 16.9003 18.6384 16.6148C18.6384 16.3293 18.737 16.0881 18.9341 15.8913C19.1313 15.6945 19.3726 15.5961 19.6582 15.5961C19.9437 15.5961 20.1849 15.6947 20.3817 15.8919C20.5784 16.089 20.6768 16.3304 20.6768 16.6159C20.6768 16.9014 20.5783 17.1426 20.3811 17.3394C20.184 17.5362 19.9426 17.6346 19.6571 17.6346ZM21.0898 13.0192C20.8042 13.0192 20.5631 12.9206 20.3663 12.7235C20.1695 12.5263 20.0711 12.285 20.0711 11.9994C20.0711 11.7139 20.1697 11.4727 20.3668 11.276C20.564 11.0792 20.8053 10.9808 21.0909 10.9808C21.3764 10.9808 21.6175 11.0793 21.8143 11.2765C22.0111 11.4737 22.1095 11.715 22.1095 12.0005C22.1095 12.2861 22.011 12.5272 21.8138 12.724C21.6166 12.9208 21.3753 13.0192 21.0898 13.0192ZM12.6096 21.5C11.2967 21.5 10.0623 21.2506 8.90613 20.752C7.74998 20.2533 6.7443 19.5765 5.88908 18.7217C5.03385 17.8669 4.35679 16.8616 3.85791 15.706C3.35902 14.5504 3.10958 13.3156 3.10958 12.0017C3.10958 10.6877 3.35896 9.45268 3.85771 8.29655C4.35646 7.1404 5.03333 6.13472 5.88833 5.2795C6.74333 4.42427 7.74875 3.74721 8.90458 3.24833C10.0604 2.74944 11.2954 2.5 12.6096 2.5V3.99998C10.3762 3.99998 8.48456 4.77498 6.93456 6.32498C5.38456 7.87498 4.60956 9.76664 4.60956 12C4.60956 14.2333 5.38456 16.125 6.93456 17.675C8.48456 19.225 10.3762 20 12.6096 20V21.5ZM12.6096 13.75C12.1237 13.75 11.7105 13.5798 11.3702 13.2394C11.0298 12.899 10.8596 12.4859 10.8596 12C10.8596 11.8974 10.8669 11.7971 10.8817 11.699C10.8964 11.6009 10.9269 11.507 10.973 11.4173L8.96536 9.39998L10.0096 8.35578L12.0269 10.3635C12.0999 10.334 12.2942 10.2962 12.6096 10.25C13.0955 10.25 13.5086 10.4202 13.849 10.7606C14.1893 11.1009 14.3595 11.5141 14.3595 12C14.3595 12.4859 14.1893 12.899 13.849 13.2394C13.5086 13.5798 13.0955 13.75 12.6096 13.75Z" fill="#0C0C0C" fill-opacity="0.7"/>
</g>
</svg>
