<svg width="33" height="32" viewBox="0 0 33 32" fill="none" xmlns="http://www.w3.org/2000/svg">
<mask id="mask0_0_3681" style="mask-type:alpha" maskUnits="userSpaceOnUse" x="0" y="0" width="33" height="32">
<rect x="0.345459" width="32" height="32" fill="#D9D9D9"/>
</mask>
<g mask="url(#mask0_0_3681)">
<path d="M8.75573 28.6669C8.09077 28.6669 7.52283 28.4314 7.05189 27.9604C6.58094 27.4895 6.34546 26.9215 6.34546 26.2566V13.7439C6.34546 13.0789 6.58094 12.511 7.05189 12.04C7.52283 11.5691 8.09077 11.3336 8.75573 11.3336H10.3455V8.66693C10.3455 7.00199 10.9292 5.58577 12.0967 4.41826C13.2643 3.25075 14.6805 2.66699 16.3454 2.66699C18.0104 2.66699 19.4266 3.25075 20.5941 4.41826C21.7616 5.58577 22.3454 7.00199 22.3454 8.66693V11.3336H23.9351C24.6001 11.3336 25.168 11.5691 25.639 12.04C26.1099 12.511 26.3454 13.0789 26.3454 13.7439V26.2566C26.3454 26.9215 26.1099 27.4895 25.639 27.9604C25.168 28.4314 24.6001 28.6669 23.9351 28.6669H8.75573ZM8.75573 26.6669H23.9351C24.0548 26.6669 24.1531 26.6284 24.23 26.5515C24.307 26.4746 24.3454 26.3763 24.3454 26.2566V13.7439C24.3454 13.6242 24.307 13.5259 24.23 13.449C24.1531 13.372 24.0548 13.3336 23.9351 13.3336H8.75573C8.63606 13.3336 8.53776 13.372 8.46083 13.449C8.38389 13.5259 8.34543 13.6242 8.34543 13.7439V26.2566C8.34543 26.3763 8.38389 26.4746 8.46083 26.5515C8.53776 26.6284 8.63606 26.6669 8.75573 26.6669ZM16.3454 22.3335C16.9933 22.3335 17.5441 22.1066 17.998 21.6528C18.4518 21.1989 18.6787 20.6481 18.6787 20.0002C18.6787 19.3524 18.4518 18.8015 17.998 18.3477C17.5441 17.8938 16.9933 17.6669 16.3454 17.6669C15.6976 17.6669 15.1467 17.8938 14.6929 18.3477C14.239 18.8015 14.0121 19.3524 14.0121 20.0002C14.0121 20.6481 14.239 21.1989 14.6929 21.6528C15.1467 22.1066 15.6976 22.3335 16.3454 22.3335ZM12.3454 11.3336H20.3454V8.66693C20.3454 7.55581 19.9565 6.61137 19.1788 5.83359C18.401 5.05581 17.4565 4.66693 16.3454 4.66693C15.2343 4.66693 14.2899 5.05581 13.5121 5.83359C12.7343 6.61137 12.3454 7.55581 12.3454 8.66693V11.3336Z" fill="#FA5946"/>
</g>
</svg>
