<svg width="25" height="24" viewBox="0 0 25 24" fill="none" xmlns="http://www.w3.org/2000/svg">
<mask id="mask0_0_3703" style="mask-type:alpha" maskUnits="userSpaceOnUse" x="0" y="0" width="25" height="24">
<rect x="0.609558" width="24" height="24" fill="#D9D9D9"/>
</mask>
<g mask="url(#mask0_0_3703)">
<path d="M5.91729 10.8173C5.41216 10.8173 4.98459 10.6423 4.63459 10.2923C4.28459 9.94228 4.10959 9.51472 4.10959 9.0096V5.3077C4.10959 4.80257 4.28459 4.375 4.63459 4.025C4.98459 3.675 5.41216 3.5 5.91729 3.5H19.3018C19.807 3.5 20.2345 3.675 20.5845 4.025C20.9345 4.375 21.1095 4.80257 21.1095 5.3077V9.0096C21.1095 9.51472 20.9345 9.94228 20.5845 10.2923C20.2345 10.6423 19.807 10.8173 19.3018 10.8173H5.91729ZM5.91729 9.3173H19.3018C19.3916 9.3173 19.4653 9.28845 19.523 9.23075C19.5807 9.17307 19.6096 9.09935 19.6096 9.0096V5.3077C19.6096 5.21795 19.5807 5.14423 19.523 5.08653C19.4653 5.02883 19.3916 4.99998 19.3018 4.99998H5.91729C5.82754 4.99998 5.75381 5.02883 5.69611 5.08653C5.63841 5.14423 5.60956 5.21795 5.60956 5.3077V9.0096C5.60956 9.09935 5.63841 9.17307 5.69611 9.23075C5.75381 9.28845 5.82754 9.3173 5.91729 9.3173ZM5.91729 20.5C5.41216 20.5 4.98459 20.325 4.63459 19.975C4.28459 19.625 4.10959 19.1974 4.10959 18.6923V15C4.10959 14.4949 4.28459 14.0673 4.63459 13.7173C4.98459 13.3673 5.41216 13.1923 5.91729 13.1923H19.3018C19.807 13.1923 20.2345 13.3673 20.5845 13.7173C20.9345 14.0673 21.1095 14.4949 21.1095 15V18.6923C21.1095 19.1974 20.9345 19.625 20.5845 19.975C20.2345 20.325 19.807 20.5 19.3018 20.5H5.91729ZM5.91729 19H19.3018C19.3916 19 19.4653 18.9711 19.523 18.9134C19.5807 18.8557 19.6096 18.782 19.6096 18.6923V15C19.6096 14.9102 19.5807 14.8365 19.523 14.7788C19.4653 14.7211 19.3916 14.6923 19.3018 14.6923H5.91729C5.82754 14.6923 5.75381 14.7211 5.69611 14.7788C5.63841 14.8365 5.60956 14.9102 5.60956 15V18.6923C5.60956 18.782 5.63841 18.8557 5.69611 18.9134C5.75381 18.9711 5.82754 19 5.91729 19Z" fill="#0C0C0C" fill-opacity="0.7"/>
</g>
</svg>
