<svg width="19" height="30" viewBox="0 0 19 30" fill="none" xmlns="http://www.w3.org/2000/svg">
<path opacity="0.9" fill-rule="evenodd" clip-rule="evenodd" d="M5.54787 4.84762C5.54787 3.76527 5.95963 2.72724 6.69256 1.9619C7.42549 1.19656 8.41956 0.766602 9.45609 0.766602C10.4926 0.766602 11.4867 1.19656 12.2196 1.9619C12.9525 2.72724 13.3643 3.76527 13.3643 4.84762V14.1552C13.3643 15.2376 12.9525 16.2756 12.2196 17.0409C11.4867 17.8063 10.4926 18.2362 9.45609 18.2362C8.41956 18.2362 7.42549 17.8063 6.69256 17.0409C5.95963 16.2756 5.54787 15.2376 5.54787 14.1552V4.84762ZM10.7588 23.5824C12.9295 23.2549 14.9144 22.1217 16.35 20.3903C17.7855 18.6589 18.5755 16.4453 18.5753 14.1552C18.5753 13.7944 18.438 13.4484 18.1937 13.1933C17.9494 12.9382 17.618 12.7949 17.2725 12.7949C16.927 12.7949 16.5957 12.9382 16.3513 13.1933C16.107 13.4484 15.9698 13.7944 15.9698 14.1552C15.9698 15.9591 15.2835 17.6892 14.062 18.9647C12.8404 20.2403 11.1836 20.9569 9.45609 20.9569C7.72855 20.9569 6.07176 20.2403 4.85021 18.9647C3.62865 17.6892 2.94239 15.9591 2.94239 14.1552C2.94239 13.7944 2.80514 13.4484 2.56083 13.1933C2.31652 12.9382 1.98516 12.7949 1.63965 12.7949C1.29415 12.7949 0.962788 12.9382 0.718477 13.1933C0.474167 13.4484 0.336914 13.7944 0.336914 14.1552C0.336623 16.4453 1.12664 18.6589 2.56219 20.3903C3.99775 22.1217 5.98271 23.2549 8.15335 23.5824V26.3983H6.34955C6.00405 26.3983 5.67269 26.5416 5.42838 26.7967C5.18407 27.0518 5.04682 27.3978 5.04682 27.7586C5.04682 28.1194 5.18407 28.4654 5.42838 28.7205C5.67269 28.9756 6.00405 29.1189 6.34955 29.1189H12.5626C12.9081 29.1189 13.2395 28.9756 13.4838 28.7205C13.7281 28.4654 13.8654 28.1194 13.8654 27.7586C13.8654 27.3978 13.7281 27.0518 13.4838 26.7967C13.2395 26.5416 12.9081 26.3983 12.5626 26.3983H10.7588V23.5824Z" fill="white"/>
</svg>
