<svg width="1279" height="785" viewBox="0 0 1279 785" fill="none" xmlns="http://www.w3.org/2000/svg">
<g filter="url(#filter0_d_0_4497)">
<path d="M1299 581.444C1299 796.529 1101.37 893 886.398 893C671.423 893 575 796.529 575 581.444C575 366.36 616.928 192 831.903 192C1046.88 192 1299 366.36 1299 581.444Z" fill="#FA5946"/>
</g>
<path opacity="0.5" d="M1339 607.444C1339 822.529 1141.37 919 926.398 919C711.423 919 615 822.529 615 607.444C615 392.36 656.928 218 871.903 218C1086.88 218 1339 392.36 1339 607.444Z" stroke="white" stroke-width="2"/>
<path d="M752.07 394.328V397H738.605V380.488H751.59V383.16H742.062V387.309H750.875V389.98H742.062V394.328H752.07ZM759.412 392.406L756.436 397H752.932L757.573 390.449L753.155 384.32H756.705L759.412 388.469L762.108 384.32H765.682L761.264 390.414L765.94 397H762.365L759.412 392.406ZM779.563 390.602C779.563 392.719 779.137 394.355 778.286 395.512C777.442 396.66 776.247 397.234 774.7 397.234C772.864 397.234 771.583 396.484 770.856 394.984H770.786C770.833 395.219 770.856 395.93 770.856 397.117V401.98H767.563V387.238C767.563 386.637 767.555 386.094 767.54 385.609C767.524 385.125 767.5 384.695 767.469 384.32H770.668C770.7 384.414 770.723 384.574 770.739 384.801C770.762 385.02 770.778 385.27 770.786 385.551C770.801 385.832 770.809 386.109 770.809 386.383H770.856C771.223 385.602 771.747 385.02 772.426 384.637C773.106 384.246 773.934 384.051 774.911 384.051C776.387 384.051 777.532 384.621 778.344 385.762C779.157 386.895 779.563 388.508 779.563 390.602ZM776.129 390.602C776.129 389.18 775.911 388.113 775.473 387.402C775.043 386.691 774.391 386.336 773.516 386.336C772.641 386.336 771.969 386.719 771.5 387.484C771.04 388.25 770.809 389.32 770.809 390.695C770.809 392.062 771.04 393.121 771.5 393.871C771.969 394.613 772.633 394.984 773.493 394.984C774.375 394.984 775.036 394.621 775.473 393.895C775.911 393.16 776.129 392.062 776.129 390.602ZM785.288 379.609V397H781.995V379.609H785.288ZM800.481 390.648C800.481 392.703 799.911 394.316 798.77 395.488C797.63 396.652 796.052 397.234 794.036 397.234C792.06 397.234 790.509 396.648 789.384 395.477C788.259 394.305 787.696 392.695 787.696 390.648C787.696 388.609 788.259 387.008 789.384 385.844C790.509 384.672 792.083 384.086 794.106 384.086C796.177 384.086 797.755 384.652 798.841 385.785C799.935 386.91 800.481 388.531 800.481 390.648ZM797.036 390.648C797.036 389.141 796.79 388.047 796.298 387.367C795.806 386.688 795.091 386.348 794.153 386.348C793.153 386.348 792.403 386.707 791.903 387.426C791.403 388.137 791.153 389.211 791.153 390.648C791.153 392.062 791.395 393.141 791.88 393.883C792.372 394.617 793.079 394.984 794.001 394.984C795.017 394.984 795.774 394.625 796.274 393.906C796.782 393.18 797.036 392.094 797.036 390.648ZM806.159 390.777V397H802.866V387.297C802.866 386.602 802.855 386.023 802.831 385.562C802.816 385.094 802.796 384.68 802.773 384.32H805.913C805.929 384.391 805.945 384.547 805.96 384.789C805.976 385.031 805.991 385.305 806.007 385.609C806.023 385.906 806.034 386.188 806.042 386.453C806.058 386.719 806.066 386.91 806.066 387.027H806.113C806.425 386.152 806.71 385.523 806.968 385.141C807.218 384.773 807.515 384.504 807.859 384.332C808.202 384.16 808.632 384.074 809.148 384.074C809.57 384.074 809.909 384.133 810.167 384.25V387.004C809.644 386.887 809.175 386.828 808.761 386.828C807.941 386.828 807.3 387.16 806.839 387.824C806.386 388.488 806.159 389.473 806.159 390.777ZM814.697 391.293C814.697 392.527 814.923 393.461 815.376 394.094C815.837 394.719 816.49 395.031 817.333 395.031C817.912 395.031 818.384 394.906 818.751 394.656C819.126 394.398 819.388 394.02 819.537 393.52L822.642 393.789C821.744 396.086 819.919 397.234 817.169 397.234C815.263 397.234 813.798 396.672 812.775 395.547C811.751 394.414 811.24 392.766 811.24 390.602C811.24 388.508 811.759 386.898 812.798 385.773C813.837 384.648 815.31 384.086 817.216 384.086C819.037 384.086 820.427 384.691 821.388 385.902C822.349 387.105 822.83 388.871 822.83 391.199V391.293H814.697ZM819.642 389.23C819.58 388.207 819.333 387.441 818.904 386.934C818.474 386.418 817.896 386.16 817.169 386.16C816.396 386.16 815.798 386.43 815.376 386.969C814.962 387.508 814.744 388.262 814.72 389.23H819.642Z" fill="white"/>
<path d="M739.992 444.68V449H738.234V437.992H746.148V439.398H739.992V443.266H745.969V444.68H739.992ZM755.312 444.766C755.312 446.208 754.969 447.302 754.281 448.047C753.594 448.786 752.615 449.156 751.344 449.156C750.078 449.156 749.109 448.776 748.438 448.016C747.771 447.25 747.438 446.167 747.438 444.766C747.438 443.339 747.773 442.253 748.445 441.508C749.117 440.763 750.099 440.391 751.391 440.391C752.708 440.391 753.69 440.753 754.336 441.477C754.987 442.201 755.312 443.297 755.312 444.766ZM753.562 444.766C753.562 443.651 753.393 442.844 753.055 442.344C752.716 441.839 752.169 441.586 751.414 441.586C750.643 441.586 750.078 441.846 749.719 442.367C749.365 442.883 749.188 443.682 749.188 444.766C749.188 445.823 749.362 446.62 749.711 447.156C750.065 447.693 750.602 447.961 751.32 447.961C752.112 447.961 752.682 447.701 753.031 447.18C753.385 446.659 753.562 445.854 753.562 444.766ZM758.75 444.68V449H757.078V442.523C757.078 442.169 757.073 441.831 757.062 441.508C757.057 441.185 757.047 440.865 757.031 440.547H758.609C758.62 440.724 758.63 440.904 758.641 441.086C758.651 441.268 758.659 441.44 758.664 441.602C758.669 441.763 758.674 441.906 758.68 442.031C758.685 442.151 758.688 442.24 758.688 442.297H758.719C758.891 441.766 759.068 441.362 759.25 441.086C759.427 440.831 759.633 440.651 759.867 440.547C760.102 440.443 760.391 440.391 760.734 440.391C760.953 440.391 761.154 440.419 761.336 440.477V441.953C761.102 441.891 760.831 441.859 760.523 441.859C759.956 441.859 759.518 442.102 759.211 442.586C758.904 443.065 758.75 443.763 758.75 444.68ZM776.867 443.391C776.867 444.557 776.641 445.56 776.188 446.398C775.734 447.237 775.104 447.88 774.297 448.328C773.495 448.776 772.565 449 771.508 449H767.281V437.992H771.031C772.896 437.992 774.333 438.461 775.344 439.398C776.359 440.331 776.867 441.661 776.867 443.391ZM775.094 443.391C775.094 442.089 774.742 441.096 774.039 440.414C773.336 439.727 772.323 439.383 771 439.383H769.039V447.609H771.328C772.094 447.609 772.758 447.438 773.32 447.094C773.883 446.75 774.318 446.263 774.625 445.633C774.938 445.003 775.094 444.255 775.094 443.391ZM786.141 444.766C786.141 446.208 785.797 447.302 785.109 448.047C784.422 448.786 783.443 449.156 782.172 449.156C780.906 449.156 779.938 448.776 779.266 448.016C778.599 447.25 778.266 446.167 778.266 444.766C778.266 443.339 778.602 442.253 779.273 441.508C779.945 440.763 780.927 440.391 782.219 440.391C783.536 440.391 784.518 440.753 785.164 441.477C785.815 442.201 786.141 443.297 786.141 444.766ZM784.391 444.766C784.391 443.651 784.221 442.844 783.883 442.344C783.544 441.839 782.997 441.586 782.242 441.586C781.471 441.586 780.906 441.846 780.547 442.367C780.193 442.883 780.016 443.682 780.016 444.766C780.016 445.823 780.19 446.62 780.539 447.156C780.893 447.693 781.43 447.961 782.148 447.961C782.94 447.961 783.51 447.701 783.859 447.18C784.214 446.659 784.391 445.854 784.391 444.766ZM791.227 449.156C790.008 449.156 789.076 448.781 788.43 448.031C787.784 447.276 787.461 446.193 787.461 444.781C787.461 443.37 787.786 442.286 788.438 441.531C789.089 440.771 790.018 440.391 791.227 440.391C792.133 440.391 792.883 440.625 793.477 441.094C794.076 441.557 794.453 442.198 794.609 443.016L792.906 443.125C792.839 442.667 792.664 442.302 792.383 442.031C792.102 441.76 791.701 441.625 791.18 441.625C790.497 441.625 789.997 441.87 789.68 442.359C789.362 442.844 789.203 443.635 789.203 444.734C789.203 445.807 789.37 446.607 789.703 447.133C790.036 447.654 790.536 447.914 791.203 447.914C791.677 447.914 792.073 447.781 792.391 447.516C792.708 447.245 792.904 446.836 792.977 446.289L794.656 446.383C794.583 446.945 794.393 447.435 794.086 447.852C793.779 448.263 793.38 448.583 792.891 448.812C792.406 449.042 791.852 449.156 791.227 449.156ZM799.688 448.914C799.208 449.06 798.688 449.133 798.125 449.133C797.536 449.133 797.089 448.969 796.781 448.641C796.479 448.307 796.328 447.81 796.328 447.148V441.727H795.32V440.547H796.398L796.906 438.625H797.992V440.547H799.562V441.727H797.992V446.742C797.992 447.154 798.062 447.448 798.203 447.625C798.344 447.797 798.578 447.883 798.906 447.883C799.073 447.883 799.333 447.846 799.688 447.773V448.914ZM808.375 444.766C808.375 446.208 808.031 447.302 807.344 448.047C806.656 448.786 805.677 449.156 804.406 449.156C803.141 449.156 802.172 448.776 801.5 448.016C800.833 447.25 800.5 446.167 800.5 444.766C800.5 443.339 800.836 442.253 801.508 441.508C802.18 440.763 803.161 440.391 804.453 440.391C805.771 440.391 806.753 440.753 807.398 441.477C808.049 442.201 808.375 443.297 808.375 444.766ZM806.625 444.766C806.625 443.651 806.456 442.844 806.117 442.344C805.779 441.839 805.232 441.586 804.477 441.586C803.706 441.586 803.141 441.846 802.781 442.367C802.427 442.883 802.25 443.682 802.25 444.766C802.25 445.823 802.424 446.62 802.773 447.156C803.128 447.693 803.664 447.961 804.383 447.961C805.174 447.961 805.745 447.701 806.094 447.18C806.448 446.659 806.625 445.854 806.625 444.766ZM811.812 444.68V449H810.141V442.523C810.141 442.169 810.135 441.831 810.125 441.508C810.12 441.185 810.109 440.865 810.094 440.547H811.672C811.682 440.724 811.693 440.904 811.703 441.086C811.714 441.268 811.721 441.44 811.727 441.602C811.732 441.763 811.737 441.906 811.742 442.031C811.747 442.151 811.75 442.24 811.75 442.297H811.781C811.953 441.766 812.13 441.362 812.312 441.086C812.49 440.831 812.695 440.651 812.93 440.547C813.164 440.443 813.453 440.391 813.797 440.391C814.016 440.391 814.216 440.419 814.398 440.477V441.953C814.164 441.891 813.893 441.859 813.586 441.859C813.018 441.859 812.581 442.102 812.273 442.586C811.966 443.065 811.812 443.763 811.812 444.68ZM822.352 446.617C822.352 447.424 822.039 448.049 821.414 448.492C820.789 448.935 819.919 449.156 818.805 449.156C817.716 449.156 816.878 448.979 816.289 448.625C815.706 448.271 815.323 447.721 815.141 446.977L816.609 446.719C816.729 447.151 816.958 447.466 817.297 447.664C817.635 447.862 818.138 447.961 818.805 447.961C819.487 447.961 819.984 447.862 820.297 447.664C820.609 447.466 820.766 447.164 820.766 446.758C820.766 446.445 820.651 446.195 820.422 446.008C820.198 445.815 819.826 445.654 819.305 445.523C818.763 445.388 818.318 445.273 817.969 445.18C817.625 445.086 817.349 445.003 817.141 444.93C816.938 444.852 816.773 444.779 816.648 444.711C816.273 444.508 815.984 444.255 815.781 443.953C815.578 443.651 815.477 443.279 815.477 442.836C815.477 442.055 815.763 441.456 816.336 441.039C816.909 440.617 817.737 440.406 818.82 440.406C819.779 440.406 820.542 440.581 821.109 440.93C821.682 441.279 822.042 441.818 822.188 442.547L820.695 442.719C820.622 442.354 820.43 442.078 820.117 441.891C819.81 441.698 819.378 441.602 818.82 441.602C818.221 441.602 817.779 441.688 817.492 441.859C817.206 442.031 817.062 442.299 817.062 442.664C817.062 442.935 817.151 443.156 817.328 443.328C817.51 443.5 817.844 443.641 818.328 443.75C818.979 443.901 819.586 444.062 820.148 444.234C820.716 444.406 821.135 444.586 821.406 444.773C821.708 444.982 821.94 445.234 822.102 445.531C822.268 445.823 822.352 446.185 822.352 446.617Z" fill="white"/>
<path d="M739.992 484.68V489H738.234V477.992H746.148V479.398H739.992V483.266H745.969V484.68H739.992ZM755.312 484.766C755.312 486.208 754.969 487.302 754.281 488.047C753.594 488.786 752.615 489.156 751.344 489.156C750.078 489.156 749.109 488.776 748.438 488.016C747.771 487.25 747.438 486.167 747.438 484.766C747.438 483.339 747.773 482.253 748.445 481.508C749.117 480.763 750.099 480.391 751.391 480.391C752.708 480.391 753.69 480.753 754.336 481.477C754.987 482.201 755.312 483.297 755.312 484.766ZM753.562 484.766C753.562 483.651 753.393 482.844 753.055 482.344C752.716 481.839 752.169 481.586 751.414 481.586C750.643 481.586 750.078 481.846 749.719 482.367C749.365 482.883 749.188 483.682 749.188 484.766C749.188 485.823 749.362 486.62 749.711 487.156C750.065 487.693 750.602 487.961 751.32 487.961C752.112 487.961 752.682 487.701 753.031 487.18C753.385 486.659 753.562 485.854 753.562 484.766ZM758.75 484.68V489H757.078V482.523C757.078 482.169 757.073 481.831 757.062 481.508C757.057 481.185 757.047 480.865 757.031 480.547H758.609C758.62 480.724 758.63 480.904 758.641 481.086C758.651 481.268 758.659 481.44 758.664 481.602C758.669 481.763 758.674 481.906 758.68 482.031C758.685 482.151 758.688 482.24 758.688 482.297H758.719C758.891 481.766 759.068 481.362 759.25 481.086C759.427 480.831 759.633 480.651 759.867 480.547C760.102 480.443 760.391 480.391 760.734 480.391C760.953 480.391 761.154 480.419 761.336 480.477V481.953C761.102 481.891 760.831 481.859 760.523 481.859C759.956 481.859 759.518 482.102 759.211 482.586C758.904 483.065 758.75 483.763 758.75 484.68ZM775.977 481.359C775.977 482.062 775.818 482.677 775.5 483.203C775.188 483.724 774.742 484.13 774.164 484.422C773.591 484.708 772.906 484.852 772.109 484.852H769.039V489H767.281V477.992H772.016C773.276 477.992 774.25 478.286 774.938 478.875C775.63 479.464 775.977 480.292 775.977 481.359ZM774.203 481.383C774.203 480.049 773.406 479.383 771.812 479.383H769.039V483.469H771.875C772.641 483.469 773.219 483.294 773.609 482.945C774.005 482.596 774.203 482.076 774.203 481.383ZM779.898 489.156C779.06 489.156 778.422 488.932 777.984 488.484C777.547 488.036 777.328 487.419 777.328 486.633C777.328 485.758 777.615 485.089 778.188 484.625C778.76 484.161 779.656 483.914 780.875 483.883L782.742 483.852V483.406C782.742 482.76 782.612 482.294 782.352 482.008C782.096 481.721 781.688 481.578 781.125 481.578C780.568 481.578 780.161 481.68 779.906 481.883C779.656 482.086 779.503 482.417 779.445 482.875L777.703 482.75C777.958 481.177 779.117 480.391 781.18 480.391C782.242 480.391 783.047 480.641 783.594 481.141C784.146 481.641 784.422 482.359 784.422 483.297V486.75C784.422 487.188 784.477 487.508 784.586 487.711C784.695 487.909 784.893 488.008 785.18 488.008C785.336 488.008 785.492 487.99 785.648 487.953V488.93C785.44 488.982 785.242 489.021 785.055 489.047C784.872 489.073 784.674 489.086 784.461 489.086C783.93 489.086 783.539 488.951 783.289 488.68C783.044 488.404 782.904 487.984 782.867 487.422H782.82C782.477 488.036 782.068 488.479 781.594 488.75C781.125 489.021 780.56 489.156 779.898 489.156ZM782.742 484.914L781.344 484.938C780.734 484.953 780.281 485.018 779.984 485.133C779.682 485.247 779.451 485.422 779.289 485.656C779.133 485.891 779.055 486.201 779.055 486.586C779.055 487.029 779.167 487.367 779.391 487.602C779.62 487.831 779.938 487.945 780.344 487.945C780.807 487.945 781.219 487.836 781.578 487.617C781.938 487.398 782.221 487.099 782.43 486.719C782.638 486.333 782.742 485.935 782.742 485.523V484.914ZM788.406 484.68V489H786.734V482.523C786.734 482.169 786.729 481.831 786.719 481.508C786.714 481.185 786.703 480.865 786.688 480.547H788.266C788.276 480.724 788.286 480.904 788.297 481.086C788.307 481.268 788.315 481.44 788.32 481.602C788.326 481.763 788.331 481.906 788.336 482.031C788.341 482.151 788.344 482.24 788.344 482.297H788.375C788.547 481.766 788.724 481.362 788.906 481.086C789.083 480.831 789.289 480.651 789.523 480.547C789.758 480.443 790.047 480.391 790.391 480.391C790.609 480.391 790.81 480.419 790.992 480.477V481.953C790.758 481.891 790.487 481.859 790.18 481.859C789.612 481.859 789.174 482.102 788.867 482.586C788.56 483.065 788.406 483.763 788.406 484.68ZM795.844 488.914C795.365 489.06 794.844 489.133 794.281 489.133C793.693 489.133 793.245 488.969 792.938 488.641C792.635 488.307 792.484 487.81 792.484 487.148V481.727H791.477V480.547H792.555L793.062 478.625H794.148V480.547H795.719V481.727H794.148V486.742C794.148 487.154 794.219 487.448 794.359 487.625C794.5 487.797 794.734 487.883 795.062 487.883C795.229 487.883 795.49 487.846 795.844 487.773V488.914ZM798.781 484.227V489H797.109V482.383C797.109 481.898 797.104 481.51 797.094 481.219C797.089 480.922 797.078 480.698 797.062 480.547H798.641C798.651 480.635 798.661 480.768 798.672 480.945C798.682 481.122 798.69 481.312 798.695 481.516C798.706 481.719 798.714 481.904 798.719 482.07H798.742C799.06 481.466 799.435 481.036 799.867 480.781C800.299 480.521 800.828 480.391 801.453 480.391C802.37 480.391 803.049 480.641 803.492 481.141C803.94 481.641 804.164 482.411 804.164 483.453V489H802.492V483.844C802.492 483.057 802.365 482.497 802.109 482.164C801.854 481.831 801.427 481.664 800.828 481.664C800.203 481.664 799.706 481.896 799.336 482.359C798.966 482.818 798.781 483.44 798.781 484.227ZM807.602 485.109C807.602 486.031 807.786 486.737 808.156 487.227C808.526 487.716 809.06 487.961 809.758 487.961C810.294 487.961 810.727 487.852 811.055 487.633C811.383 487.414 811.607 487.125 811.727 486.766L813.234 487.055C812.698 488.456 811.529 489.156 809.727 489.156C808.466 489.156 807.505 488.784 806.844 488.039C806.182 487.289 805.852 486.185 805.852 484.727C805.852 483.331 806.185 482.26 806.852 481.516C807.518 480.766 808.466 480.391 809.695 480.391C810.93 480.391 811.859 480.776 812.484 481.547C813.115 482.312 813.43 483.453 813.43 484.969V485.109H807.602ZM811.75 483.938C811.688 483.115 811.482 482.51 811.133 482.125C810.789 481.74 810.302 481.547 809.672 481.547C809.047 481.547 808.555 481.758 808.195 482.18C807.836 482.602 807.643 483.188 807.617 483.938H811.75ZM816.875 484.68V489H815.203V482.523C815.203 482.169 815.198 481.831 815.188 481.508C815.182 481.185 815.172 480.865 815.156 480.547H816.734C816.745 480.724 816.755 480.904 816.766 481.086C816.776 481.268 816.784 481.44 816.789 481.602C816.794 481.763 816.799 481.906 816.805 482.031C816.81 482.151 816.812 482.24 816.812 482.297H816.844C817.016 481.766 817.193 481.362 817.375 481.086C817.552 480.831 817.758 480.651 817.992 480.547C818.227 480.443 818.516 480.391 818.859 480.391C819.078 480.391 819.279 480.419 819.461 480.477V481.953C819.227 481.891 818.956 481.859 818.648 481.859C818.081 481.859 817.643 482.102 817.336 482.586C817.029 483.065 816.875 483.763 816.875 484.68ZM827.414 486.617C827.414 487.424 827.102 488.049 826.477 488.492C825.852 488.935 824.982 489.156 823.867 489.156C822.779 489.156 821.94 488.979 821.352 488.625C820.768 488.271 820.385 487.721 820.203 486.977L821.672 486.719C821.792 487.151 822.021 487.466 822.359 487.664C822.698 487.862 823.201 487.961 823.867 487.961C824.549 487.961 825.047 487.862 825.359 487.664C825.672 487.466 825.828 487.164 825.828 486.758C825.828 486.445 825.714 486.195 825.484 486.008C825.26 485.815 824.888 485.654 824.367 485.523C823.826 485.388 823.38 485.273 823.031 485.18C822.688 485.086 822.411 485.003 822.203 484.93C822 484.852 821.836 484.779 821.711 484.711C821.336 484.508 821.047 484.255 820.844 483.953C820.641 483.651 820.539 483.279 820.539 482.836C820.539 482.055 820.826 481.456 821.398 481.039C821.971 480.617 822.799 480.406 823.883 480.406C824.841 480.406 825.604 480.581 826.172 480.93C826.745 481.279 827.104 481.818 827.25 482.547L825.758 482.719C825.685 482.354 825.492 482.078 825.18 481.891C824.872 481.698 824.44 481.602 823.883 481.602C823.284 481.602 822.841 481.688 822.555 481.859C822.268 482.031 822.125 482.299 822.125 482.664C822.125 482.935 822.214 483.156 822.391 483.328C822.573 483.5 822.906 483.641 823.391 483.75C824.042 483.901 824.648 484.062 825.211 484.234C825.779 484.406 826.198 484.586 826.469 484.773C826.771 484.982 827.003 485.234 827.164 485.531C827.331 485.823 827.414 486.185 827.414 486.617Z" fill="white"/>
<path d="M743.234 527.734C744.729 527.734 745.826 526.992 746.523 525.508L748 526.172C747.557 527.156 746.922 527.901 746.094 528.406C745.271 528.906 744.302 529.156 743.188 529.156C742.052 529.156 741.078 528.927 740.266 528.469C739.458 528.01 738.839 527.354 738.406 526.5C737.974 525.641 737.758 524.622 737.758 523.445C737.758 522.263 737.969 521.253 738.391 520.414C738.818 519.576 739.432 518.935 740.234 518.492C741.042 518.049 742.013 517.828 743.148 517.828C744.362 517.828 745.365 518.068 746.156 518.547C746.953 519.026 747.531 519.732 747.891 520.664L746.266 521.164C746.042 520.555 745.656 520.083 745.109 519.75C744.568 519.411 743.924 519.242 743.18 519.242C742.018 519.242 741.122 519.612 740.492 520.352C739.862 521.091 739.547 522.122 739.547 523.445C739.547 524.326 739.693 525.086 739.984 525.727C740.281 526.367 740.706 526.862 741.258 527.211C741.81 527.56 742.469 527.734 743.234 527.734ZM751.344 524.68V529H749.672V522.523C749.672 522.169 749.667 521.831 749.656 521.508C749.651 521.185 749.641 520.865 749.625 520.547H751.203C751.214 520.724 751.224 520.904 751.234 521.086C751.245 521.268 751.253 521.44 751.258 521.602C751.263 521.763 751.268 521.906 751.273 522.031C751.279 522.151 751.281 522.24 751.281 522.297H751.312C751.484 521.766 751.661 521.362 751.844 521.086C752.021 520.831 752.227 520.651 752.461 520.547C752.695 520.443 752.984 520.391 753.328 520.391C753.547 520.391 753.747 520.419 753.93 520.477V521.953C753.695 521.891 753.424 521.859 753.117 521.859C752.549 521.859 752.112 522.102 751.805 522.586C751.497 523.065 751.344 523.763 751.344 524.68ZM756.602 525.109C756.602 526.031 756.786 526.737 757.156 527.227C757.526 527.716 758.06 527.961 758.758 527.961C759.294 527.961 759.727 527.852 760.055 527.633C760.383 527.414 760.607 527.125 760.727 526.766L762.234 527.055C761.698 528.456 760.529 529.156 758.727 529.156C757.466 529.156 756.505 528.784 755.844 528.039C755.182 527.289 754.852 526.185 754.852 524.727C754.852 523.331 755.185 522.26 755.852 521.516C756.518 520.766 757.466 520.391 758.695 520.391C759.93 520.391 760.859 520.776 761.484 521.547C762.115 522.312 762.43 523.453 762.43 524.969V525.109H756.602ZM760.75 523.938C760.688 523.115 760.482 522.51 760.133 522.125C759.789 521.74 759.302 521.547 758.672 521.547C758.047 521.547 757.555 521.758 757.195 522.18C756.836 522.602 756.643 523.188 756.617 523.938H760.75ZM766.273 529.156C765.435 529.156 764.797 528.932 764.359 528.484C763.922 528.036 763.703 527.419 763.703 526.633C763.703 525.758 763.99 525.089 764.562 524.625C765.135 524.161 766.031 523.914 767.25 523.883L769.117 523.852V523.406C769.117 522.76 768.987 522.294 768.727 522.008C768.471 521.721 768.062 521.578 767.5 521.578C766.943 521.578 766.536 521.68 766.281 521.883C766.031 522.086 765.878 522.417 765.82 522.875L764.078 522.75C764.333 521.177 765.492 520.391 767.555 520.391C768.617 520.391 769.422 520.641 769.969 521.141C770.521 521.641 770.797 522.359 770.797 523.297V526.75C770.797 527.188 770.852 527.508 770.961 527.711C771.07 527.909 771.268 528.008 771.555 528.008C771.711 528.008 771.867 527.99 772.023 527.953V528.93C771.815 528.982 771.617 529.021 771.43 529.047C771.247 529.073 771.049 529.086 770.836 529.086C770.305 529.086 769.914 528.951 769.664 528.68C769.419 528.404 769.279 527.984 769.242 527.422H769.195C768.852 528.036 768.443 528.479 767.969 528.75C767.5 529.021 766.935 529.156 766.273 529.156ZM769.117 524.914L767.719 524.938C767.109 524.953 766.656 525.018 766.359 525.133C766.057 525.247 765.826 525.422 765.664 525.656C765.508 525.891 765.43 526.201 765.43 526.586C765.43 527.029 765.542 527.367 765.766 527.602C765.995 527.831 766.312 527.945 766.719 527.945C767.182 527.945 767.594 527.836 767.953 527.617C768.312 527.398 768.596 527.099 768.805 526.719C769.013 526.333 769.117 525.935 769.117 525.523V524.914ZM776.594 528.914C776.115 529.06 775.594 529.133 775.031 529.133C774.443 529.133 773.995 528.969 773.688 528.641C773.385 528.307 773.234 527.81 773.234 527.148V521.727H772.227V520.547H773.305L773.812 518.625H774.898V520.547H776.469V521.727H774.898V526.742C774.898 527.154 774.969 527.448 775.109 527.625C775.25 527.797 775.484 527.883 775.812 527.883C775.979 527.883 776.24 527.846 776.594 527.773V528.914ZM779.164 525.109C779.164 526.031 779.349 526.737 779.719 527.227C780.089 527.716 780.622 527.961 781.32 527.961C781.857 527.961 782.289 527.852 782.617 527.633C782.945 527.414 783.169 527.125 783.289 526.766L784.797 527.055C784.26 528.456 783.091 529.156 781.289 529.156C780.029 529.156 779.068 528.784 778.406 528.039C777.745 527.289 777.414 526.185 777.414 524.727C777.414 523.331 777.747 522.26 778.414 521.516C779.081 520.766 780.029 520.391 781.258 520.391C782.492 520.391 783.422 520.776 784.047 521.547C784.677 522.312 784.992 523.453 784.992 524.969V525.109H779.164ZM783.312 523.938C783.25 523.115 783.044 522.51 782.695 522.125C782.352 521.74 781.865 521.547 781.234 521.547C780.609 521.547 780.117 521.758 779.758 522.18C779.398 522.602 779.206 523.188 779.18 523.938H783.312ZM792.438 525.914L791.266 529H789.469L793.797 517.992H795.836L800.117 529H798.344L797.18 525.914H792.438ZM794.805 519.305C794.727 519.57 794.63 519.872 794.516 520.211C794.406 520.544 794.31 520.82 794.227 521.039L792.906 524.562H796.711L795.367 520.984C795.294 520.792 795.208 520.549 795.109 520.258C795.01 519.961 794.909 519.643 794.805 519.305ZM810.445 525.883C810.445 526.872 810.081 527.641 809.352 528.188C808.628 528.729 807.62 529 806.328 529H801.516V517.992H805.859C807.167 517.992 808.151 518.219 808.812 518.672C809.474 519.125 809.805 519.799 809.805 520.695C809.805 521.336 809.625 521.878 809.266 522.32C808.906 522.758 808.388 523.052 807.711 523.203C808.591 523.307 809.266 523.596 809.734 524.07C810.208 524.539 810.445 525.143 810.445 525.883ZM808.031 520.922C808.031 520.359 807.844 519.958 807.469 519.719C807.094 519.479 806.544 519.359 805.82 519.359H803.273V522.594H805.828C806.578 522.594 807.133 522.456 807.492 522.18C807.852 521.904 808.031 521.484 808.031 520.922ZM808.664 525.75C808.664 524.542 807.81 523.938 806.102 523.938H803.273V527.633H806.211C807.065 527.633 807.688 527.477 808.078 527.164C808.469 526.846 808.664 526.375 808.664 525.75ZM814.242 524.023V529H812.484V517.992H814.242V522.555H819.812V517.992H821.578V529H819.812V524.023H814.242ZM825.938 525.914L824.766 529H822.969L827.297 517.992H829.336L833.617 529H831.844L830.68 525.914H825.938ZM828.305 519.305C828.227 519.57 828.13 519.872 828.016 520.211C827.906 520.544 827.81 520.82 827.727 521.039L826.406 524.562H830.211L828.867 520.984C828.794 520.792 828.708 520.549 828.609 520.258C828.51 519.961 828.409 519.643 828.305 519.305Z" fill="white"/>
<path d="M740.125 565.914L738.953 569H737.156L741.484 557.992H743.523L747.805 569H746.031L744.867 565.914H740.125ZM742.492 559.305C742.414 559.57 742.318 559.872 742.203 560.211C742.094 560.544 741.997 560.82 741.914 561.039L740.594 564.562H744.398L743.055 560.984C742.982 560.792 742.896 560.549 742.797 560.258C742.698 559.961 742.596 559.643 742.492 559.305ZM756.492 564.734C756.492 566.182 756.227 567.281 755.695 568.031C755.164 568.781 754.378 569.156 753.336 569.156C752.711 569.156 752.182 569.036 751.75 568.797C751.323 568.552 750.982 568.177 750.727 567.672H750.711C750.711 567.781 750.706 567.935 750.695 568.133C750.685 568.326 750.674 568.508 750.664 568.68C750.654 568.846 750.641 568.953 750.625 569H749.008C749.023 568.823 749.036 568.586 749.047 568.289C749.057 567.987 749.062 567.622 749.062 567.195V557.406H750.727V560.688C750.727 560.875 750.724 561.076 750.719 561.289C750.714 561.497 750.706 561.716 750.695 561.945H750.727C750.982 561.404 751.328 561.01 751.766 560.766C752.203 560.516 752.742 560.391 753.383 560.391C754.43 560.391 755.208 560.758 755.719 561.492C756.234 562.221 756.492 563.302 756.492 564.734ZM754.742 564.766C754.742 563.661 754.591 562.862 754.289 562.367C753.987 561.872 753.505 561.625 752.844 561.625C752.115 561.625 751.578 561.888 751.234 562.414C750.891 562.94 750.719 563.753 750.719 564.852C750.719 565.888 750.888 566.667 751.227 567.188C751.565 567.703 752.099 567.961 752.828 567.961C753.495 567.961 753.979 567.706 754.281 567.195C754.589 566.685 754.742 565.875 754.742 564.766ZM765.688 564.766C765.688 566.208 765.344 567.302 764.656 568.047C763.969 568.786 762.99 569.156 761.719 569.156C760.453 569.156 759.484 568.776 758.812 568.016C758.146 567.25 757.812 566.167 757.812 564.766C757.812 563.339 758.148 562.253 758.82 561.508C759.492 560.763 760.474 560.391 761.766 560.391C763.083 560.391 764.065 560.753 764.711 561.477C765.362 562.201 765.688 563.297 765.688 564.766ZM763.938 564.766C763.938 563.651 763.768 562.844 763.43 562.344C763.091 561.839 762.544 561.586 761.789 561.586C761.018 561.586 760.453 561.846 760.094 562.367C759.74 562.883 759.562 563.682 759.562 564.766C759.562 565.823 759.737 566.62 760.086 567.156C760.44 567.693 760.977 567.961 761.695 567.961C762.487 567.961 763.057 567.701 763.406 567.18C763.76 566.659 763.938 565.854 763.938 564.766ZM772.789 567.477C772.477 568.081 772.104 568.513 771.672 568.773C771.24 569.029 770.708 569.156 770.078 569.156C769.161 569.156 768.479 568.911 768.031 568.422C767.589 567.932 767.367 567.156 767.367 566.094V560.547H769.039V565.703C769.039 566.51 769.169 567.076 769.43 567.398C769.69 567.721 770.115 567.883 770.703 567.883C771.333 567.883 771.831 567.654 772.195 567.195C772.565 566.732 772.75 566.107 772.75 565.32V560.547H774.422V567.164C774.422 567.612 774.424 567.99 774.43 568.297C774.44 568.604 774.456 568.839 774.477 569H772.891C772.875 568.859 772.859 568.669 772.844 568.43C772.833 568.19 772.826 567.872 772.82 567.477H772.789ZM780.125 568.914C779.646 569.06 779.125 569.133 778.562 569.133C777.974 569.133 777.526 568.969 777.219 568.641C776.917 568.307 776.766 567.81 776.766 567.148V561.727H775.758V560.547H776.836L777.344 558.625H778.43V560.547H780V561.727H778.43V566.742C778.43 567.154 778.5 567.448 778.641 567.625C778.781 567.797 779.016 567.883 779.344 567.883C779.51 567.883 779.771 567.846 780.125 567.773V568.914ZM790.422 569.156C789.484 569.156 788.674 568.99 787.992 568.656C787.315 568.323 786.792 567.844 786.422 567.219C786.057 566.594 785.875 565.841 785.875 564.961V557.992H787.641V564.812C787.641 565.776 787.88 566.508 788.359 567.008C788.839 567.503 789.531 567.75 790.438 567.75C791.375 567.75 792.099 567.492 792.609 566.977C793.125 566.456 793.383 565.703 793.383 564.719V557.992H795.141V564.828C795.141 565.729 794.951 566.503 794.57 567.148C794.19 567.794 793.646 568.292 792.938 568.641C792.234 568.984 791.396 569.156 790.422 569.156ZM803.992 566.617C803.992 567.424 803.68 568.049 803.055 568.492C802.43 568.935 801.56 569.156 800.445 569.156C799.357 569.156 798.518 568.979 797.93 568.625C797.346 568.271 796.964 567.721 796.781 566.977L798.25 566.719C798.37 567.151 798.599 567.466 798.938 567.664C799.276 567.862 799.779 567.961 800.445 567.961C801.128 567.961 801.625 567.862 801.938 567.664C802.25 567.466 802.406 567.164 802.406 566.758C802.406 566.445 802.292 566.195 802.062 566.008C801.839 565.815 801.466 565.654 800.945 565.523C800.404 565.388 799.958 565.273 799.609 565.18C799.266 565.086 798.99 565.003 798.781 564.93C798.578 564.852 798.414 564.779 798.289 564.711C797.914 564.508 797.625 564.255 797.422 563.953C797.219 563.651 797.117 563.279 797.117 562.836C797.117 562.055 797.404 561.456 797.977 561.039C798.549 560.617 799.378 560.406 800.461 560.406C801.419 560.406 802.182 560.581 802.75 560.93C803.323 561.279 803.682 561.818 803.828 562.547L802.336 562.719C802.263 562.354 802.07 562.078 801.758 561.891C801.451 561.698 801.018 561.602 800.461 561.602C799.862 561.602 799.419 561.688 799.133 561.859C798.846 562.031 798.703 562.299 798.703 562.664C798.703 562.935 798.792 563.156 798.969 563.328C799.151 563.5 799.484 563.641 799.969 563.75C800.62 563.901 801.227 564.062 801.789 564.234C802.357 564.406 802.776 564.586 803.047 564.773C803.349 564.982 803.581 565.234 803.742 565.531C803.909 565.823 803.992 566.185 803.992 566.617Z" fill="white"/>
<path d="M743.234 607.734C744.729 607.734 745.826 606.992 746.523 605.508L748 606.172C747.557 607.156 746.922 607.901 746.094 608.406C745.271 608.906 744.302 609.156 743.188 609.156C742.052 609.156 741.078 608.927 740.266 608.469C739.458 608.01 738.839 607.354 738.406 606.5C737.974 605.641 737.758 604.622 737.758 603.445C737.758 602.263 737.969 601.253 738.391 600.414C738.818 599.576 739.432 598.935 740.234 598.492C741.042 598.049 742.013 597.828 743.148 597.828C744.362 597.828 745.365 598.068 746.156 598.547C746.953 599.026 747.531 599.732 747.891 600.664L746.266 601.164C746.042 600.555 745.656 600.083 745.109 599.75C744.568 599.411 743.924 599.242 743.18 599.242C742.018 599.242 741.122 599.612 740.492 600.352C739.862 601.091 739.547 602.122 739.547 603.445C739.547 604.326 739.693 605.086 739.984 605.727C740.281 606.367 740.706 606.862 741.258 607.211C741.81 607.56 742.469 607.734 743.234 607.734ZM757.094 604.766C757.094 606.208 756.75 607.302 756.062 608.047C755.375 608.786 754.396 609.156 753.125 609.156C751.859 609.156 750.891 608.776 750.219 608.016C749.552 607.25 749.219 606.167 749.219 604.766C749.219 603.339 749.555 602.253 750.227 601.508C750.898 600.763 751.88 600.391 753.172 600.391C754.49 600.391 755.471 600.753 756.117 601.477C756.768 602.201 757.094 603.297 757.094 604.766ZM755.344 604.766C755.344 603.651 755.174 602.844 754.836 602.344C754.497 601.839 753.951 601.586 753.195 601.586C752.424 601.586 751.859 601.846 751.5 602.367C751.146 602.883 750.969 603.682 750.969 604.766C750.969 605.823 751.143 606.62 751.492 607.156C751.846 607.693 752.383 607.961 753.102 607.961C753.893 607.961 754.464 607.701 754.812 607.18C755.167 606.659 755.344 605.854 755.344 604.766ZM760.531 604.227V609H758.859V602.383C758.859 601.898 758.854 601.51 758.844 601.219C758.839 600.922 758.828 600.698 758.812 600.547H760.391C760.401 600.635 760.411 600.768 760.422 600.945C760.432 601.122 760.44 601.312 760.445 601.516C760.456 601.719 760.464 601.904 760.469 602.07H760.492C760.81 601.466 761.185 601.036 761.617 600.781C762.049 600.521 762.578 600.391 763.203 600.391C764.12 600.391 764.799 600.641 765.242 601.141C765.69 601.641 765.914 602.411 765.914 603.453V609H764.242V603.844C764.242 603.057 764.115 602.497 763.859 602.164C763.604 601.831 763.177 601.664 762.578 601.664C761.953 601.664 761.456 601.896 761.086 602.359C760.716 602.818 760.531 603.44 760.531 604.227ZM771.531 608.914C771.052 609.06 770.531 609.133 769.969 609.133C769.38 609.133 768.932 608.969 768.625 608.641C768.323 608.307 768.172 607.81 768.172 607.148V601.727H767.164V600.547H768.242L768.75 598.625H769.836V600.547H771.406V601.727H769.836V606.742C769.836 607.154 769.906 607.448 770.047 607.625C770.188 607.797 770.422 607.883 770.75 607.883C770.917 607.883 771.177 607.846 771.531 607.773V608.914ZM774.867 609.156C774.029 609.156 773.391 608.932 772.953 608.484C772.516 608.036 772.297 607.419 772.297 606.633C772.297 605.758 772.583 605.089 773.156 604.625C773.729 604.161 774.625 603.914 775.844 603.883L777.711 603.852V603.406C777.711 602.76 777.581 602.294 777.32 602.008C777.065 601.721 776.656 601.578 776.094 601.578C775.536 601.578 775.13 601.68 774.875 601.883C774.625 602.086 774.471 602.417 774.414 602.875L772.672 602.75C772.927 601.177 774.086 600.391 776.148 600.391C777.211 600.391 778.016 600.641 778.562 601.141C779.115 601.641 779.391 602.359 779.391 603.297V606.75C779.391 607.188 779.445 607.508 779.555 607.711C779.664 607.909 779.862 608.008 780.148 608.008C780.305 608.008 780.461 607.99 780.617 607.953V608.93C780.409 608.982 780.211 609.021 780.023 609.047C779.841 609.073 779.643 609.086 779.43 609.086C778.898 609.086 778.508 608.951 778.258 608.68C778.013 608.404 777.872 607.984 777.836 607.422H777.789C777.445 608.036 777.036 608.479 776.562 608.75C776.094 609.021 775.529 609.156 774.867 609.156ZM777.711 604.914L776.312 604.938C775.703 604.953 775.25 605.018 774.953 605.133C774.651 605.247 774.419 605.422 774.258 605.656C774.102 605.891 774.023 606.201 774.023 606.586C774.023 607.029 774.135 607.367 774.359 607.602C774.589 607.831 774.906 607.945 775.312 607.945C775.776 607.945 776.188 607.836 776.547 607.617C776.906 607.398 777.19 607.099 777.398 606.719C777.607 606.333 777.711 605.935 777.711 605.523V604.914ZM785.023 609.156C783.805 609.156 782.872 608.781 782.227 608.031C781.581 607.276 781.258 606.193 781.258 604.781C781.258 603.37 781.583 602.286 782.234 601.531C782.885 600.771 783.815 600.391 785.023 600.391C785.93 600.391 786.68 600.625 787.273 601.094C787.872 601.557 788.25 602.198 788.406 603.016L786.703 603.125C786.635 602.667 786.461 602.302 786.18 602.031C785.898 601.76 785.497 601.625 784.977 601.625C784.294 601.625 783.794 601.87 783.477 602.359C783.159 602.844 783 603.635 783 604.734C783 605.807 783.167 606.607 783.5 607.133C783.833 607.654 784.333 607.914 785 607.914C785.474 607.914 785.87 607.781 786.188 607.516C786.505 607.245 786.701 606.836 786.773 606.289L788.453 606.383C788.38 606.945 788.19 607.435 787.883 607.852C787.576 608.263 787.177 608.583 786.688 608.812C786.203 609.042 785.648 609.156 785.023 609.156ZM793.484 608.914C793.005 609.06 792.484 609.133 791.922 609.133C791.333 609.133 790.885 608.969 790.578 608.641C790.276 608.307 790.125 607.81 790.125 607.148V601.727H789.117V600.547H790.195L790.703 598.625H791.789V600.547H793.359V601.727H791.789V606.742C791.789 607.154 791.859 607.448 792 607.625C792.141 607.797 792.375 607.883 792.703 607.883C792.87 607.883 793.13 607.846 793.484 607.773V608.914ZM804.539 607.477C804.227 608.081 803.854 608.513 803.422 608.773C802.99 609.029 802.458 609.156 801.828 609.156C800.911 609.156 800.229 608.911 799.781 608.422C799.339 607.932 799.117 607.156 799.117 606.094V600.547H800.789V605.703C800.789 606.51 800.919 607.076 801.18 607.398C801.44 607.721 801.865 607.883 802.453 607.883C803.083 607.883 803.581 607.654 803.945 607.195C804.315 606.732 804.5 606.107 804.5 605.32V600.547H806.172V607.164C806.172 607.612 806.174 607.99 806.18 608.297C806.19 608.604 806.206 608.839 806.227 609H804.641C804.625 608.859 804.609 608.669 804.594 608.43C804.583 608.19 804.576 607.872 804.57 607.477H804.539ZM814.977 606.617C814.977 607.424 814.664 608.049 814.039 608.492C813.414 608.935 812.544 609.156 811.43 609.156C810.341 609.156 809.503 608.979 808.914 608.625C808.331 608.271 807.948 607.721 807.766 606.977L809.234 606.719C809.354 607.151 809.583 607.466 809.922 607.664C810.26 607.862 810.763 607.961 811.43 607.961C812.112 607.961 812.609 607.862 812.922 607.664C813.234 607.466 813.391 607.164 813.391 606.758C813.391 606.445 813.276 606.195 813.047 606.008C812.823 605.815 812.451 605.654 811.93 605.523C811.388 605.388 810.943 605.273 810.594 605.18C810.25 605.086 809.974 605.003 809.766 604.93C809.562 604.852 809.398 604.779 809.273 604.711C808.898 604.508 808.609 604.255 808.406 603.953C808.203 603.651 808.102 603.279 808.102 602.836C808.102 602.055 808.388 601.456 808.961 601.039C809.534 600.617 810.362 600.406 811.445 600.406C812.404 600.406 813.167 600.581 813.734 600.93C814.307 601.279 814.667 601.818 814.812 602.547L813.32 602.719C813.247 602.354 813.055 602.078 812.742 601.891C812.435 601.698 812.003 601.602 811.445 601.602C810.846 601.602 810.404 601.688 810.117 601.859C809.831 602.031 809.688 602.299 809.688 602.664C809.688 602.935 809.776 603.156 809.953 603.328C810.135 603.5 810.469 603.641 810.953 603.75C811.604 603.901 812.211 604.062 812.773 604.234C813.341 604.406 813.76 604.586 814.031 604.773C814.333 604.982 814.565 605.234 814.727 605.531C814.893 605.823 814.977 606.185 814.977 606.617Z" fill="white"/>
<path d="M946.922 394.328V397H934.605V380.488H938.062V394.328H946.922ZM951.826 391.293C951.826 392.527 952.053 393.461 952.506 394.094C952.967 394.719 953.619 395.031 954.463 395.031C955.041 395.031 955.514 394.906 955.881 394.656C956.256 394.398 956.518 394.02 956.666 393.52L959.772 393.789C958.873 396.086 957.049 397.234 954.299 397.234C952.393 397.234 950.928 396.672 949.905 395.547C948.881 394.414 948.369 392.766 948.369 390.602C948.369 388.508 948.889 386.898 949.928 385.773C950.967 384.648 952.44 384.086 954.346 384.086C956.166 384.086 957.557 384.691 958.518 385.902C959.479 387.105 959.959 388.871 959.959 391.199V391.293H951.826ZM956.772 389.23C956.709 388.207 956.463 387.441 956.033 386.934C955.604 386.418 955.026 386.16 954.299 386.16C953.526 386.16 952.928 386.43 952.506 386.969C952.092 387.508 951.873 388.262 951.85 389.23H956.772ZM967.536 402.086C965.989 402.086 964.743 401.789 963.797 401.195C962.86 400.609 962.282 399.77 962.063 398.676L965.356 398.289C965.473 398.797 965.723 399.195 966.106 399.484C966.497 399.773 967.004 399.918 967.629 399.918C968.543 399.918 969.211 399.637 969.633 399.074C970.055 398.512 970.266 397.676 970.266 396.566L970.29 394.645H970.266C969.907 395.426 969.387 396.012 968.708 396.402C968.028 396.785 967.188 396.977 966.188 396.977C964.711 396.977 963.567 396.422 962.754 395.312C961.942 394.203 961.536 392.617 961.536 390.555C961.536 388.484 961.954 386.887 962.79 385.762C963.625 384.637 964.84 384.074 966.434 384.074C967.356 384.074 968.133 384.266 968.766 384.648C969.407 385.023 969.907 385.594 970.266 386.359H970.325C970.325 386.172 970.333 385.938 970.348 385.656C970.364 385.375 970.383 385.105 970.407 384.848C970.438 384.59 970.465 384.414 970.489 384.32H973.606C973.559 385.164 973.536 386.141 973.536 387.25V396.613C973.536 398.418 973.024 399.781 972 400.703C970.977 401.625 969.489 402.086 967.536 402.086ZM970.29 390.484C970.29 389.18 970.055 388.164 969.586 387.438C969.125 386.703 968.465 386.336 967.606 386.336C966.731 386.336 966.071 386.688 965.625 387.391C965.188 388.094 964.969 389.148 964.969 390.555C964.969 391.93 965.184 392.965 965.614 393.66C966.051 394.348 966.708 394.691 967.583 394.691C968.458 394.691 969.125 394.328 969.586 393.602C970.055 392.867 970.29 391.828 970.29 390.484ZM979.589 397.234C978.362 397.234 977.405 396.902 976.717 396.238C976.03 395.566 975.686 394.625 975.686 393.414C975.686 392.102 976.112 391.105 976.964 390.426C977.823 389.746 979.065 389.391 980.69 389.359L983.421 389.312V388.668C983.421 387.84 983.276 387.227 982.987 386.828C982.698 386.422 982.225 386.219 981.569 386.219C980.96 386.219 980.51 386.359 980.221 386.641C979.94 386.914 979.764 387.371 979.694 388.012L976.26 387.848C976.69 385.34 978.507 384.086 981.71 384.086C983.311 384.086 984.546 384.48 985.413 385.27C986.28 386.059 986.714 387.18 986.714 388.633V393.25C986.714 393.961 986.792 394.453 986.948 394.727C987.112 394.992 987.382 395.125 987.757 395.125C988.007 395.125 988.249 395.102 988.483 395.055V396.836C988.077 396.938 987.729 397.012 987.44 397.059C987.151 397.113 986.796 397.141 986.374 397.141C985.546 397.141 984.932 396.938 984.534 396.531C984.143 396.125 983.909 395.527 983.831 394.738H983.76C983.3 395.566 982.721 396.191 982.026 396.613C981.331 397.027 980.518 397.234 979.589 397.234ZM983.421 391.129L981.733 391.152C980.96 391.191 980.417 391.273 980.104 391.398C979.784 391.539 979.538 391.75 979.366 392.031C979.202 392.312 979.12 392.688 979.12 393.156C979.12 393.758 979.257 394.207 979.53 394.504C979.811 394.793 980.182 394.938 980.643 394.938C981.159 394.938 981.632 394.797 982.061 394.516C982.483 394.234 982.815 393.848 983.057 393.355C983.3 392.855 983.421 392.328 983.421 391.773V391.129ZM993.071 379.609V397H989.778V379.609H993.071Z" fill="white"/>
<path d="M942.93 441.359C942.93 442.062 942.771 442.677 942.453 443.203C942.141 443.724 941.695 444.13 941.117 444.422C940.544 444.708 939.859 444.852 939.062 444.852H935.992V449H934.234V437.992H938.969C940.229 437.992 941.203 438.286 941.891 438.875C942.583 439.464 942.93 440.292 942.93 441.359ZM941.156 441.383C941.156 440.049 940.359 439.383 938.766 439.383H935.992V443.469H938.828C939.594 443.469 940.172 443.294 940.562 442.945C940.958 442.596 941.156 442.076 941.156 441.383ZM946.453 444.68V449H944.781V442.523C944.781 442.169 944.776 441.831 944.766 441.508C944.76 441.185 944.75 440.865 944.734 440.547H946.312C946.323 440.724 946.333 440.904 946.344 441.086C946.354 441.268 946.362 441.44 946.367 441.602C946.372 441.763 946.378 441.906 946.383 442.031C946.388 442.151 946.391 442.24 946.391 442.297H946.422C946.594 441.766 946.771 441.362 946.953 441.086C947.13 440.831 947.336 440.651 947.57 440.547C947.805 440.443 948.094 440.391 948.438 440.391C948.656 440.391 948.857 440.419 949.039 440.477V441.953C948.805 441.891 948.534 441.859 948.227 441.859C947.659 441.859 947.221 442.102 946.914 442.586C946.607 443.065 946.453 443.763 946.453 444.68ZM952.055 437.406V438.844H950.383V437.406H952.055ZM952.055 440.547V449H950.383V440.547H952.055ZM961.398 440.547L958.25 449H956.266L953.211 440.547H954.984L956.719 445.789C956.755 445.904 956.818 446.12 956.906 446.438C957 446.75 957.12 447.161 957.266 447.672C957.318 447.516 957.375 447.328 957.438 447.109C957.505 446.885 957.573 446.661 957.641 446.438C957.708 446.208 957.771 446.01 957.828 445.844L959.633 440.547H961.398ZM964.633 449.156C963.794 449.156 963.156 448.932 962.719 448.484C962.281 448.036 962.062 447.419 962.062 446.633C962.062 445.758 962.349 445.089 962.922 444.625C963.495 444.161 964.391 443.914 965.609 443.883L967.477 443.852V443.406C967.477 442.76 967.346 442.294 967.086 442.008C966.831 441.721 966.422 441.578 965.859 441.578C965.302 441.578 964.896 441.68 964.641 441.883C964.391 442.086 964.237 442.417 964.18 442.875L962.438 442.75C962.693 441.177 963.852 440.391 965.914 440.391C966.977 440.391 967.781 440.641 968.328 441.141C968.88 441.641 969.156 442.359 969.156 443.297V446.75C969.156 447.188 969.211 447.508 969.32 447.711C969.43 447.909 969.628 448.008 969.914 448.008C970.07 448.008 970.227 447.99 970.383 447.953V448.93C970.174 448.982 969.977 449.021 969.789 449.047C969.607 449.073 969.409 449.086 969.195 449.086C968.664 449.086 968.273 448.951 968.023 448.68C967.779 448.404 967.638 447.984 967.602 447.422H967.555C967.211 448.036 966.802 448.479 966.328 448.75C965.859 449.021 965.294 449.156 964.633 449.156ZM967.477 444.914L966.078 444.938C965.469 444.953 965.016 445.018 964.719 445.133C964.417 445.247 964.185 445.422 964.023 445.656C963.867 445.891 963.789 446.201 963.789 446.586C963.789 447.029 963.901 447.367 964.125 447.602C964.354 447.831 964.672 447.945 965.078 447.945C965.542 447.945 965.953 447.836 966.312 447.617C966.672 447.398 966.956 447.099 967.164 446.719C967.372 446.333 967.477 445.935 967.477 445.523V444.914ZM974.789 449.156C973.57 449.156 972.638 448.781 971.992 448.031C971.346 447.276 971.023 446.193 971.023 444.781C971.023 443.37 971.349 442.286 972 441.531C972.651 440.771 973.581 440.391 974.789 440.391C975.695 440.391 976.445 440.625 977.039 441.094C977.638 441.557 978.016 442.198 978.172 443.016L976.469 443.125C976.401 442.667 976.227 442.302 975.945 442.031C975.664 441.76 975.263 441.625 974.742 441.625C974.06 441.625 973.56 441.87 973.242 442.359C972.924 442.844 972.766 443.635 972.766 444.734C972.766 445.807 972.932 446.607 973.266 447.133C973.599 447.654 974.099 447.914 974.766 447.914C975.24 447.914 975.635 447.781 975.953 447.516C976.271 447.245 976.466 446.836 976.539 446.289L978.219 446.383C978.146 446.945 977.956 447.435 977.648 447.852C977.341 448.263 976.943 448.583 976.453 448.812C975.969 449.042 975.414 449.156 974.789 449.156ZM980.391 452.32C979.958 452.32 979.589 452.289 979.281 452.227V451.008C979.51 451.039 979.74 451.055 979.969 451.055C980.432 451.055 980.831 450.901 981.164 450.594C981.497 450.286 981.799 449.737 982.07 448.945L978.727 440.547H980.5L982.125 444.984C982.25 445.302 982.383 445.674 982.523 446.102C982.664 446.523 982.789 446.94 982.898 447.352C983.029 446.945 983.156 446.555 983.281 446.18C983.406 445.799 983.531 445.417 983.656 445.031L985.148 440.547H986.906L983.625 449.148C983.464 449.565 983.302 449.932 983.141 450.25C982.984 450.568 982.831 450.833 982.68 451.047C982.372 451.49 982.034 451.812 981.664 452.016C981.294 452.219 980.87 452.32 980.391 452.32ZM1001.34 441.359C1001.34 442.062 1001.18 442.677 1000.86 443.203C1000.55 443.724 1000.1 444.13 999.523 444.422C998.951 444.708 998.266 444.852 997.469 444.852H994.398V449H992.641V437.992H997.375C998.635 437.992 999.609 438.286 1000.3 438.875C1000.99 439.464 1001.34 440.292 1001.34 441.359ZM999.562 441.383C999.562 440.049 998.766 439.383 997.172 439.383H994.398V443.469H997.234C998 443.469 998.578 443.294 998.969 442.945C999.365 442.596 999.562 442.076 999.562 441.383ZM1010.61 444.766C1010.61 446.208 1010.27 447.302 1009.58 448.047C1008.89 448.786 1007.91 449.156 1006.64 449.156C1005.38 449.156 1004.41 448.776 1003.73 448.016C1003.07 447.25 1002.73 446.167 1002.73 444.766C1002.73 443.339 1003.07 442.253 1003.74 441.508C1004.41 440.763 1005.4 440.391 1006.69 440.391C1008.01 440.391 1008.99 440.753 1009.63 441.477C1010.28 442.201 1010.61 443.297 1010.61 444.766ZM1008.86 444.766C1008.86 443.651 1008.69 442.844 1008.35 442.344C1008.01 441.839 1007.47 441.586 1006.71 441.586C1005.94 441.586 1005.38 441.846 1005.02 442.367C1004.66 442.883 1004.48 443.682 1004.48 444.766C1004.48 445.823 1004.66 446.62 1005.01 447.156C1005.36 447.693 1005.9 447.961 1006.62 447.961C1007.41 447.961 1007.98 447.701 1008.33 447.18C1008.68 446.659 1008.86 445.854 1008.86 444.766ZM1014.02 437.406V449H1012.36V437.406H1014.02ZM1017.88 437.406V438.844H1016.21V437.406H1017.88ZM1017.88 440.547V449H1016.21V440.547H1017.88ZM1023.41 449.156C1022.2 449.156 1021.26 448.781 1020.62 448.031C1019.97 447.276 1019.65 446.193 1019.65 444.781C1019.65 443.37 1019.97 442.286 1020.62 441.531C1021.28 440.771 1022.21 440.391 1023.41 440.391C1024.32 440.391 1025.07 440.625 1025.66 441.094C1026.26 441.557 1026.64 442.198 1026.8 443.016L1025.09 443.125C1025.03 442.667 1024.85 442.302 1024.57 442.031C1024.29 441.76 1023.89 441.625 1023.37 441.625C1022.68 441.625 1022.18 441.87 1021.87 442.359C1021.55 442.844 1021.39 443.635 1021.39 444.734C1021.39 445.807 1021.56 446.607 1021.89 447.133C1022.22 447.654 1022.72 447.914 1023.39 447.914C1023.86 447.914 1024.26 447.781 1024.58 447.516C1024.9 447.245 1025.09 446.836 1025.16 446.289L1026.84 446.383C1026.77 446.945 1026.58 447.435 1026.27 447.852C1025.97 448.263 1025.57 448.583 1025.08 448.812C1024.59 449.042 1024.04 449.156 1023.41 449.156ZM1029.02 452.32C1028.58 452.32 1028.21 452.289 1027.91 452.227V451.008C1028.14 451.039 1028.36 451.055 1028.59 451.055C1029.06 451.055 1029.46 450.901 1029.79 450.594C1030.12 450.286 1030.42 449.737 1030.7 448.945L1027.35 440.547H1029.12L1030.75 444.984C1030.88 445.302 1031.01 445.674 1031.15 446.102C1031.29 446.523 1031.41 446.94 1031.52 447.352C1031.65 446.945 1031.78 446.555 1031.91 446.18C1032.03 445.799 1032.16 445.417 1032.28 445.031L1033.77 440.547H1035.53L1032.25 449.148C1032.09 449.565 1031.93 449.932 1031.77 450.25C1031.61 450.568 1031.46 450.833 1031.3 451.047C1031 451.49 1030.66 451.812 1030.29 452.016C1029.92 452.219 1029.49 452.32 1029.02 452.32Z" fill="white"/>
<path d="M938.766 479.398V489H937.008V479.398H933.297V477.992H942.469V479.398H938.766ZM943.617 485.109C943.617 486.031 943.802 486.737 944.172 487.227C944.542 487.716 945.076 487.961 945.773 487.961C946.31 487.961 946.742 487.852 947.07 487.633C947.398 487.414 947.622 487.125 947.742 486.766L949.25 487.055C948.714 488.456 947.544 489.156 945.742 489.156C944.482 489.156 943.521 488.784 942.859 488.039C942.198 487.289 941.867 486.185 941.867 484.727C941.867 483.331 942.201 482.26 942.867 481.516C943.534 480.766 944.482 480.391 945.711 480.391C946.945 480.391 947.875 480.776 948.5 481.547C949.13 482.312 949.445 483.453 949.445 484.969V485.109H943.617ZM947.766 483.938C947.703 483.115 947.497 482.51 947.148 482.125C946.805 481.74 946.318 481.547 945.688 481.547C945.062 481.547 944.57 481.758 944.211 482.18C943.852 482.602 943.659 483.188 943.633 483.938H947.766ZM952.891 484.68V489H951.219V482.523C951.219 482.169 951.214 481.831 951.203 481.508C951.198 481.185 951.188 480.865 951.172 480.547H952.75C952.76 480.724 952.771 480.904 952.781 481.086C952.792 481.268 952.799 481.44 952.805 481.602C952.81 481.763 952.815 481.906 952.82 482.031C952.826 482.151 952.828 482.24 952.828 482.297H952.859C953.031 481.766 953.208 481.362 953.391 481.086C953.568 480.831 953.773 480.651 954.008 480.547C954.242 480.443 954.531 480.391 954.875 480.391C955.094 480.391 955.294 480.419 955.477 480.477V481.953C955.242 481.891 954.971 481.859 954.664 481.859C954.096 481.859 953.659 482.102 953.352 482.586C953.044 483.065 952.891 483.763 952.891 484.68ZM958.508 484.227V489H956.844V482.383C956.844 481.898 956.839 481.51 956.828 481.219C956.823 480.922 956.812 480.698 956.797 480.547H958.375C958.385 480.646 958.396 480.789 958.406 480.977C958.422 481.164 958.432 481.359 958.438 481.562C958.448 481.76 958.453 481.93 958.453 482.07H958.477C958.768 481.456 959.112 481.023 959.508 480.773C959.904 480.518 960.383 480.391 960.945 480.391C961.586 480.391 962.096 480.526 962.477 480.797C962.857 481.068 963.117 481.492 963.258 482.07H963.289C963.581 481.471 963.93 481.042 964.336 480.781C964.747 480.521 965.253 480.391 965.852 480.391C966.695 480.391 967.318 480.638 967.719 481.133C968.125 481.628 968.328 482.401 968.328 483.453V489H966.672V483.844C966.672 483.052 966.562 482.492 966.344 482.164C966.125 481.831 965.75 481.664 965.219 481.664C964.667 481.664 964.229 481.885 963.906 482.328C963.583 482.766 963.422 483.385 963.422 484.188V489H961.766V483.844C961.766 483.052 961.654 482.492 961.43 482.164C961.211 481.831 960.836 481.664 960.305 481.664C959.758 481.664 959.32 481.893 958.992 482.352C958.669 482.805 958.508 483.43 958.508 484.227ZM977.055 486.617C977.055 487.424 976.742 488.049 976.117 488.492C975.492 488.935 974.622 489.156 973.508 489.156C972.419 489.156 971.581 488.979 970.992 488.625C970.409 488.271 970.026 487.721 969.844 486.977L971.312 486.719C971.432 487.151 971.661 487.466 972 487.664C972.339 487.862 972.841 487.961 973.508 487.961C974.19 487.961 974.688 487.862 975 487.664C975.312 487.466 975.469 487.164 975.469 486.758C975.469 486.445 975.354 486.195 975.125 486.008C974.901 485.815 974.529 485.654 974.008 485.523C973.466 485.388 973.021 485.273 972.672 485.18C972.328 485.086 972.052 485.003 971.844 484.93C971.641 484.852 971.477 484.779 971.352 484.711C970.977 484.508 970.688 484.255 970.484 483.953C970.281 483.651 970.18 483.279 970.18 482.836C970.18 482.055 970.466 481.456 971.039 481.039C971.612 480.617 972.44 480.406 973.523 480.406C974.482 480.406 975.245 480.581 975.812 480.93C976.385 481.279 976.745 481.818 976.891 482.547L975.398 482.719C975.326 482.354 975.133 482.078 974.82 481.891C974.513 481.698 974.081 481.602 973.523 481.602C972.924 481.602 972.482 481.688 972.195 481.859C971.909 482.031 971.766 482.299 971.766 482.664C971.766 482.935 971.854 483.156 972.031 483.328C972.214 483.5 972.547 483.641 973.031 483.75C973.682 483.901 974.289 484.062 974.852 484.234C975.419 484.406 975.839 484.586 976.109 484.773C976.411 484.982 976.643 485.234 976.805 485.531C976.971 485.823 977.055 486.185 977.055 486.617ZM984.438 485.914L983.266 489H981.469L985.797 477.992H987.836L992.117 489H990.344L989.18 485.914H984.438ZM986.805 479.305C986.727 479.57 986.63 479.872 986.516 480.211C986.406 480.544 986.31 480.82 986.227 481.039L984.906 484.562H988.711L987.367 480.984C987.294 480.792 987.208 480.549 987.109 480.258C987.01 479.961 986.909 479.643 986.805 479.305ZM995.062 484.227V489H993.391V482.383C993.391 481.898 993.385 481.51 993.375 481.219C993.37 480.922 993.359 480.698 993.344 480.547H994.922C994.932 480.635 994.943 480.768 994.953 480.945C994.964 481.122 994.971 481.312 994.977 481.516C994.987 481.719 994.995 481.904 995 482.07H995.023C995.341 481.466 995.716 481.036 996.148 480.781C996.581 480.521 997.109 480.391 997.734 480.391C998.651 480.391 999.331 480.641 999.773 481.141C1000.22 481.641 1000.45 482.411 1000.45 483.453V489H998.773V483.844C998.773 483.057 998.646 482.497 998.391 482.164C998.135 481.831 997.708 481.664 997.109 481.664C996.484 481.664 995.987 481.896 995.617 482.359C995.247 482.818 995.062 483.44 995.062 484.227ZM1008.02 489C1008.01 488.943 1007.99 488.833 1007.98 488.672C1007.96 488.51 1007.95 488.333 1007.94 488.141C1007.93 487.948 1007.92 487.779 1007.92 487.633H1007.89C1007.64 488.164 1007.3 488.552 1006.86 488.797C1006.42 489.036 1005.88 489.156 1005.23 489.156C1004.2 489.156 1003.42 488.789 1002.91 488.055C1002.39 487.32 1002.13 486.237 1002.13 484.805C1002.13 483.352 1002.4 482.253 1002.93 481.508C1003.47 480.763 1004.25 480.391 1005.29 480.391C1005.92 480.391 1006.45 480.51 1006.88 480.75C1007.31 480.99 1007.65 481.362 1007.9 481.867H1007.91L1007.9 480.773V477.406H1009.57V487.227C1009.57 487.607 1009.57 487.945 1009.58 488.242C1009.59 488.534 1009.6 488.786 1009.62 489H1008.02ZM1003.88 484.773C1003.88 485.878 1004.03 486.68 1004.34 487.18C1004.64 487.68 1005.13 487.93 1005.79 487.93C1006.51 487.93 1007.05 487.661 1007.39 487.125C1007.73 486.589 1007.91 485.776 1007.91 484.688C1007.91 483.641 1007.73 482.862 1007.39 482.352C1007.05 481.836 1006.52 481.578 1005.8 481.578C1005.13 481.578 1004.64 481.833 1004.34 482.344C1004.03 482.849 1003.88 483.659 1003.88 484.773ZM1021.34 487.734C1022.84 487.734 1023.93 486.992 1024.63 485.508L1026.11 486.172C1025.67 487.156 1025.03 487.901 1024.2 488.406C1023.38 488.906 1022.41 489.156 1021.3 489.156C1020.16 489.156 1019.19 488.927 1018.38 488.469C1017.57 488.01 1016.95 487.354 1016.52 486.5C1016.08 485.641 1015.87 484.622 1015.87 483.445C1015.87 482.263 1016.08 481.253 1016.5 480.414C1016.93 479.576 1017.54 478.935 1018.34 478.492C1019.15 478.049 1020.12 477.828 1021.26 477.828C1022.47 477.828 1023.47 478.068 1024.27 478.547C1025.06 479.026 1025.64 479.732 1026 480.664L1024.38 481.164C1024.15 480.555 1023.77 480.083 1023.22 479.75C1022.68 479.411 1022.03 479.242 1021.29 479.242C1020.13 479.242 1019.23 479.612 1018.6 480.352C1017.97 481.091 1017.66 482.122 1017.66 483.445C1017.66 484.326 1017.8 485.086 1018.09 485.727C1018.39 486.367 1018.82 486.862 1019.37 487.211C1019.92 487.56 1020.58 487.734 1021.34 487.734ZM1035.2 484.766C1035.2 486.208 1034.86 487.302 1034.17 488.047C1033.48 488.786 1032.51 489.156 1031.23 489.156C1029.97 489.156 1029 488.776 1028.33 488.016C1027.66 487.25 1027.33 486.167 1027.33 484.766C1027.33 483.339 1027.66 482.253 1028.34 481.508C1029.01 480.763 1029.99 480.391 1031.28 480.391C1032.6 480.391 1033.58 480.753 1034.23 481.477C1034.88 482.201 1035.2 483.297 1035.2 484.766ZM1033.45 484.766C1033.45 483.651 1033.28 482.844 1032.95 482.344C1032.61 481.839 1032.06 481.586 1031.3 481.586C1030.53 481.586 1029.97 481.846 1029.61 482.367C1029.26 482.883 1029.08 483.682 1029.08 484.766C1029.08 485.823 1029.25 486.62 1029.6 487.156C1029.96 487.693 1030.49 487.961 1031.21 487.961C1032 487.961 1032.57 487.701 1032.92 487.18C1033.28 486.659 1033.45 485.854 1033.45 484.766ZM1038.64 484.227V489H1036.97V482.383C1036.97 481.898 1036.96 481.51 1036.95 481.219C1036.95 480.922 1036.94 480.698 1036.92 480.547H1038.5C1038.51 480.635 1038.52 480.768 1038.53 480.945C1038.54 481.122 1038.55 481.312 1038.55 481.516C1038.57 481.719 1038.57 481.904 1038.58 482.07H1038.6C1038.92 481.466 1039.29 481.036 1039.73 480.781C1040.16 480.521 1040.69 480.391 1041.31 480.391C1042.23 480.391 1042.91 480.641 1043.35 481.141C1043.8 481.641 1044.02 482.411 1044.02 483.453V489H1042.35V483.844C1042.35 483.057 1042.22 482.497 1041.97 482.164C1041.71 481.831 1041.29 481.664 1040.69 481.664C1040.06 481.664 1039.57 481.896 1039.2 482.359C1038.83 482.818 1038.64 483.44 1038.64 484.227ZM1051.59 489C1051.58 488.943 1051.57 488.833 1051.55 488.672C1051.54 488.51 1051.53 488.333 1051.52 488.141C1051.51 487.948 1051.5 487.779 1051.5 487.633H1051.47C1051.22 488.164 1050.88 488.552 1050.44 488.797C1050 489.036 1049.46 489.156 1048.81 489.156C1047.78 489.156 1047 488.789 1046.48 488.055C1045.97 487.32 1045.71 486.237 1045.71 484.805C1045.71 483.352 1045.98 482.253 1046.51 481.508C1047.04 480.763 1047.83 480.391 1048.87 480.391C1049.5 480.391 1050.03 480.51 1050.45 480.75C1050.89 480.99 1051.23 481.362 1051.48 481.867H1051.49L1051.48 480.773V477.406L1053.15 477.406V487.227C1053.15 487.607 1053.15 487.945 1053.16 488.242C1053.17 488.534 1053.18 488.786 1053.2 489H1051.59ZM1047.46 484.773C1047.46 485.878 1047.61 486.68 1047.91 487.18C1048.22 487.68 1048.71 487.93 1049.37 487.93C1050.09 487.93 1050.62 487.661 1050.97 487.125C1051.31 486.589 1051.48 485.776 1051.48 484.688C1051.48 483.641 1051.31 482.862 1050.97 482.352C1050.63 481.836 1050.1 481.578 1049.38 481.578C1048.71 481.578 1048.22 481.833 1047.91 482.344C1047.61 482.849 1047.46 483.659 1047.46 484.773ZM1056.99 477.406V478.844H1055.32V477.406H1056.99ZM1056.99 480.547V489H1055.32V480.547H1056.99ZM1062.69 488.914C1062.21 489.06 1061.69 489.133 1061.12 489.133C1060.54 489.133 1060.09 488.969 1059.78 488.641C1059.48 488.307 1059.33 487.81 1059.33 487.148V481.727H1058.32V480.547H1059.4L1059.91 478.625H1060.99V480.547H1062.56V481.727H1060.99V486.742C1060.99 487.154 1061.06 487.448 1061.2 487.625C1061.34 487.797 1061.58 487.883 1061.91 487.883C1062.07 487.883 1062.33 487.846 1062.69 487.773V488.914ZM1066.02 489.156C1065.18 489.156 1064.55 488.932 1064.11 488.484C1063.67 488.036 1063.45 487.419 1063.45 486.633C1063.45 485.758 1063.74 485.089 1064.31 484.625C1064.89 484.161 1065.78 483.914 1067 483.883L1068.87 483.852V483.406C1068.87 482.76 1068.74 482.294 1068.48 482.008C1068.22 481.721 1067.81 481.578 1067.25 481.578C1066.69 481.578 1066.29 481.68 1066.03 481.883C1065.78 482.086 1065.63 482.417 1065.57 482.875L1063.83 482.75C1064.08 481.177 1065.24 480.391 1067.3 480.391C1068.37 480.391 1069.17 480.641 1069.72 481.141C1070.27 481.641 1070.55 482.359 1070.55 483.297V486.75C1070.55 487.188 1070.6 487.508 1070.71 487.711C1070.82 487.909 1071.02 488.008 1071.3 488.008C1071.46 488.008 1071.62 487.99 1071.77 487.953V488.93C1071.57 488.982 1071.37 489.021 1071.18 489.047C1071 489.073 1070.8 489.086 1070.59 489.086C1070.05 489.086 1069.66 488.951 1069.41 488.68C1069.17 488.404 1069.03 487.984 1068.99 487.422H1068.95C1068.6 488.036 1068.19 488.479 1067.72 488.75C1067.25 489.021 1066.68 489.156 1066.02 489.156ZM1068.87 484.914L1067.47 484.938C1066.86 484.953 1066.41 485.018 1066.11 485.133C1065.81 485.247 1065.58 485.422 1065.41 485.656C1065.26 485.891 1065.18 486.201 1065.18 486.586C1065.18 487.029 1065.29 487.367 1065.52 487.602C1065.74 487.831 1066.06 487.945 1066.47 487.945C1066.93 487.945 1067.34 487.836 1067.7 487.617C1068.06 487.398 1068.35 487.099 1068.55 486.719C1068.76 486.333 1068.87 485.935 1068.87 485.523V484.914ZM1076.34 488.914C1075.86 489.06 1075.34 489.133 1074.78 489.133C1074.19 489.133 1073.74 488.969 1073.44 488.641C1073.14 488.307 1072.98 487.81 1072.98 487.148V481.727H1071.98V480.547H1073.05L1073.56 478.625H1074.65V480.547H1076.22V481.727H1074.65V486.742C1074.65 487.154 1074.72 487.448 1074.86 487.625C1075 487.797 1075.23 487.883 1075.56 487.883C1075.73 487.883 1075.99 487.846 1076.34 487.773V488.914ZM1079.26 477.406V478.844H1077.59V477.406H1079.26ZM1079.26 480.547V489H1077.59V480.547H1079.26ZM1088.89 484.766C1088.89 486.208 1088.55 487.302 1087.86 488.047C1087.17 488.786 1086.19 489.156 1084.92 489.156C1083.66 489.156 1082.69 488.776 1082.02 488.016C1081.35 487.25 1081.02 486.167 1081.02 484.766C1081.02 483.339 1081.35 482.253 1082.02 481.508C1082.7 480.763 1083.68 480.391 1084.97 480.391C1086.29 480.391 1087.27 480.753 1087.91 481.477C1088.57 482.201 1088.89 483.297 1088.89 484.766ZM1087.14 484.766C1087.14 483.651 1086.97 482.844 1086.63 482.344C1086.29 481.839 1085.75 481.586 1084.99 481.586C1084.22 481.586 1083.66 481.846 1083.3 482.367C1082.94 482.883 1082.77 483.682 1082.77 484.766C1082.77 485.823 1082.94 486.62 1083.29 487.156C1083.64 487.693 1084.18 487.961 1084.9 487.961C1085.69 487.961 1086.26 487.701 1086.61 487.18C1086.96 486.659 1087.14 485.854 1087.14 484.766ZM1092.33 484.227V489H1090.66V482.383C1090.66 481.898 1090.65 481.51 1090.64 481.219C1090.64 480.922 1090.62 480.698 1090.61 480.547H1092.19C1092.2 480.635 1092.21 480.768 1092.22 480.945C1092.23 481.122 1092.24 481.313 1092.24 481.516C1092.25 481.719 1092.26 481.904 1092.27 482.07H1092.29C1092.61 481.466 1092.98 481.036 1093.41 480.781C1093.85 480.521 1094.38 480.391 1095 480.391C1095.92 480.391 1096.6 480.641 1097.04 481.141C1097.49 481.641 1097.71 482.411 1097.71 483.453V489H1096.04V483.844C1096.04 483.057 1095.91 482.497 1095.66 482.164C1095.4 481.831 1094.97 481.664 1094.38 481.664C1093.75 481.664 1093.25 481.896 1092.88 482.359C1092.51 482.818 1092.33 483.44 1092.33 484.227Z" fill="white"/>
<path d="M935.992 524.562V529H934.234V517.992H939.516C940.781 517.992 941.758 518.271 942.445 518.828C943.133 519.385 943.477 520.172 943.477 521.188C943.477 521.99 943.245 522.669 942.781 523.227C942.318 523.784 941.682 524.141 940.875 524.297L943.953 529H941.938L939.18 524.562H935.992ZM941.703 521.227C941.703 520.622 941.5 520.164 941.094 519.852C940.693 519.539 940.107 519.383 939.336 519.383H935.992V523.18H939.398C940.138 523.18 940.706 523.008 941.102 522.664C941.503 522.32 941.703 521.841 941.703 521.227ZM946.977 525.109C946.977 526.031 947.161 526.737 947.531 527.227C947.901 527.716 948.435 527.961 949.133 527.961C949.669 527.961 950.102 527.852 950.43 527.633C950.758 527.414 950.982 527.125 951.102 526.766L952.609 527.055C952.073 528.456 950.904 529.156 949.102 529.156C947.841 529.156 946.88 528.784 946.219 528.039C945.557 527.289 945.227 526.185 945.227 524.727C945.227 523.331 945.56 522.26 946.227 521.516C946.893 520.766 947.841 520.391 949.07 520.391C950.305 520.391 951.234 520.776 951.859 521.547C952.49 522.312 952.805 523.453 952.805 524.969V525.109H946.977ZM951.125 523.938C951.062 523.115 950.857 522.51 950.508 522.125C950.164 521.74 949.677 521.547 949.047 521.547C948.422 521.547 947.93 521.758 947.57 522.18C947.211 522.602 947.018 523.188 946.992 523.938H951.125ZM956.578 521.727V529H954.914V521.727H953.711V520.547H954.914V519.617C954.914 518.846 955.094 518.286 955.453 517.938C955.818 517.589 956.37 517.414 957.109 517.414C957.51 517.414 957.885 517.451 958.234 517.523V518.703C958 518.661 957.789 518.641 957.602 518.641C957.237 518.641 956.974 518.727 956.812 518.898C956.656 519.07 956.578 519.378 956.578 519.82V520.547H958.234V521.727H956.578ZM964.664 527.477C964.352 528.081 963.979 528.513 963.547 528.773C963.115 529.029 962.583 529.156 961.953 529.156C961.036 529.156 960.354 528.911 959.906 528.422C959.464 527.932 959.242 527.156 959.242 526.094V520.547H960.914V525.703C960.914 526.51 961.044 527.076 961.305 527.398C961.565 527.721 961.99 527.883 962.578 527.883C963.208 527.883 963.706 527.654 964.07 527.195C964.44 526.732 964.625 526.107 964.625 525.32V520.547H966.297V527.164C966.297 527.612 966.299 527.99 966.305 528.297C966.315 528.604 966.331 528.839 966.352 529H964.766C964.75 528.859 964.734 528.669 964.719 528.43C964.708 528.19 964.701 527.872 964.695 527.477H964.664ZM970.188 524.227V529H968.516V522.383C968.516 521.898 968.51 521.51 968.5 521.219C968.495 520.922 968.484 520.698 968.469 520.547H970.047C970.057 520.635 970.068 520.768 970.078 520.945C970.089 521.122 970.096 521.312 970.102 521.516C970.112 521.719 970.12 521.904 970.125 522.07H970.148C970.466 521.466 970.841 521.036 971.273 520.781C971.706 520.521 972.234 520.391 972.859 520.391C973.776 520.391 974.456 520.641 974.898 521.141C975.346 521.641 975.57 522.411 975.57 523.453V529H973.898V523.844C973.898 523.057 973.771 522.497 973.516 522.164C973.26 521.831 972.833 521.664 972.234 521.664C971.609 521.664 971.112 521.896 970.742 522.359C970.372 522.818 970.188 523.44 970.188 524.227ZM983.141 529C983.13 528.943 983.117 528.833 983.102 528.672C983.086 528.51 983.073 528.333 983.062 528.141C983.052 527.948 983.047 527.779 983.047 527.633H983.016C982.766 528.164 982.422 528.552 981.984 528.797C981.547 529.036 981.005 529.156 980.359 529.156C979.323 529.156 978.547 528.789 978.031 528.055C977.516 527.32 977.258 526.237 977.258 524.805C977.258 523.352 977.523 522.253 978.055 521.508C978.591 520.763 979.378 520.391 980.414 520.391C981.044 520.391 981.573 520.51 982 520.75C982.432 520.99 982.773 521.362 983.023 521.867H983.039L983.023 520.773V517.406H984.695V527.227C984.695 527.607 984.698 527.945 984.703 528.242C984.714 528.534 984.727 528.786 984.742 529H983.141ZM979.008 524.773C979.008 525.878 979.159 526.68 979.461 527.18C979.768 527.68 980.253 527.93 980.914 527.93C981.638 527.93 982.172 527.661 982.516 527.125C982.859 526.589 983.031 525.776 983.031 524.688C983.031 523.641 982.859 522.862 982.516 522.352C982.177 521.836 981.648 521.578 980.93 521.578C980.258 521.578 979.768 521.833 979.461 522.344C979.159 522.849 979.008 523.659 979.008 524.773ZM1000.16 521.359C1000.16 522.062 1000.01 522.677 999.688 523.203C999.375 523.724 998.93 524.13 998.352 524.422C997.779 524.708 997.094 524.852 996.297 524.852H993.227V529H991.469V517.992H996.203C997.464 517.992 998.438 518.286 999.125 518.875C999.818 519.464 1000.16 520.292 1000.16 521.359ZM998.391 521.383C998.391 520.049 997.594 519.383 996 519.383H993.227V523.469H996.062C996.828 523.469 997.406 523.294 997.797 522.945C998.193 522.596 998.391 522.076 998.391 521.383ZM1009.44 524.766C1009.44 526.208 1009.09 527.302 1008.41 528.047C1007.72 528.786 1006.74 529.156 1005.47 529.156C1004.2 529.156 1003.23 528.776 1002.56 528.016C1001.9 527.25 1001.56 526.167 1001.56 524.766C1001.56 523.339 1001.9 522.253 1002.57 521.508C1003.24 520.763 1004.22 520.391 1005.52 520.391C1006.83 520.391 1007.82 520.753 1008.46 521.477C1009.11 522.201 1009.44 523.297 1009.44 524.766ZM1007.69 524.766C1007.69 523.651 1007.52 522.844 1007.18 522.344C1006.84 521.839 1006.29 521.586 1005.54 521.586C1004.77 521.586 1004.2 521.846 1003.84 522.367C1003.49 522.883 1003.31 523.682 1003.31 524.766C1003.31 525.823 1003.49 526.62 1003.84 527.156C1004.19 527.693 1004.73 527.961 1005.45 527.961C1006.24 527.961 1006.81 527.701 1007.16 527.18C1007.51 526.659 1007.69 525.854 1007.69 524.766ZM1012.85 517.406V529H1011.19V517.406H1012.85ZM1016.71 517.406V518.844H1015.04V517.406H1016.71ZM1016.71 520.547V529H1015.04V520.547H1016.71ZM1022.24 529.156C1021.02 529.156 1020.09 528.781 1019.45 528.031C1018.8 527.276 1018.48 526.193 1018.48 524.781C1018.48 523.37 1018.8 522.286 1019.45 521.531C1020.1 520.771 1021.03 520.391 1022.24 520.391C1023.15 520.391 1023.9 520.625 1024.49 521.094C1025.09 521.557 1025.47 522.198 1025.62 523.016L1023.92 523.125C1023.85 522.667 1023.68 522.302 1023.4 522.031C1023.12 521.76 1022.72 521.625 1022.2 521.625C1021.51 521.625 1021.01 521.87 1020.7 522.359C1020.38 522.844 1020.22 523.635 1020.22 524.734C1020.22 525.807 1020.39 526.607 1020.72 527.133C1021.05 527.654 1021.55 527.914 1022.22 527.914C1022.69 527.914 1023.09 527.781 1023.41 527.516C1023.72 527.245 1023.92 526.836 1023.99 526.289L1025.67 526.383C1025.6 526.945 1025.41 527.435 1025.1 527.852C1024.79 528.263 1024.4 528.583 1023.91 528.812C1023.42 529.042 1022.87 529.156 1022.24 529.156ZM1027.84 532.32C1027.41 532.32 1027.04 532.289 1026.73 532.227V531.008C1026.96 531.039 1027.19 531.055 1027.42 531.055C1027.89 531.055 1028.28 530.901 1028.62 530.594C1028.95 530.286 1029.25 529.737 1029.52 528.945L1026.18 520.547H1027.95L1029.58 524.984C1029.7 525.302 1029.84 525.674 1029.98 526.102C1030.12 526.523 1030.24 526.94 1030.35 527.352C1030.48 526.945 1030.61 526.555 1030.73 526.18C1030.86 525.799 1030.98 525.417 1031.11 525.031L1032.6 520.547H1034.36L1031.08 529.148C1030.92 529.565 1030.76 529.932 1030.59 530.25C1030.44 530.568 1030.28 530.833 1030.13 531.047C1029.83 531.49 1029.49 531.812 1029.12 532.016C1028.75 532.219 1028.32 532.32 1027.84 532.32Z" fill="white"/>
<defs>
<filter id="filter0_d_0_4497" x="0.550415" y="0.516815" width="1872.9" height="1849.9" filterUnits="userSpaceOnUse" color-interpolation-filters="sRGB">
<feFlood flood-opacity="0" result="BackgroundImageFix"/>
<feColorMatrix in="SourceAlpha" type="matrix" values="0 0 0 0 0 0 0 0 0 0 0 0 0 0 0 0 0 0 127 0" result="hardAlpha"/>
<feOffset dy="382.966"/>
<feGaussianBlur stdDeviation="287.225"/>
<feColorMatrix type="matrix" values="0 0 0 0 0.691633 0 0 0 0 0.764753 0 0 0 0 0.824162 0 0 0 0.727846 0"/>
<feBlend mode="normal" in2="BackgroundImageFix" result="effect1_dropShadow_0_4497"/>
<feBlend mode="normal" in="SourceGraphic" in2="effect1_dropShadow_0_4497" result="shape"/>
</filter>
</defs>
</svg>
