<svg width="125" height="41" viewBox="0 0 125 41" fill="none" xmlns="http://www.w3.org/2000/svg">
<rect width="125" height="41" rx="7.73967" fill="white" fill-opacity="0.12"/>
<path d="M37.168 15.375C37.5065 15.375 37.8255 15.3242 38.125 15.2227C38.4271 15.1185 38.668 14.9818 38.8477 14.8125V13.8984H37.3047V13.1953H39.6602V15.1367C39.3685 15.4336 39.0026 15.6654 38.5625 15.832C38.125 15.9961 37.6562 16.0781 37.1562 16.0781C36.5755 16.0781 36.0781 15.9635 35.6641 15.7344C35.25 15.5052 34.9323 15.1771 34.7109 14.75C34.4896 14.3229 34.3789 13.8138 34.3789 13.2227C34.3789 12.3242 34.6185 11.6315 35.0977 11.1445C35.5794 10.6576 36.2604 10.4141 37.1406 10.4141C37.763 10.4141 38.2695 10.5221 38.6602 10.7383C39.0508 10.9544 39.3438 11.2943 39.5391 11.7578L38.7109 12.0039C38.5677 11.7018 38.3633 11.4792 38.0977 11.3359C37.8346 11.1927 37.5117 11.1211 37.1289 11.1211C36.5247 11.1211 36.0638 11.3047 35.7461 11.6719C35.4284 12.0365 35.2695 12.5534 35.2695 13.2227C35.2695 13.8945 35.4362 14.4219 35.7695 14.8047C36.1055 15.1849 36.5716 15.375 37.168 15.375ZM45.2305 15.2969V16H40.8438V10.4961H45.0703V11.1992H41.7227V12.8359H44.832V13.5352H41.7227V15.2969H45.2305ZM48.4453 11.1992V16H47.5664V11.1992H45.7109V10.4961H50.2969V11.1992H48.4453ZM54.1289 10.4961V16H53.25V10.4961H54.1289ZM57.6875 11.1992V16H56.8086V11.1992H54.9531V10.4961H59.5391V11.1992H57.6875ZM67.6758 13.2227C67.6758 13.806 67.5625 14.3112 67.3359 14.7383C67.112 15.1654 66.7943 15.4961 66.3828 15.7305C65.9714 15.9622 65.4844 16.0781 64.9219 16.0781C64.3568 16.0781 63.8685 15.9635 63.457 15.7344C63.0482 15.5052 62.7331 15.1771 62.5117 14.75C62.293 14.3229 62.1836 13.8138 62.1836 13.2227C62.1836 12.6341 62.2917 12.1315 62.5078 11.7148C62.7266 11.2956 63.0404 10.974 63.4492 10.75C63.8607 10.526 64.3542 10.4141 64.9297 10.4141C65.5 10.4141 65.9896 10.526 66.3984 10.75C66.8099 10.9714 67.125 11.2917 67.3438 11.7109C67.5651 12.1276 67.6758 12.6315 67.6758 13.2227ZM66.7773 13.2227C66.7773 12.569 66.6159 12.056 66.293 11.6836C65.9701 11.3086 65.5156 11.1211 64.9297 11.1211C64.3385 11.1211 63.8815 11.306 63.5586 11.6758C63.2357 12.043 63.0742 12.5586 63.0742 13.2227C63.0742 13.6628 63.1471 14.0443 63.293 14.3672C63.4414 14.6875 63.6536 14.9349 63.9297 15.1094C64.2083 15.2839 64.5391 15.3711 64.9219 15.3711C65.5182 15.3711 65.9766 15.1849 66.2969 14.8125C66.6172 14.4375 66.7773 13.9076 66.7773 13.2227ZM69.4453 12.4805V16H68.6641V10.4961H69.6797L72.4766 15.0664C72.4401 14.5924 72.4219 14.2266 72.4219 13.9688V10.4961H73.2109V16H72.1602L69.3984 11.4609C69.4089 11.6458 69.4193 11.8229 69.4297 11.9922C69.4401 12.1615 69.4453 12.3242 69.4453 12.4805Z" fill="white"/>
<path d="M37.3136 28.4702C37.8751 28.4702 38.4196 28.3896 38.9469 28.2285C39.4742 28.0625 39.882 27.8525 40.17 27.5986V26.1704H37.6505V24.5737H42.1476V28.3677C41.6007 28.9292 40.8878 29.3687 40.0089 29.686C39.1349 30.0034 38.2169 30.1621 37.255 30.1621C36.1368 30.1621 35.1871 29.9546 34.4059 29.5396C33.6295 29.1196 33.0387 28.5117 32.6334 27.7158C32.2281 26.915 32.0255 25.9458 32.0255 24.8081C32.0255 23.1089 32.4796 21.8076 33.3878 20.9043C34.296 19.9961 35.6022 19.542 37.3063 19.542C38.5172 19.542 39.5084 19.7666 40.2799 20.2158C41.0514 20.6602 41.6007 21.3315 41.9279 22.23L39.9357 22.8306C39.7208 22.3081 39.3839 21.9126 38.9249 21.644C38.4659 21.3755 37.9264 21.2412 37.3063 21.2412C36.2906 21.2412 35.5192 21.5488 34.9918 22.1641C34.4645 22.7793 34.2008 23.6606 34.2008 24.8081C34.2008 25.9751 34.4718 26.8784 35.0138 27.5181C35.5607 28.1528 36.3273 28.4702 37.3136 28.4702ZM51.0617 26.0459C51.0617 27.3301 50.7053 28.3384 49.9924 29.0708C49.2795 29.7983 48.2932 30.1621 47.0334 30.1621C45.7981 30.1621 44.8288 29.7959 44.1257 29.0635C43.4226 28.3311 43.071 27.3252 43.071 26.0459C43.071 24.7715 43.4226 23.7705 44.1257 23.043C44.8288 22.3105 45.8127 21.9443 47.0774 21.9443C48.3713 21.9443 49.3576 22.2983 50.0364 23.0063C50.7199 23.7095 51.0617 24.7227 51.0617 26.0459ZM48.9084 26.0459C48.9084 25.1035 48.7546 24.4199 48.447 23.9951C48.1394 23.5703 47.6926 23.3579 47.1067 23.3579C46.4817 23.3579 46.0129 23.5825 45.7004 24.0317C45.3879 24.4761 45.2317 25.1475 45.2317 26.0459C45.2317 26.9297 45.383 27.6035 45.6858 28.0674C45.9934 28.5264 46.4353 28.7559 47.0114 28.7559C47.6462 28.7559 48.1198 28.5312 48.4323 28.082C48.7497 27.6279 48.9084 26.9492 48.9084 26.0459ZM59.6317 26.0459C59.6317 27.3301 59.2752 28.3384 58.5623 29.0708C57.8494 29.7983 56.8631 30.1621 55.6033 30.1621C54.368 30.1621 53.3988 29.7959 52.6956 29.0635C51.9925 28.3311 51.6409 27.3252 51.6409 26.0459C51.6409 24.7715 51.9925 23.7705 52.6956 23.043C53.3988 22.3105 54.3826 21.9443 55.6473 21.9443C56.9412 21.9443 57.9276 22.2983 58.6063 23.0063C59.2899 23.7095 59.6317 24.7227 59.6317 26.0459ZM57.4783 26.0459C57.4783 25.1035 57.3245 24.4199 57.0169 23.9951C56.7093 23.5703 56.2625 23.3579 55.6766 23.3579C55.0516 23.3579 54.5828 23.5825 54.2703 24.0317C53.9578 24.4761 53.8016 25.1475 53.8016 26.0459C53.8016 26.9297 53.953 27.6035 54.2557 28.0674C54.5633 28.5264 55.0052 28.7559 55.5814 28.7559C56.2161 28.7559 56.6898 28.5312 57.0023 28.082C57.3197 27.6279 57.4783 26.9492 57.4783 26.0459ZM63.9902 33.1943C63.0234 33.1943 62.2446 33.0088 61.6537 32.6377C61.0678 32.2715 60.7065 31.7466 60.5698 31.063L62.6279 30.8213C62.7011 31.1387 62.8573 31.3877 63.0966 31.5684C63.3407 31.749 63.6581 31.8394 64.0488 31.8394C64.62 31.8394 65.0375 31.6636 65.3012 31.312C65.5649 30.9604 65.6967 30.438 65.6967 29.7446L65.7114 28.5435H65.6967C65.4721 29.0317 65.1474 29.3979 64.7226 29.6421C64.2978 29.8813 63.7729 30.001 63.1479 30.001C62.225 30.001 61.5097 29.6543 61.0019 28.9609C60.4941 28.2676 60.2402 27.2764 60.2402 25.9873C60.2402 24.6934 60.5014 23.6948 61.0239 22.9917C61.5463 22.2886 62.3056 21.937 63.3017 21.937C63.8779 21.937 64.3637 22.0566 64.7592 22.2959C65.1596 22.5303 65.4721 22.8867 65.6967 23.3652H65.7333C65.7333 23.248 65.7382 23.1016 65.748 22.9258C65.7577 22.75 65.7699 22.5815 65.7846 22.4204C65.8041 22.2593 65.8212 22.1494 65.8359 22.0908H67.7841C67.7548 22.6182 67.7402 23.2285 67.7402 23.9219V29.7739C67.7402 30.9019 67.4203 31.7539 66.7807 32.3301C66.141 32.9062 65.2109 33.1943 63.9902 33.1943ZM65.7114 25.9434C65.7114 25.1279 65.5649 24.4932 65.2719 24.0391C64.9838 23.5801 64.5712 23.3506 64.0341 23.3506C63.4872 23.3506 63.0746 23.5703 62.7963 24.0098C62.5229 24.4492 62.3862 25.1084 62.3862 25.9873C62.3862 26.8467 62.5204 27.4937 62.789 27.9282C63.0624 28.3579 63.4726 28.5728 64.0195 28.5728C64.5663 28.5728 64.9838 28.3457 65.2719 27.8916C65.5649 27.4326 65.7114 26.7832 65.7114 25.9434ZM71.3003 19.1465V30.0156H69.2422V19.1465H71.3003ZM74.5162 26.4487C74.5162 27.2202 74.6578 27.8037 74.941 28.1992C75.2291 28.5898 75.6368 28.7852 76.1642 28.7852C76.5255 28.7852 76.8209 28.707 77.0504 28.5508C77.2848 28.3896 77.4484 28.1528 77.5411 27.8403L79.4821 28.0088C78.9205 29.4443 77.7804 30.1621 76.0616 30.1621C74.8702 30.1621 73.9547 29.8105 73.3151 29.1074C72.6754 28.3994 72.3556 27.3691 72.3556 26.0166C72.3556 24.708 72.6803 23.7021 73.3297 22.999C73.9791 22.2959 74.8995 21.9443 76.0909 21.9443C77.2286 21.9443 78.0978 22.3228 78.6984 23.0796C79.299 23.8315 79.5992 24.9351 79.5992 26.3901V26.4487H74.5162ZM77.6071 25.1597C77.568 24.52 77.4142 24.0415 77.1456 23.7241C76.8771 23.4019 76.5157 23.2407 76.0616 23.2407C75.5782 23.2407 75.2047 23.4092 74.941 23.7461C74.6823 24.083 74.5455 24.5542 74.5309 25.1597H77.6071ZM92.5863 22.9624C92.5863 23.6313 92.4324 24.2246 92.1248 24.7422C91.8221 25.2549 91.39 25.6577 90.8284 25.9507C90.2669 26.2388 89.598 26.3828 88.8216 26.3828H86.2581V30.0156H84.0975V19.6958H88.7337C89.9691 19.6958 90.9188 19.9814 91.5828 20.5527C92.2518 21.1191 92.5863 21.9224 92.5863 22.9624ZM90.411 22.999C90.411 21.915 89.7713 21.373 88.492 21.373H86.2581V24.7202H88.5506C89.1463 24.7202 89.6053 24.5737 89.9276 24.2808C90.2498 23.9829 90.411 23.5557 90.411 22.999ZM95.6044 19.1465V30.0156H93.5463V19.1465H95.6044ZM98.9522 30.1621C98.1856 30.1621 97.5874 29.9546 97.1577 29.5396C96.7281 29.1196 96.5132 28.5312 96.5132 27.7744C96.5132 26.9541 96.7793 26.3315 97.3115 25.9067C97.8487 25.4819 98.625 25.2598 99.6406 25.2402L101.347 25.2109V24.8081C101.347 24.2905 101.257 23.9072 101.076 23.6582C100.896 23.4043 100.6 23.2773 100.19 23.2773C99.8091 23.2773 99.5283 23.3652 99.3477 23.541C99.1719 23.7119 99.062 23.9976 99.0181 24.3979L96.8721 24.2954C97.1406 22.728 98.2759 21.9443 100.278 21.9443C101.279 21.9443 102.05 22.1909 102.592 22.6841C103.134 23.1772 103.405 23.8779 103.405 24.7861V27.6719C103.405 28.1162 103.454 28.4238 103.552 28.5947C103.654 28.7607 103.823 28.8438 104.057 28.8438C104.213 28.8438 104.365 28.8291 104.511 28.7998V29.9131C104.257 29.9766 104.04 30.0229 103.859 30.0522C103.679 30.0864 103.457 30.1035 103.193 30.1035C102.675 30.1035 102.292 29.9766 102.043 29.7227C101.799 29.4688 101.652 29.0952 101.604 28.6021H101.56C101.272 29.1196 100.91 29.5103 100.476 29.7739C100.041 30.0327 99.5332 30.1621 98.9522 30.1621ZM101.347 26.3462L100.293 26.3608C99.8091 26.3853 99.4697 26.4365 99.2744 26.5146C99.0742 26.6025 98.9204 26.7344 98.813 26.9102C98.7105 27.0859 98.6592 27.3203 98.6592 27.6133C98.6592 27.9893 98.7447 28.27 98.9156 28.4556C99.0913 28.6362 99.3233 28.7266 99.6114 28.7266C99.9336 28.7266 100.229 28.6387 100.498 28.4629C100.761 28.2871 100.969 28.0454 101.12 27.7378C101.272 27.4253 101.347 27.0957 101.347 26.749V26.3462ZM105.896 33.1284C105.393 33.1284 104.961 33.0967 104.6 33.0332V31.5684C104.873 31.6074 105.11 31.627 105.31 31.627C105.789 31.627 106.145 31.4976 106.38 31.2388C106.619 30.98 106.851 30.5454 107.075 29.9351L103.941 22.0908H106.116L107.361 25.8042C107.459 26.0728 107.568 26.4097 107.691 26.8149C107.813 27.2202 107.949 27.6987 108.101 28.2505C108.213 27.8013 108.32 27.3862 108.423 27.0054C108.526 26.6245 108.638 26.2339 108.76 25.8335L109.932 22.0908H112.085L108.95 30.4331C108.823 30.77 108.689 31.0679 108.547 31.3267C108.406 31.5854 108.262 31.8149 108.115 32.0151C107.818 32.4204 107.493 32.7061 107.141 32.8721C106.79 33.043 106.375 33.1284 105.896 33.1284Z" fill="white"/>
<path d="M10.6382 10.5788C10.3729 10.8922 10.2376 11.2951 10.2599 11.705V29.4993C10.2325 29.9099 10.3685 30.3147 10.6382 30.6255L10.6945 30.6899L20.6679 20.7228V20.4815L10.6945 10.5225L10.6382 10.5788Z" fill="url(#paint0_linear_0_4536)"/>
<path d="M23.9681 24.0452L20.6678 20.7229V20.4815L23.9681 17.1592L24.0406 17.2074L27.9929 19.4438C29.1198 20.0793 29.1198 21.1251 27.9929 21.7687L24.0567 24.005L23.9681 24.0452Z" fill="url(#paint1_linear_0_4536)"/>
<path d="M24.0647 23.9973L20.6678 20.6025L10.6382 30.6259C10.8656 30.8283 11.1568 30.9447 11.4611 30.955C11.7655 30.9652 12.0638 30.8688 12.3044 30.6822L24.0647 23.9973Z" fill="url(#paint2_linear_0_4536)"/>
<path d="M24.0647 17.2066L12.3044 10.5297C12.0654 10.3405 11.7673 10.2417 11.4625 10.2505C11.1578 10.2594 10.8659 10.3753 10.6382 10.5779L20.6678 20.6013L24.0647 17.2066Z" fill="url(#paint3_linear_0_4536)"/>
<path opacity="0.2" d="M23.9681 23.9248L12.3044 30.5615C12.0726 30.7364 11.79 30.831 11.4995 30.831C11.209 30.831 10.9264 30.7364 10.6945 30.5615L10.6382 30.6178L10.6945 30.6821C10.9264 30.857 11.209 30.9516 11.4995 30.9516C11.79 30.9516 12.0726 30.857 12.3044 30.6821L24.0647 23.9972L23.9681 23.9248Z" fill="#0C0C0C"/>
<path opacity="0.12" d="M10.6383 30.5132C10.3798 30.1941 10.2531 29.7883 10.2842 29.3789V29.4996C10.2568 29.9101 10.3927 30.3149 10.6625 30.6258L10.7188 30.5695L10.6383 30.5132Z" fill="#0C0C0C"/>
<path opacity="0.12" d="M27.9929 21.6483L23.9681 23.9249L24.0406 23.9973L27.9929 21.7609C28.2262 21.6624 28.4286 21.5027 28.5787 21.2989C28.7289 21.095 28.8213 20.8545 28.8461 20.6025C28.7958 20.8315 28.6924 21.0454 28.5442 21.227C28.396 21.4087 28.2071 21.553 27.9929 21.6483Z" fill="#0C0C0C"/>
<path opacity="0.25" d="M12.3045 10.6423L27.9929 19.5555C28.2071 19.6509 28.396 19.7952 28.5442 19.9768C28.6924 20.1585 28.7958 20.3724 28.8461 20.6013C28.8213 20.3494 28.7289 20.1088 28.5787 19.905C28.4286 19.7011 28.2262 19.5415 27.9929 19.4429L12.3045 10.5296C11.1856 9.88608 10.2599 10.417 10.2599 11.7041V11.8248C10.284 10.5377 11.1856 10.0067 12.3045 10.6423Z" fill="white"/>
<defs>
<linearGradient id="paint0_linear_0_4536" x1="19.7824" y1="11.52" x2="6.28382" y2="25.027" gradientUnits="userSpaceOnUse">
<stop stop-color="#00A0FF"/>
<stop offset="0.01" stop-color="#00A1FF"/>
<stop offset="0.26" stop-color="#00BEFF"/>
<stop offset="0.51" stop-color="#00D2FF"/>
<stop offset="0.76" stop-color="#00DFFF"/>
<stop offset="1" stop-color="#00E3FF"/>
</linearGradient>
<linearGradient id="paint1_linear_0_4536" x1="29.4659" y1="20.6022" x2="9.99423" y2="20.6022" gradientUnits="userSpaceOnUse">
<stop stop-color="#FFE000"/>
<stop offset="0.41" stop-color="#FFBD00"/>
<stop offset="0.78" stop-color="#FFA500"/>
<stop offset="1" stop-color="#FF9C00"/>
</linearGradient>
<linearGradient id="paint2_linear_0_4536" x1="22.2214" y1="22.4528" x2="3.91221" y2="40.7653" gradientUnits="userSpaceOnUse">
<stop stop-color="#FF3A44"/>
<stop offset="1" stop-color="#C31162"/>
</linearGradient>
<linearGradient id="paint3_linear_0_4536" x1="8.11065" y1="4.65721" x2="16.2838" y2="12.8355" gradientUnits="userSpaceOnUse">
<stop stop-color="#32A071"/>
<stop offset="0.07" stop-color="#2DA771"/>
<stop offset="0.48" stop-color="#15CF74"/>
<stop offset="0.8" stop-color="#06E775"/>
<stop offset="1" stop-color="#00F076"/>
</linearGradient>
</defs>
</svg>
