<svg width="236" height="71" viewBox="0 0 236 71" fill="none" xmlns="http://www.w3.org/2000/svg">
<path d="M71.3 38.3333C71.3 59.5042 51.8376 69 30.6667 69C9.49575 69 0 59.5042 0 38.3333C0 17.1624 4.12908 0 25.3 0C46.4709 0 71.3 17.1624 71.3 38.3333Z" fill="url(#paint0_linear_0_4564)"/>
<path d="M88.1383 26.5508V37H82.3765V9.48047L96.1265 9.48047C99.4078 9.48047 101.94 10.1901 103.724 11.6094C105.508 13.0156 106.4 15.0404 106.4 17.6836C106.4 19.6107 105.853 21.2773 104.759 22.6836C103.666 24.0768 102.188 24.9948 100.326 25.4375L107.767 37H101.283L94.8961 26.5508H88.1383ZM100.599 17.918C100.599 16.6029 100.176 15.6133 99.3297 14.9492C98.4833 14.2852 97.2138 13.9531 95.5211 13.9531L88.1383 13.9531V22.0781L95.6773 22.0781C97.2919 22.0781 98.5159 21.7135 99.3492 20.9844C100.183 20.2552 100.599 19.2331 100.599 17.918ZM130.678 26.4141C130.678 29.8385 129.728 32.5273 127.827 34.4805C125.926 36.4206 123.295 37.3906 119.936 37.3906C116.642 37.3906 114.057 36.4141 112.182 34.4609C110.307 32.5078 109.37 29.8255 109.37 26.4141C109.37 23.0156 110.307 20.3464 112.182 18.4063C114.057 16.4531 116.681 15.4766 120.053 15.4766C123.504 15.4766 126.134 16.4206 127.944 18.3086C129.767 20.1836 130.678 22.8854 130.678 26.4141ZM124.936 26.4141C124.936 23.901 124.526 22.0781 123.705 20.9453C122.885 19.8125 121.694 19.2461 120.131 19.2461C118.465 19.2461 117.215 19.8451 116.381 21.043C115.548 22.2279 115.131 24.0182 115.131 26.4141C115.131 28.7708 115.535 30.5677 116.342 31.8047C117.162 33.0286 118.341 33.6406 119.877 33.6406C121.57 33.6406 122.833 33.0417 123.666 31.8438C124.513 30.6328 124.936 28.8229 124.936 26.4141ZM154.331 26.4141C154.331 29.8385 153.381 32.5273 151.48 34.4805C149.579 36.4206 146.948 37.3906 143.589 37.3906C140.295 37.3906 137.71 36.4141 135.835 34.4609C133.96 32.5078 133.023 29.8255 133.023 26.4141C133.023 23.0156 133.96 20.3464 135.835 18.4063C137.71 16.4531 140.334 15.4766 143.706 15.4766C147.157 15.4766 149.787 16.4206 151.597 18.3086C153.42 20.1836 154.331 22.8854 154.331 26.4141ZM148.589 26.4141C148.589 23.901 148.179 22.0781 147.359 20.9453C146.538 19.8125 145.347 19.2461 143.784 19.2461C142.118 19.2461 140.868 19.8451 140.034 21.043C139.201 22.2279 138.784 24.0182 138.784 26.4141C138.784 28.7708 139.188 30.5677 139.995 31.8047C140.816 33.0286 141.994 33.6406 143.53 33.6406C145.223 33.6406 146.486 33.0417 147.32 31.8438C148.166 30.6328 148.589 28.8229 148.589 26.4141ZM163.414 8.01563V12.0586L157.926 12.0586V8.01563L163.414 8.01563ZM157.809 45.3008C156.52 45.3008 155.413 45.2422 154.488 45.125V41.2578C154.658 41.2708 154.827 41.2839 154.996 41.2969C155.152 41.3229 155.315 41.3359 155.484 41.3359C156.422 41.3359 157.06 41.1276 157.398 40.7109C157.75 40.3073 157.926 39.4609 157.926 38.1719V15.8672L163.414 15.8672V39.5C163.414 41.362 162.939 42.7943 161.988 43.7969C161.051 44.7995 159.658 45.3008 157.809 45.3008ZM173.649 20.0859C174.391 18.4714 175.322 17.2995 176.442 16.5703C177.562 15.8411 178.897 15.4766 180.446 15.4766C182.686 15.4766 184.404 16.1667 185.602 17.5469C186.8 18.9271 187.399 20.9453 187.399 23.6016V37H181.93V25.1641C181.93 23.3021 181.618 21.9089 180.993 20.9844C180.368 20.0599 179.424 19.5977 178.161 19.5977C176.833 19.5977 175.759 20.1706 174.938 21.3164C174.131 22.4492 173.727 23.9076 173.727 25.6914V37H168.239V8.01563L173.727 8.01563V15.9258C173.727 16.3945 173.721 16.8633 173.708 17.332C173.695 17.8008 173.675 18.263 173.649 18.7188C173.636 19.1745 173.61 19.6302 173.571 20.0859H173.649Z" fill="white"/>
<path d="M85.7766 60.4375V65H84.2922V60.4375L80.0578 53.9922H81.6984L85.05 59.2344L88.3859 53.9922H90.0266L85.7766 60.4375ZM97.1359 60.7656C97.1359 62.2448 96.8104 63.3464 96.1594 64.0703C95.5083 64.7943 94.563 65.1562 93.3234 65.1562C92.0891 65.1562 91.1568 64.7812 90.5266 64.0312C89.8963 63.276 89.5812 62.1875 89.5812 60.7656C89.5812 59.3073 89.8963 58.2135 90.5266 57.4844C91.162 56.7552 92.1099 56.3906 93.3703 56.3906C94.662 56.3906 95.6125 56.7474 96.2219 57.4609C96.8312 58.1693 97.1359 59.2708 97.1359 60.7656ZM95.6594 60.7656C95.6594 59.599 95.4849 58.7526 95.1359 58.2266C94.7922 57.6953 94.2114 57.4297 93.3937 57.4297C92.5708 57.4297 91.9745 57.7005 91.6047 58.2422C91.2401 58.7786 91.0578 59.6198 91.0578 60.7656C91.0578 61.8802 91.2375 62.7188 91.5969 63.2812C91.9614 63.8385 92.5318 64.1172 93.3078 64.1172C94.1516 64.1172 94.7531 63.8464 95.1125 63.3047C95.4771 62.763 95.6594 61.9167 95.6594 60.7656ZM104.237 63.5547C103.915 64.138 103.54 64.5521 103.112 64.7969C102.691 65.0365 102.165 65.1562 101.534 65.1562C100.607 65.1562 99.9276 64.9271 99.4953 64.4688C99.0682 64.0052 98.8547 63.2422 98.8547 62.1797V56.5469H100.269V61.9062C100.269 62.75 100.399 63.3229 100.659 63.625C100.925 63.9219 101.376 64.0703 102.011 64.0703C102.688 64.0703 103.222 63.8385 103.612 63.375C104.003 62.9115 104.198 62.2682 104.198 61.4453V56.5469H105.605V63.1953C105.605 63.6849 105.607 64.0807 105.612 64.3828C105.623 64.6849 105.636 64.8906 105.652 65H104.323C104.318 64.974 104.308 64.8516 104.292 64.6328C104.282 64.4141 104.271 64.0547 104.261 63.5547H104.237ZM109.237 60.5938V65H107.831V58.5156C107.831 58.2188 107.826 57.9062 107.816 57.5781C107.81 57.25 107.8 56.9062 107.784 56.5469H109.112C109.123 56.7865 109.131 57.0026 109.136 57.1953C109.146 57.388 109.154 57.5573 109.159 57.7031C109.165 57.8438 109.167 57.9635 109.167 58.0625C109.172 58.1562 109.175 58.2266 109.175 58.2734H109.206C109.362 57.763 109.534 57.3672 109.722 57.0859C109.904 56.8255 110.112 56.6458 110.347 56.5469C110.581 56.4427 110.87 56.3906 111.214 56.3906C111.407 56.3906 111.597 56.4167 111.784 56.4688V57.7578C111.607 57.7057 111.357 57.6797 111.034 57.6797C110.451 57.6797 110.006 57.9323 109.698 58.4375C109.391 58.9375 109.237 59.6562 109.237 60.5938ZM118.456 61.7812L117.191 65H115.644L120.136 53.9922H121.831L126.253 65H124.73L123.472 61.7812H118.456ZM120.964 55.1172C120.876 55.4089 120.769 55.7344 120.644 56.0938C120.524 56.4479 120.412 56.7604 120.308 57.0312L118.909 60.6172H123.027L121.612 56.9844C121.54 56.8021 121.443 56.5443 121.323 56.2109C121.204 55.8776 121.084 55.513 120.964 55.1172ZM129.253 53.9922V65H127.761V53.9922H129.253ZM137.667 57.9922C137.969 57.4401 138.331 57.0365 138.753 56.7812C139.18 56.5208 139.719 56.3906 140.37 56.3906C141.287 56.3906 141.961 56.6302 142.394 57.1094C142.831 57.5833 143.05 58.3359 143.05 59.3672V65H141.636V59.6406C141.636 58.875 141.501 58.3229 141.23 57.9844C140.964 57.6458 140.519 57.4766 139.894 57.4766C139.232 57.4766 138.701 57.7057 138.3 58.1641C137.904 58.6224 137.706 59.2396 137.706 60.0156V65H136.3V53.4062H137.706V56.4219C137.706 56.6302 137.701 56.8516 137.691 57.0859C137.68 57.3151 137.67 57.5156 137.659 57.6875C137.654 57.8542 137.649 57.9557 137.644 57.9922H137.667ZM146.253 61.0703C146.253 62.0391 146.454 62.7865 146.855 63.3125C147.256 63.8385 147.842 64.1016 148.612 64.1016C149.222 64.1016 149.709 63.9792 150.073 63.7344C150.443 63.4896 150.693 63.1797 150.823 62.8047L152.058 63.1562C151.553 64.4896 150.404 65.1562 148.612 65.1562C147.362 65.1562 146.409 64.7839 145.753 64.0391C145.102 63.2943 144.777 62.1875 144.777 60.7188C144.777 59.3229 145.102 58.2526 145.753 57.5078C146.409 56.763 147.344 56.3906 148.558 56.3906C149.803 56.3906 150.735 56.7656 151.355 57.5156C151.974 58.2656 152.284 59.388 152.284 60.8828V61.0703H146.253ZM150.831 59.9922C150.753 59.1016 150.527 58.4531 150.152 58.0469C149.777 57.6354 149.237 57.4297 148.534 57.4297C147.852 57.4297 147.31 57.6589 146.909 58.1172C146.514 58.5703 146.3 59.1953 146.269 59.9922H150.831ZM156.237 65.1562C155.389 65.1562 154.751 64.9323 154.323 64.4844C153.896 64.0365 153.683 63.4219 153.683 62.6406C153.683 61.7656 153.969 61.0938 154.542 60.625C155.12 60.1562 156.05 59.9062 157.331 59.875L159.23 59.8438V59.3828C159.23 58.6953 159.084 58.2031 158.792 57.9062C158.501 57.6094 158.042 57.4609 157.417 57.4609C156.787 57.4609 156.329 57.5677 156.042 57.7812C155.756 57.9948 155.584 58.3359 155.527 58.8047L154.058 58.6719C154.297 57.151 155.428 56.3906 157.448 56.3906C158.511 56.3906 159.31 56.6354 159.847 57.125C160.383 57.6094 160.652 58.3125 160.652 59.2344V62.875C160.652 63.2917 160.706 63.6068 160.816 63.8203C160.925 64.0286 161.133 64.1328 161.441 64.1328C161.586 64.1328 161.74 64.1146 161.902 64.0781V64.9531C161.724 64.9948 161.545 65.026 161.362 65.0469C161.18 65.0677 160.998 65.0781 160.816 65.0781C160.295 65.0781 159.915 64.9427 159.675 64.6719C159.441 64.3958 159.308 63.9661 159.277 63.3828H159.23C158.87 64.0286 158.451 64.487 157.972 64.7578C157.498 65.0234 156.92 65.1562 156.237 65.1562ZM159.23 60.8281L157.691 60.8594C157.034 60.8646 156.534 60.9323 156.191 61.0625C155.847 61.1875 155.584 61.3802 155.402 61.6406C155.219 61.901 155.128 62.2422 155.128 62.6641C155.128 63.1224 155.251 63.4766 155.495 63.7266C155.745 63.9766 156.099 64.1016 156.558 64.1016C157.079 64.1016 157.537 63.9844 157.933 63.75C158.334 63.5156 158.649 63.1953 158.878 62.7891C159.112 62.3776 159.23 61.9557 159.23 61.5234V60.8281ZM164.394 53.4062V65H162.987V53.4062H164.394ZM169.8 64.9375C169.342 65.0625 168.868 65.125 168.378 65.125C167.816 65.125 167.394 64.9661 167.112 64.6484C166.831 64.3255 166.691 63.8464 166.691 63.2109V57.5703H165.714V56.5469H166.745L167.159 54.6562H168.097V56.5469H169.659V57.5703H168.097V62.9062C168.097 63.3125 168.162 63.599 168.292 63.7656C168.428 63.9271 168.659 64.0078 168.987 64.0078C169.165 64.0078 169.435 63.9714 169.8 63.8984V64.9375ZM172.402 57.9922C172.704 57.4401 173.066 57.0365 173.487 56.7812C173.915 56.5208 174.454 56.3906 175.105 56.3906C176.021 56.3906 176.696 56.6302 177.128 57.1094C177.566 57.5833 177.784 58.3359 177.784 59.3672V65H176.37V59.6406C176.37 58.875 176.235 58.3229 175.964 57.9844C175.698 57.6458 175.253 57.4766 174.628 57.4766C173.967 57.4766 173.435 57.7057 173.034 58.1641C172.639 58.6224 172.441 59.2396 172.441 60.0156V65H171.034V53.4062H172.441V56.4219C172.441 56.6302 172.435 56.8516 172.425 57.0859C172.415 57.3151 172.404 57.5156 172.394 57.6875C172.389 57.8542 172.383 57.9557 172.378 57.9922H172.402ZM186.519 65.1562C185.67 65.1562 185.032 64.9323 184.605 64.4844C184.178 64.0365 183.964 63.4219 183.964 62.6406C183.964 61.7656 184.251 61.0938 184.823 60.625C185.402 60.1562 186.331 59.9062 187.612 59.875L189.511 59.8438V59.3828C189.511 58.6953 189.365 58.2031 189.073 57.9062C188.782 57.6094 188.323 57.4609 187.698 57.4609C187.068 57.4609 186.61 57.5677 186.323 57.7812C186.037 57.9948 185.865 58.3359 185.808 58.8047L184.339 58.6719C184.579 57.151 185.709 56.3906 187.73 56.3906C188.792 56.3906 189.592 56.6354 190.128 57.125C190.665 57.6094 190.933 58.3125 190.933 59.2344V62.875C190.933 63.2917 190.987 63.6068 191.097 63.8203C191.206 64.0286 191.415 64.1328 191.722 64.1328C191.868 64.1328 192.021 64.1146 192.183 64.0781V64.9531C192.006 64.9948 191.826 65.026 191.644 65.0469C191.461 65.0677 191.279 65.0781 191.097 65.0781C190.576 65.0781 190.196 64.9427 189.956 64.6719C189.722 64.3958 189.589 63.9661 189.558 63.3828H189.511C189.152 64.0286 188.732 64.487 188.253 64.7578C187.779 65.0234 187.201 65.1562 186.519 65.1562ZM189.511 60.8281L187.972 60.8594C187.316 60.8646 186.816 60.9323 186.472 61.0625C186.128 61.1875 185.865 61.3802 185.683 61.6406C185.501 61.901 185.409 62.2422 185.409 62.6641C185.409 63.1224 185.532 63.4766 185.777 63.7266C186.027 63.9766 186.381 64.1016 186.839 64.1016C187.36 64.1016 187.818 63.9844 188.214 63.75C188.615 63.5156 188.93 63.1953 189.159 62.7891C189.394 62.3776 189.511 61.9557 189.511 61.5234V60.8281ZM198.714 65C198.704 64.9427 198.691 64.8359 198.675 64.6797C198.665 64.5182 198.654 64.3411 198.644 64.1484C198.639 63.9557 198.636 63.7865 198.636 63.6406H198.605C198.344 64.1823 197.998 64.5703 197.566 64.8047C197.139 65.0391 196.607 65.1562 195.972 65.1562C194.904 65.1562 194.118 64.7969 193.612 64.0781C193.112 63.3594 192.862 62.2708 192.862 60.8125C192.862 59.3385 193.12 58.2344 193.636 57.5C194.157 56.7604 194.935 56.3906 195.972 56.3906C196.612 56.3906 197.146 56.5078 197.573 56.7422C198.001 56.9766 198.344 57.349 198.605 57.8594H198.62L198.605 56.9141V53.4062H200.011V63.2578C200.011 63.7005 200.014 64.0677 200.019 64.3594C200.029 64.6458 200.042 64.8594 200.058 65H198.714ZM194.339 60.7656C194.339 61.9479 194.495 62.7943 194.808 63.3047C195.12 63.8151 195.628 64.0703 196.331 64.0703C197.128 64.0703 197.706 63.7943 198.066 63.2422C198.425 62.6901 198.605 61.8333 198.605 60.6719C198.605 59.5521 198.425 58.7318 198.066 58.2109C197.706 57.6901 197.133 57.4297 196.347 57.4297C195.639 57.4297 195.126 57.6927 194.808 58.2188C194.495 58.7396 194.339 59.5885 194.339 60.7656ZM209.042 56.5469L205.886 65H204.222L201.152 56.5469H202.652L204.511 62.0469C204.547 62.151 204.61 62.3594 204.698 62.6719C204.787 62.9792 204.904 63.388 205.05 63.8984C205.118 63.6953 205.183 63.4844 205.245 63.2656C205.313 63.0417 205.378 62.8255 205.441 62.6172C205.508 62.4089 205.571 62.224 205.628 62.0625L207.55 56.5469H209.042ZM211.573 53.4062V54.75H210.167V53.4062H211.573ZM211.573 56.5469V65H210.167V56.5469H211.573ZM220.081 62.6641C220.081 63.4609 219.779 64.0755 219.175 64.5078C218.576 64.9401 217.735 65.1562 216.652 65.1562C215.599 65.1562 214.787 64.9844 214.214 64.6406C213.646 64.2917 213.277 63.75 213.105 63.0156L214.347 62.7734C214.467 63.2266 214.714 63.5599 215.089 63.7734C215.464 63.9818 215.985 64.0859 216.652 64.0859C217.365 64.0859 217.886 63.9766 218.214 63.7578C218.547 63.5391 218.714 63.2109 218.714 62.7734C218.714 62.4401 218.599 62.1693 218.37 61.9609C218.141 61.7526 217.771 61.5807 217.261 61.4453C216.657 61.2839 216.175 61.151 215.816 61.0469C215.461 60.9427 215.188 60.8542 214.995 60.7812C214.803 60.7031 214.649 60.6302 214.534 60.5625C214.191 60.3646 213.922 60.1224 213.73 59.8359C213.537 59.5495 213.441 59.1979 213.441 58.7812C213.441 58.0104 213.714 57.4245 214.261 57.0234C214.813 56.6172 215.615 56.4141 216.667 56.4141C217.599 56.4141 218.339 56.5781 218.886 56.9062C219.438 57.2344 219.787 57.7604 219.933 58.4844L218.667 58.6406C218.589 58.2656 218.378 57.9792 218.034 57.7812C217.696 57.5781 217.24 57.4766 216.667 57.4766C216.032 57.4766 215.563 57.5729 215.261 57.7656C214.959 57.9583 214.808 58.25 214.808 58.6406C214.808 58.9271 214.894 59.1641 215.066 59.3516C215.237 59.5339 215.566 59.6849 216.05 59.8047C216.701 59.9609 217.321 60.1328 217.909 60.3203C218.498 60.5026 218.92 60.6849 219.175 60.8672C219.472 61.0807 219.696 61.3333 219.847 61.625C220.003 61.9115 220.081 62.2578 220.081 62.6641ZM228.886 60.7656C228.886 62.2448 228.56 63.3464 227.909 64.0703C227.258 64.7943 226.313 65.1562 225.073 65.1562C223.839 65.1562 222.907 64.7812 222.277 64.0312C221.646 63.276 221.331 62.1875 221.331 60.7656C221.331 59.3073 221.646 58.2135 222.277 57.4844C222.912 56.7552 223.86 56.3906 225.12 56.3906C226.412 56.3906 227.362 56.7474 227.972 57.4609C228.581 58.1693 228.886 59.2708 228.886 60.7656ZM227.409 60.7656C227.409 59.599 227.235 58.7526 226.886 58.2266C226.542 57.6953 225.961 57.4297 225.144 57.4297C224.321 57.4297 223.724 57.7005 223.355 58.2422C222.99 58.7786 222.808 59.6198 222.808 60.7656C222.808 61.8802 222.987 62.7188 223.347 63.2812C223.711 63.8385 224.282 64.1172 225.058 64.1172C225.902 64.1172 226.503 63.8464 226.862 63.3047C227.227 62.763 227.409 61.9167 227.409 60.7656ZM232.081 60.5938V65H230.675V58.5156C230.675 58.2188 230.67 57.9062 230.659 57.5781C230.654 57.25 230.644 56.9062 230.628 56.5469H231.956C231.967 56.7865 231.974 57.0026 231.98 57.1953C231.99 57.388 231.998 57.5573 232.003 57.7031C232.008 57.8438 232.011 57.9635 232.011 58.0625C232.016 58.1562 232.019 58.2266 232.019 58.2734H232.05C232.206 57.763 232.378 57.3672 232.566 57.0859C232.748 56.8255 232.956 56.6458 233.191 56.5469C233.425 56.4427 233.714 56.3906 234.058 56.3906C234.251 56.3906 234.441 56.4167 234.628 56.4688V57.7578C234.451 57.7057 234.201 57.6797 233.878 57.6797C233.295 57.6797 232.849 57.9323 232.542 58.4375C232.235 58.9375 232.081 59.6562 232.081 60.5938Z" fill="white"/>
<g clip-path="url(#clip0_0_4564)">
<g filter="url(#filter0_d_0_4564)">
<path fill-rule="evenodd" clip-rule="evenodd" d="M21.4653 14.0591C21.7177 14.0591 21.9645 14.1339 22.1743 14.2742C22.3842 14.4144 22.5478 14.6137 22.6444 14.8469C22.7411 15.0801 22.7664 15.3368 22.7171 15.5843C22.6679 15.8319 22.5464 16.0594 22.3679 16.2379C22.1894 16.4164 21.962 16.538 21.7144 16.5873C21.4669 16.6365 21.2103 16.6113 20.977 16.5147C20.7438 16.4182 20.5444 16.2546 20.4041 16.0448C20.2639 15.8349 20.189 15.5882 20.1889 15.3357C20.1889 15.1681 20.2219 15.0021 20.286 14.8472C20.3501 14.6923 20.4441 14.5516 20.5626 14.433C20.6812 14.3145 20.8219 14.2204 20.9768 14.1563C21.1316 14.0921 21.2976 14.0591 21.4653 14.0591Z" fill="white"/>
<path d="M21.4649 20.0632C22.1696 20.0632 22.7409 19.4919 22.7409 18.7872C22.7409 18.0825 22.1696 17.5112 21.4649 17.5112C20.7602 17.5112 20.1889 18.0825 20.1889 18.7872C20.1889 19.4919 20.7602 20.0632 21.4649 20.0632Z" fill="white"/>
<path fill-rule="evenodd" clip-rule="evenodd" d="M21.4653 20.9663C21.7177 20.9663 21.9645 21.0412 22.1744 21.1814C22.3843 21.3217 22.5479 21.521 22.6445 21.7543C22.7411 21.9875 22.7664 22.2441 22.7171 22.4917C22.6678 22.7393 22.5463 22.9667 22.3678 23.1452C22.1892 23.3237 21.9618 23.4453 21.7142 23.4945C21.4666 23.5438 21.21 23.5185 20.9768 23.4219C20.7435 23.3252 20.5442 23.1616 20.404 22.9517C20.2637 22.7418 20.1889 22.495 20.1889 22.2426C20.1889 21.9041 20.3234 21.5795 20.5628 21.3401C20.8021 21.1008 21.1268 20.9663 21.4653 20.9663Z" fill="white"/>
<path fill-rule="evenodd" clip-rule="evenodd" d="M21.4653 24.4204C21.7177 24.4204 21.9645 24.4953 22.1744 24.6355C22.3843 24.7758 22.5479 24.9751 22.6445 25.2084C22.7411 25.4416 22.7664 25.6982 22.7171 25.9458C22.6678 26.1934 22.5463 26.4208 22.3678 26.5993C22.1892 26.7778 21.9618 26.8994 21.7142 26.9486C21.4666 26.9979 21.21 26.9726 20.9768 26.876C20.7435 26.7793 20.5442 26.6157 20.404 26.4058C20.2637 26.1959 20.1889 25.9491 20.1889 25.6967C20.1889 25.5291 20.2219 25.3631 20.2861 25.2082C20.3502 25.0534 20.4442 24.9127 20.5627 24.7942C20.6813 24.6757 20.822 24.5817 20.9768 24.5175C21.1317 24.4534 21.2977 24.4204 21.4653 24.4204Z" fill="white"/>
<path d="M21.4649 30.425C22.1696 30.425 22.7409 29.8537 22.7409 29.149C22.7409 28.4443 22.1696 27.873 21.4649 27.873C20.7602 27.873 20.1889 28.4443 20.1889 29.149C20.1889 29.8537 20.7602 30.425 21.4649 30.425Z" fill="white"/>
<path fill-rule="evenodd" clip-rule="evenodd" d="M21.4653 31.3271C21.7177 31.3271 21.9645 31.402 22.1744 31.5423C22.3843 31.6825 22.5479 31.8818 22.6445 32.1151C22.7411 32.3483 22.7664 32.6049 22.7171 32.8525C22.6679 33.1001 22.5463 33.3275 22.3678 33.506C22.1893 33.6845 21.9619 33.8061 21.7143 33.8554C21.4667 33.9046 21.2101 33.8793 20.9768 33.7827C20.7436 33.6861 20.5443 33.5225 20.404 33.3126C20.2638 33.1027 20.1889 32.856 20.1889 32.6035C20.1889 32.265 20.3234 31.9404 20.5627 31.701C20.8021 31.4616 21.1268 31.3271 21.4653 31.3271Z" fill="white"/>
<path fill-rule="evenodd" clip-rule="evenodd" d="M21.4653 34.7808C21.7177 34.7808 21.9645 34.8556 22.1744 34.9959C22.3843 35.1361 22.5479 35.3355 22.6445 35.5687C22.7411 35.8019 22.7664 36.0585 22.7171 36.3061C22.6679 36.5537 22.5463 36.7812 22.3678 36.9597C22.1893 37.1382 21.9619 37.2597 21.7143 37.309C21.4667 37.3582 21.2101 37.3329 20.9768 37.2363C20.7436 37.1397 20.5443 36.9761 20.404 36.7662C20.2638 36.5563 20.1889 36.3096 20.1889 36.0571C20.1889 35.7186 20.3234 35.394 20.5627 35.1546C20.8021 34.9152 21.1268 34.7808 21.4653 34.7808Z" fill="white"/>
<path d="M21.4649 40.7859C22.1696 40.7859 22.7409 40.2146 22.7409 39.5099C22.7409 38.8052 22.1696 38.2339 21.4649 38.2339C20.7602 38.2339 20.1889 38.8052 20.1889 39.5099C20.1889 40.2146 20.7602 40.7859 21.4649 40.7859Z" fill="white"/>
<path fill-rule="evenodd" clip-rule="evenodd" d="M21.4653 41.6875C21.7177 41.6875 21.9645 41.7624 22.1744 41.9026C22.3843 42.0429 22.5479 42.2422 22.6445 42.4754C22.7411 42.7086 22.7664 42.9653 22.7171 43.2129C22.6679 43.4605 22.5463 43.6879 22.3678 43.8664C22.1893 44.0449 21.9619 44.1665 21.7143 44.2157C21.4667 44.265 21.2101 44.2397 20.9768 44.1431C20.7436 44.0465 20.5443 43.8829 20.404 43.673C20.2638 43.4631 20.1889 43.2163 20.1889 42.9639C20.1889 42.6254 20.3234 42.3007 20.5627 42.0613C20.8021 41.822 21.1268 41.6875 21.4653 41.6875Z" fill="white"/>
<path fill-rule="evenodd" clip-rule="evenodd" d="M21.4653 45.1411C21.7177 45.1411 21.9645 45.216 22.1744 45.3562C22.3843 45.4965 22.5479 45.6958 22.6445 45.929C22.7411 46.1623 22.7664 46.4189 22.7171 46.6665C22.6679 46.9141 22.5463 47.1415 22.3678 47.32C22.1893 47.4985 21.9619 47.6201 21.7143 47.6693C21.4667 47.7186 21.2101 47.6933 20.9768 47.5967C20.7436 47.5001 20.5443 47.3365 20.404 47.1266C20.2638 46.9167 20.1889 46.6699 20.1889 46.4175C20.1889 46.079 20.3234 45.7543 20.5627 45.515C20.8021 45.2756 21.1268 45.1411 21.4653 45.1411Z" fill="white"/>
<path d="M21.4649 51.1477C22.1696 51.1477 22.7409 50.5764 22.7409 49.8717C22.7409 49.167 22.1696 48.5957 21.4649 48.5957C20.7602 48.5957 20.1889 49.167 20.1889 49.8717C20.1889 50.5764 20.7602 51.1477 21.4649 51.1477Z" fill="white"/>
<path fill-rule="evenodd" clip-rule="evenodd" d="M21.4653 52.0474C21.7177 52.0474 21.9645 52.1222 22.1744 52.2625C22.3843 52.4028 22.5479 52.6021 22.6445 52.8354C22.7411 53.0686 22.7664 53.3253 22.7171 53.5729C22.6678 53.8205 22.5462 54.0479 22.3677 54.2264C22.1891 54.4049 21.9617 54.5264 21.714 54.5756C21.4664 54.6248 21.2098 54.5995 20.9766 54.5028C20.7433 54.4062 20.544 54.2425 20.4038 54.0326C20.2636 53.8226 20.1888 53.5758 20.1889 53.3233C20.189 52.9849 20.3235 52.6604 20.5629 52.4211C20.8022 52.1818 21.1268 52.0474 21.4653 52.0474Z" fill="white"/>
<path d="M24.7683 16.6115C25.473 16.6115 26.0443 16.0403 26.0443 15.3356C26.0443 14.6308 25.473 14.0596 24.7683 14.0596C24.0636 14.0596 23.4923 14.6308 23.4923 15.3356C23.4923 16.0403 24.0636 16.6115 24.7683 16.6115Z" fill="white"/>
<path fill-rule="evenodd" clip-rule="evenodd" d="M24.7687 17.5132C25.0211 17.5132 25.2679 17.588 25.4778 17.7283C25.6877 17.8685 25.8513 18.0679 25.9479 18.3011C26.0445 18.5343 26.0698 18.791 26.0205 19.0386C25.9713 19.2861 25.8497 19.5136 25.6712 19.6921C25.4927 19.8706 25.2653 19.9921 25.0177 20.0414C24.7701 20.0906 24.5135 20.0654 24.2802 19.9688C24.047 19.8722 23.8477 19.7086 23.7074 19.4987C23.5672 19.2888 23.4923 19.042 23.4923 18.7895C23.4923 18.451 23.6268 18.1264 23.8661 17.887C24.1055 17.6477 24.4302 17.5132 24.7687 17.5132Z" fill="white"/>
<path d="M24.7683 23.5193C25.473 23.5193 26.0443 22.948 26.0443 22.2433C26.0443 21.5386 25.473 20.9673 24.7683 20.9673C24.0636 20.9673 23.4923 21.5386 23.4923 22.2433C23.4923 22.948 24.0636 23.5193 24.7683 23.5193Z" fill="white"/>
<path d="M24.7683 26.9719C25.473 26.9719 26.0443 26.4006 26.0443 25.6959C26.0443 24.9912 25.473 24.4199 24.7683 24.4199C24.0636 24.4199 23.4923 24.9912 23.4923 25.6959C23.4923 26.4006 24.0636 26.9719 24.7683 26.9719Z" fill="white"/>
<path fill-rule="evenodd" clip-rule="evenodd" d="M24.7687 27.873C25.0211 27.873 25.2679 27.9479 25.4778 28.0882C25.6877 28.2284 25.8513 28.4278 25.9479 28.661C26.0445 28.8942 26.0698 29.1509 26.0205 29.3985C25.9713 29.646 25.8497 29.8735 25.6712 30.052C25.4927 30.2305 25.2652 30.352 25.0176 30.4013C24.77 30.4505 24.5134 30.4252 24.2802 30.3286C24.0469 30.232 23.8476 30.0684 23.7074 29.8585C23.5671 29.6485 23.4923 29.4018 23.4923 29.1493C23.4923 28.9817 23.5253 28.8157 23.5895 28.6609C23.6536 28.506 23.7476 28.3653 23.8662 28.2468C23.9847 28.1283 24.1254 28.0343 24.2802 27.9702C24.4351 27.906 24.6011 27.873 24.7687 27.873Z" fill="white"/>
<path d="M24.7683 33.8791C25.473 33.8791 26.0443 33.3078 26.0443 32.6031C26.0443 31.8984 25.473 31.3271 24.7683 31.3271C24.0636 31.3271 23.4923 31.8984 23.4923 32.6031C23.4923 33.3078 24.0636 33.8791 24.7683 33.8791Z" fill="white"/>
<path d="M24.7683 37.3327C25.473 37.3327 26.0443 36.7615 26.0443 36.0567C26.0443 35.352 25.473 34.7808 24.7683 34.7808C24.0636 34.7808 23.4923 35.352 23.4923 36.0567C23.4923 36.7615 24.0636 37.3327 24.7683 37.3327Z" fill="white"/>
<path fill-rule="evenodd" clip-rule="evenodd" d="M24.7687 38.2344C25.0211 38.2344 25.2679 38.3092 25.4778 38.4495C25.6877 38.5897 25.8513 38.7891 25.9479 39.0223C26.0445 39.2555 26.0698 39.5122 26.0205 39.7597C25.9713 40.0073 25.8497 40.2348 25.6712 40.4133C25.4927 40.5918 25.2653 40.7133 25.0177 40.7626C24.7701 40.8118 24.5135 40.7866 24.2802 40.6899C24.047 40.5933 23.8477 40.4297 23.7074 40.2198C23.5672 40.01 23.4923 39.7632 23.4923 39.5107C23.4923 39.1722 23.6268 38.8476 23.8661 38.6082C24.1055 38.3688 24.4302 38.2344 24.7687 38.2344Z" fill="white"/>
<path d="M24.7683 44.2409C25.473 44.2409 26.0443 43.6697 26.0443 42.9649C26.0443 42.2602 25.473 41.689 24.7683 41.689C24.0636 41.689 23.4923 42.2602 23.4923 42.9649C23.4923 43.6697 24.0636 44.2409 24.7683 44.2409Z" fill="white"/>
<path d="M24.7683 47.6926C25.473 47.6926 26.0443 47.1213 26.0443 46.4166C26.0443 45.7119 25.473 45.1406 24.7683 45.1406C24.0636 45.1406 23.4923 45.7119 23.4923 46.4166C23.4923 47.1213 24.0636 47.6926 24.7683 47.6926Z" fill="white"/>
<path fill-rule="evenodd" clip-rule="evenodd" d="M24.7687 48.5947C25.0211 48.5947 25.2679 48.6696 25.4778 48.8098C25.6877 48.9501 25.8513 49.1494 25.9479 49.3827C26.0445 49.6159 26.0698 49.8725 26.0205 50.1201C25.9713 50.3677 25.8497 50.5951 25.6712 50.7736C25.4927 50.9521 25.2653 51.0737 25.0177 51.1229C24.7701 51.1722 24.5135 51.1469 24.2802 51.0503C24.047 50.9537 23.8477 50.7901 23.7074 50.5802C23.5672 50.3703 23.4923 50.1235 23.4923 49.8711C23.4923 49.5326 23.6268 49.2079 23.8661 48.9686C24.1055 48.7292 24.4302 48.5947 24.7687 48.5947Z" fill="white"/>
<path d="M24.7683 54.5993C25.473 54.5993 26.0443 54.0281 26.0443 53.3233C26.0443 52.6186 25.473 52.0474 24.7683 52.0474C24.0636 52.0474 23.4923 52.6186 23.4923 53.3233C23.4923 54.0281 24.0636 54.5993 24.7683 54.5993Z" fill="white"/>
<path d="M28.0719 16.6115C28.7767 16.6115 29.3479 16.0403 29.3479 15.3356C29.3479 14.6308 28.7767 14.0596 28.0719 14.0596C27.3672 14.0596 26.796 14.6308 26.796 15.3356C26.796 16.0403 27.3672 16.6115 28.0719 16.6115Z" fill="white"/>
<path fill-rule="evenodd" clip-rule="evenodd" d="M28.0719 17.5132C28.3244 17.5131 28.5712 17.5879 28.7812 17.7281C28.9911 17.8683 29.1548 18.0677 29.2514 18.3009C29.3481 18.5341 29.3734 18.7908 29.3242 19.0384C29.275 19.286 29.1534 19.5135 28.9749 19.692C28.7964 19.8705 28.569 19.9921 28.3214 20.0414C28.0737 20.0906 27.8171 20.0654 27.5838 19.9687C27.3506 19.8721 27.1512 19.7085 27.011 19.4986C26.8708 19.2886 26.7959 19.0418 26.796 18.7894C26.796 18.4509 26.9305 18.1264 27.1697 17.8871C27.409 17.6478 27.7335 17.5133 28.0719 17.5132Z" fill="white"/>
<path d="M28.0719 23.5193C28.7767 23.5193 29.3479 22.948 29.3479 22.2433C29.3479 21.5386 28.7767 20.9673 28.0719 20.9673C27.3672 20.9673 26.796 21.5386 26.796 22.2433C26.796 22.948 27.3672 23.5193 28.0719 23.5193Z" fill="white"/>
<path d="M28.0719 26.9719C28.7767 26.9719 29.3479 26.4006 29.3479 25.6959C29.3479 24.9912 28.7767 24.4199 28.0719 24.4199C27.3672 24.4199 26.796 24.9912 26.796 25.6959C26.796 26.4006 27.3672 26.9719 28.0719 26.9719Z" fill="white"/>
<path fill-rule="evenodd" clip-rule="evenodd" d="M28.0719 27.873C28.3244 27.873 28.5712 27.9478 28.7812 28.088C28.9911 28.2282 29.1548 28.4275 29.2514 28.6607C29.3481 28.894 29.3734 29.1506 29.3242 29.3982C29.275 29.6458 29.1534 29.8733 28.975 30.0518C28.7965 30.2304 28.569 30.352 28.3214 30.4012C28.0738 30.4505 27.8171 30.4252 27.5839 30.3286C27.3507 30.232 27.1513 30.0684 27.011 29.8585C26.8708 29.6486 26.7959 29.4018 26.796 29.1493C26.796 28.8109 26.9304 28.4863 27.1697 28.247C27.409 28.0076 27.7335 27.8731 28.0719 27.873Z" fill="white"/>
<path d="M28.0719 33.8791C28.7767 33.8791 29.3479 33.3078 29.3479 32.6031C29.3479 31.8984 28.7767 31.3271 28.0719 31.3271C27.3672 31.3271 26.796 31.8984 26.796 32.6031C26.796 33.3078 27.3672 33.8791 28.0719 33.8791Z" fill="white"/>
<path d="M28.0719 37.3327C28.7767 37.3327 29.3479 36.7615 29.3479 36.0567C29.3479 35.352 28.7767 34.7808 28.0719 34.7808C27.3672 34.7808 26.796 35.352 26.796 36.0567C26.796 36.7615 27.3672 37.3327 28.0719 37.3327Z" fill="white"/>
<path fill-rule="evenodd" clip-rule="evenodd" d="M28.0719 38.2344C28.3244 38.2343 28.5712 38.3091 28.7812 38.4493C28.9911 38.5895 29.1548 38.7888 29.2514 39.022C29.3481 39.2553 29.3734 39.5119 29.3242 39.7595C29.275 40.0071 29.1535 40.2346 28.975 40.4131C28.7965 40.5917 28.5691 40.7133 28.3215 40.7626C28.0739 40.8118 27.8172 40.7866 27.584 40.69C27.3507 40.5934 27.1514 40.4298 27.0111 40.2199C26.8708 40.01 26.796 39.7632 26.796 39.5107C26.796 39.1723 26.9304 38.8477 27.1697 38.6083C27.4089 38.369 27.7335 38.2345 28.0719 38.2344Z" fill="white"/>
<path d="M28.0719 44.2409C28.7767 44.2409 29.3479 43.6697 29.3479 42.9649C29.3479 42.2602 28.7767 41.689 28.0719 41.689C27.3672 41.689 26.796 42.2602 26.796 42.9649C26.796 43.6697 27.3672 44.2409 28.0719 44.2409Z" fill="white"/>
<path d="M28.0719 47.6926C28.7767 47.6926 29.3479 47.1213 29.3479 46.4166C29.3479 45.7119 28.7767 45.1406 28.0719 45.1406C27.3672 45.1406 26.796 45.7119 26.796 46.4166C26.796 47.1213 27.3672 47.6926 28.0719 47.6926Z" fill="white"/>
<path fill-rule="evenodd" clip-rule="evenodd" d="M28.0719 48.5947C28.3244 48.5947 28.5712 48.6694 28.7812 48.8096C28.9911 48.9499 29.1548 49.1492 29.2514 49.3824C29.3481 49.6156 29.3734 49.8723 29.3242 50.1199C29.275 50.3675 29.1535 50.5949 28.975 50.7735C28.7965 50.952 28.5691 51.0736 28.3215 51.1229C28.0739 51.1722 27.8172 51.1469 27.584 51.0503C27.3507 50.9537 27.1514 50.7901 27.0111 50.5802C26.8708 50.3703 26.796 50.1236 26.796 49.8711C26.796 49.5326 26.9304 49.2081 27.1697 48.9687C27.4089 48.7293 27.7335 48.5948 28.0719 48.5947Z" fill="white"/>
<path d="M28.0719 54.5993C28.7767 54.5993 29.3479 54.0281 29.3479 53.3233C29.3479 52.6186 28.7767 52.0474 28.0719 52.0474C27.3672 52.0474 26.796 52.6186 26.796 53.3233C26.796 54.0281 27.3672 54.5993 28.0719 54.5993Z" fill="white"/>
<path d="M31.3756 16.6115C32.0803 16.6115 32.6516 16.0403 32.6516 15.3356C32.6516 14.6308 32.0803 14.0596 31.3756 14.0596C30.6709 14.0596 30.0996 14.6308 30.0996 15.3356C30.0996 16.0403 30.6709 16.6115 31.3756 16.6115Z" fill="white"/>
<path fill-rule="evenodd" clip-rule="evenodd" d="M31.3752 17.5132C31.6276 17.5132 31.8744 17.588 32.0843 17.7283C32.2942 17.8685 32.4578 18.0679 32.5544 18.3011C32.651 18.5343 32.6763 18.791 32.627 19.0386C32.5778 19.2861 32.4562 19.5136 32.2777 19.6921C32.0992 19.8706 31.8718 19.9921 31.6242 20.0414C31.3766 20.0906 31.12 20.0654 30.8867 19.9688C30.6535 19.8722 30.4542 19.7086 30.3139 19.4987C30.1737 19.2888 30.0988 19.042 30.0988 18.7895C30.0988 18.6219 30.1318 18.456 30.1959 18.3011C30.2601 18.1462 30.3541 18.0055 30.4726 17.887C30.5912 17.7685 30.7319 17.6745 30.8867 17.6103C31.0416 17.5462 31.2076 17.5132 31.3752 17.5132Z" fill="white"/>
<path d="M31.4226 22.4125C31.8221 22.4125 32.146 22.0887 32.146 21.6892C32.146 21.2897 31.8221 20.9658 31.4226 20.9658C31.0231 20.9658 30.6993 21.2897 30.6993 21.6892C30.6993 22.0887 31.0231 22.4125 31.4226 22.4125Z" fill="white"/>
<path d="M34.7249 22.4112C35.1236 22.4112 35.4468 22.0879 35.4468 21.6892C35.4468 21.2905 35.1236 20.9673 34.7249 20.9673C34.3262 20.9673 34.0029 21.2905 34.0029 21.6892C34.0029 22.0879 34.3262 22.4112 34.7249 22.4112Z" fill="white"/>
<path d="M37.8789 22.4125C38.2784 22.4125 38.6022 22.0887 38.6022 21.6892C38.6022 21.2897 38.2784 20.9658 37.8789 20.9658C37.4794 20.9658 37.1555 21.2897 37.1555 21.6892C37.1555 22.0887 37.4794 22.4125 37.8789 22.4125Z" fill="white"/>
<path d="M31.3756 37.3327C32.0803 37.3327 32.6516 36.7615 32.6516 36.0567C32.6516 35.352 32.0803 34.7808 31.3756 34.7808C30.6709 34.7808 30.0996 35.352 30.0996 36.0567C30.0996 36.7615 30.6709 37.3327 31.3756 37.3327Z" fill="white"/>
<path fill-rule="evenodd" clip-rule="evenodd" d="M31.3752 38.2344C31.6276 38.2344 31.8744 38.3092 32.0843 38.4495C32.2942 38.5897 32.4578 38.7891 32.5544 39.0223C32.651 39.2555 32.6763 39.5122 32.627 39.7597C32.5778 40.0073 32.4562 40.2348 32.2777 40.4133C32.0992 40.5918 31.8718 40.7133 31.6242 40.7626C31.3766 40.8118 31.12 40.7866 30.8867 40.6899C30.6535 40.5933 30.4542 40.4297 30.3139 40.2198C30.1737 40.01 30.0988 39.7632 30.0988 39.5107C30.0988 39.3431 30.1318 39.1771 30.1959 39.0223C30.2601 38.8674 30.3541 38.7267 30.4726 38.6082C30.5912 38.4897 30.7319 38.3956 30.8867 38.3315C31.0416 38.2674 31.2076 38.2344 31.3752 38.2344Z" fill="white"/>
<path fill-rule="evenodd" clip-rule="evenodd" d="M34.6787 14.0591C34.9312 14.0591 35.1779 14.1339 35.3878 14.2741C35.5977 14.4143 35.7614 14.6137 35.858 14.8469C35.9546 15.0801 35.9799 15.3367 35.9307 15.5843C35.8815 15.8319 35.76 16.0593 35.5815 16.2378C35.403 16.4164 35.1756 16.538 34.928 16.5872C34.6805 16.6365 34.4238 16.6113 34.1906 16.5147C33.9574 16.4182 33.758 16.2546 33.6177 16.0448C33.4774 15.8349 33.4025 15.5882 33.4025 15.3357C33.4024 15.1681 33.4354 15.0021 33.4995 14.8472C33.5637 14.6923 33.6577 14.5516 33.7762 14.4331C33.8947 14.3145 34.0354 14.2205 34.1903 14.1563C34.3451 14.0921 34.5111 14.0591 34.6787 14.0591Z" fill="white"/>
<path d="M34.679 20.0632C35.3837 20.0632 35.955 19.4919 35.955 18.7872C35.955 18.0825 35.3837 17.5112 34.679 17.5112C33.9743 17.5112 33.403 18.0825 33.403 18.7872C33.403 19.4919 33.9743 20.0632 34.679 20.0632Z" fill="white"/>
<path fill-rule="evenodd" clip-rule="evenodd" d="M34.6787 34.7808C34.9312 34.7807 35.178 34.8556 35.3879 34.9958C35.5978 35.1361 35.7614 35.3354 35.858 35.5686C35.9546 35.8018 35.9799 36.0585 35.9307 36.3061C35.8814 36.5537 35.7599 36.7811 35.5814 36.9596C35.4029 37.1381 35.1755 37.2597 34.9279 37.309C34.6803 37.3582 34.4236 37.3329 34.1904 37.2363C33.9572 37.1397 33.7578 36.9761 33.6176 36.7662C33.4773 36.5563 33.4025 36.3096 33.4025 36.0571C33.4025 35.7186 33.5369 35.394 33.7763 35.1546C34.0156 34.9153 34.3402 34.7808 34.6787 34.7808Z" fill="white"/>
<path d="M34.679 40.7859C35.3837 40.7859 35.955 40.2146 35.955 39.5099C35.955 38.8052 35.3837 38.2339 34.679 38.2339C33.9743 38.2339 33.403 38.8052 33.403 39.5099C33.403 40.2146 33.9743 40.7859 34.679 40.7859Z" fill="white"/>
<path d="M37.9826 16.6115C38.6874 16.6115 39.2586 16.0403 39.2586 15.3356C39.2586 14.6308 38.6874 14.0596 37.9826 14.0596C37.2779 14.0596 36.7067 14.6308 36.7067 15.3356C36.7067 16.0403 37.2779 16.6115 37.9826 16.6115Z" fill="white"/>
<path fill-rule="evenodd" clip-rule="evenodd" d="M37.9822 17.5132C38.2347 17.5132 38.4814 17.588 38.6913 17.7283C38.9012 17.8685 39.0648 18.0679 39.1614 18.3011C39.2581 18.5343 39.2833 18.791 39.2341 19.0386C39.1848 19.2861 39.0633 19.5136 38.8848 19.6921C38.7063 19.8706 38.4788 19.9921 38.2312 20.0414C37.9837 20.0906 37.727 20.0654 37.4938 19.9688C37.2606 19.8722 37.0612 19.7086 36.921 19.4987C36.7807 19.2888 36.7059 19.042 36.7059 18.7895C36.7059 18.6219 36.7389 18.456 36.803 18.3011C36.8671 18.1462 36.9612 18.0055 37.0797 17.887C37.1982 17.7685 37.3389 17.6745 37.4938 17.6103C37.6486 17.5462 37.8146 17.5132 37.9822 17.5132Z" fill="white"/>
<path d="M37.9826 37.3327C38.6874 37.3327 39.2586 36.7615 39.2586 36.0567C39.2586 35.352 38.6874 34.7808 37.9826 34.7808C37.2779 34.7808 36.7067 35.352 36.7067 36.0567C36.7067 36.7615 37.2779 37.3327 37.9826 37.3327Z" fill="white"/>
<path fill-rule="evenodd" clip-rule="evenodd" d="M37.9822 38.2344C38.2347 38.2344 38.4814 38.3092 38.6913 38.4495C38.9012 38.5897 39.0648 38.7891 39.1614 39.0223C39.2581 39.2555 39.2833 39.5122 39.2341 39.7597C39.1848 40.0073 39.0633 40.2348 38.8848 40.4133C38.7063 40.5918 38.4788 40.7133 38.2312 40.7626C37.9837 40.8118 37.727 40.7866 37.4938 40.6899C37.2606 40.5933 37.0612 40.4297 36.921 40.2198C36.7807 40.01 36.7059 39.7632 36.7059 39.5107C36.7059 39.3431 36.7389 39.1771 36.803 39.0223C36.8671 38.8674 36.9612 38.7267 37.0797 38.6082C37.1982 38.4897 37.3389 38.3956 37.4938 38.3315C37.6486 38.2674 37.8146 38.2344 37.9822 38.2344Z" fill="white"/>
<path d="M38.3716 43.4625C38.8614 43.4625 39.2584 43.0655 39.2584 42.5757C39.2584 42.086 38.8614 41.689 38.3716 41.689C37.8819 41.689 37.4849 42.086 37.4849 42.5757C37.4849 43.0655 37.8819 43.4625 38.3716 43.4625Z" fill="white"/>
<path fill-rule="evenodd" clip-rule="evenodd" d="M39.132 44.6899C39.2461 44.6899 39.3577 44.7238 39.4526 44.7872C39.5475 44.8506 39.6215 44.9408 39.6652 45.0462C39.7089 45.1517 39.7203 45.2677 39.698 45.3797C39.6758 45.4916 39.6208 45.5945 39.5401 45.6752C39.4593 45.7559 39.3565 45.8109 39.2446 45.8331C39.1326 45.8554 39.0166 45.844 38.9111 45.8003C38.8056 45.7566 38.7155 45.6826 38.6521 45.5877C38.5887 45.4928 38.5548 45.3812 38.5548 45.2671C38.5548 45.1913 38.5697 45.1162 38.5987 45.0462C38.6277 44.9762 38.6703 44.9126 38.7239 44.859C38.7774 44.8054 38.8411 44.7629 38.9111 44.7339C38.9811 44.7049 39.0562 44.6899 39.132 44.6899Z" fill="white"/>
<path d="M41.1971 16.6119C41.6868 16.6119 42.0839 16.2149 42.0839 15.7252C42.0839 15.2354 41.6868 14.8384 41.1971 14.8384C40.7073 14.8384 40.3103 15.2354 40.3103 15.7252C40.3103 16.2149 40.7073 16.6119 41.1971 16.6119Z" fill="white"/>
<path fill-rule="evenodd" clip-rule="evenodd" d="M41.2858 17.5132C41.5382 17.5132 41.785 17.588 41.9949 17.7282C42.2048 17.8685 42.3684 18.0678 42.4651 18.301C42.5617 18.5343 42.587 18.7909 42.5377 19.0385C42.4885 19.2861 42.3669 19.5135 42.1884 19.692C42.0099 19.8706 41.7825 19.9921 41.5349 20.0414C41.2873 20.0906 41.0307 20.0654 40.7975 19.9688C40.5642 19.8722 40.3649 19.7086 40.2246 19.4987C40.0844 19.2888 40.0095 19.042 40.0095 18.7895C40.0095 18.4511 40.144 18.1264 40.3833 17.8871C40.6227 17.6477 40.9473 17.5132 41.2858 17.5132Z" fill="white"/>
<path d="M41.2863 23.5193C41.991 23.5193 42.5623 22.948 42.5623 22.2433C42.5623 21.5386 41.991 20.9673 41.2863 20.9673C40.5816 20.9673 40.0103 21.5386 40.0103 22.2433C40.0103 22.948 40.5816 23.5193 41.2863 23.5193Z" fill="white"/>
<path d="M41.6753 33.8781C42.1651 33.8781 42.5621 33.481 42.5621 32.9913C42.5621 32.5015 42.1651 32.1045 41.6753 32.1045C41.1855 32.1045 40.7885 32.5015 40.7885 32.9913C40.7885 33.481 41.1855 33.8781 41.6753 33.8781Z" fill="white"/>
<path d="M41.2863 37.3327C41.991 37.3327 42.5623 36.7615 42.5623 36.0567C42.5623 35.352 41.991 34.7808 41.2863 34.7808C40.5816 34.7808 40.0103 35.352 40.0103 36.0567C40.0103 36.7615 40.5816 37.3327 41.2863 37.3327Z" fill="white"/>
<path fill-rule="evenodd" clip-rule="evenodd" d="M41.2858 38.2344C41.5382 38.2344 41.785 38.3092 41.9949 38.4494C42.2048 38.5897 42.3684 38.789 42.4651 39.0222C42.5617 39.2555 42.587 39.5121 42.5377 39.7597C42.4885 40.0073 42.3669 40.2347 42.1884 40.4132C42.0099 40.5917 41.7825 40.7133 41.5349 40.7626C41.2873 40.8118 41.0307 40.7866 40.7975 40.69C40.5642 40.5934 40.3649 40.4298 40.2246 40.2199C40.0844 40.01 40.0095 39.7632 40.0095 39.5107C40.0095 39.1722 40.144 38.8476 40.3833 38.6082C40.6227 38.3689 40.9473 38.2344 41.2858 38.2344Z" fill="white"/>
<path d="M41.2863 44.2409C41.991 44.2409 42.5623 43.6697 42.5623 42.9649C42.5623 42.2602 41.991 41.689 41.2863 41.689C40.5816 41.689 40.0103 42.2602 40.0103 42.9649C40.0103 43.6697 40.5816 44.2409 41.2863 44.2409Z" fill="white"/>
<path d="M41.2863 47.6926C41.991 47.6926 42.5623 47.1213 42.5623 46.4166C42.5623 45.7119 41.991 45.1406 41.2863 45.1406C40.5816 45.1406 40.0103 45.7119 40.0103 46.4166C40.0103 47.1213 40.5816 47.6926 41.2863 47.6926Z" fill="white"/>
<path fill-rule="evenodd" clip-rule="evenodd" d="M41.7358 48.5947C41.9883 48.5947 42.235 48.6696 42.4449 48.8098C42.6548 48.9501 42.8184 49.1494 42.915 49.3827C43.0117 49.6159 43.0369 49.8725 42.9877 50.1201C42.9384 50.3677 42.8169 50.5951 42.6384 50.7736C42.4599 50.9521 42.2324 51.0737 41.9848 51.1229C41.7373 51.1722 41.4806 51.1469 41.2474 51.0503C41.0142 50.9537 40.8148 50.7901 40.6746 50.5802C40.5343 50.3703 40.4595 50.1235 40.4595 49.8711C40.4595 49.5326 40.5939 49.2079 40.8333 48.9686C41.0727 48.7292 41.3973 48.5947 41.7358 48.5947Z" fill="white"/>
<path d="M42.0522 53.0652C42.3333 53.0652 42.5611 52.8374 42.5611 52.5563C42.5611 52.2752 42.3333 52.0474 42.0522 52.0474C41.7711 52.0474 41.5433 52.2752 41.5433 52.5563C41.5433 52.8374 41.7711 53.0652 42.0522 53.0652Z" fill="white"/>
<path d="M43.9391 16.6106C44.2844 16.6106 44.5644 16.3306 44.5644 15.9852C44.5644 15.6398 44.2844 15.3599 43.9391 15.3599C43.5937 15.3599 43.3137 15.6398 43.3137 15.9852C43.3137 16.3306 43.5937 16.6106 43.9391 16.6106Z" fill="white"/>
<path fill-rule="evenodd" clip-rule="evenodd" d="M44.589 17.5132C44.8414 17.5132 45.0882 17.588 45.2981 17.7283C45.508 17.8685 45.6716 18.0679 45.7682 18.3011C45.8648 18.5343 45.8901 18.791 45.8408 19.0386C45.7916 19.2861 45.67 19.5136 45.4915 19.6921C45.313 19.8706 45.0856 19.9921 44.838 20.0414C44.5904 20.0906 44.3338 20.0654 44.1005 19.9688C43.8673 19.8722 43.668 19.7086 43.5277 19.4987C43.3875 19.2888 43.3126 19.042 43.3126 18.7895C43.3126 18.451 43.4471 18.1264 43.6865 17.887C43.9258 17.6477 44.2505 17.5132 44.589 17.5132Z" fill="white"/>
<path d="M44.5897 23.5193C45.2944 23.5193 45.8657 22.948 45.8657 22.2433C45.8657 21.5386 45.2944 20.9673 44.5897 20.9673C43.885 20.9673 43.3137 21.5386 43.3137 22.2433C43.3137 22.948 43.885 23.5193 44.5897 23.5193Z" fill="white"/>
<path d="M44.5897 26.9719C45.2944 26.9719 45.8657 26.4006 45.8657 25.6959C45.8657 24.9912 45.2944 24.4199 44.5897 24.4199C43.885 24.4199 43.3137 24.9912 43.3137 25.6959C43.3137 26.4006 43.885 26.9719 44.5897 26.9719Z" fill="white"/>
<path fill-rule="evenodd" clip-rule="evenodd" d="M44.589 27.873C44.8414 27.873 45.0882 27.9479 45.2981 28.0882C45.508 28.2284 45.6716 28.4278 45.7682 28.661C45.8648 28.8942 45.8901 29.1509 45.8408 29.3985C45.7916 29.646 45.67 29.8735 45.4915 30.052C45.313 30.2305 45.0855 30.352 44.8379 30.4013C44.5903 30.4505 44.3337 30.4252 44.1005 30.3286C43.8673 30.232 43.6679 30.0684 43.5277 29.8585C43.3874 29.6485 43.3126 29.4018 43.3126 29.1493C43.3126 28.9817 43.3456 28.8157 43.4098 28.6609C43.4739 28.506 43.5679 28.3653 43.6865 28.2468C43.805 28.1283 43.9457 28.0343 44.1005 27.9702C44.2554 27.906 44.4214 27.873 44.589 27.873Z" fill="white"/>
<path d="M44.5897 33.8791C45.2944 33.8791 45.8657 33.3078 45.8657 32.6031C45.8657 31.8984 45.2944 31.3271 44.5897 31.3271C43.885 31.3271 43.3137 31.8984 43.3137 32.6031C43.3137 33.3078 43.885 33.8791 44.5897 33.8791Z" fill="white"/>
<path d="M44.5897 37.3327C45.2944 37.3327 45.8657 36.7615 45.8657 36.0567C45.8657 35.352 45.2944 34.7808 44.5897 34.7808C43.885 34.7808 43.3137 35.352 43.3137 36.0567C43.3137 36.7615 43.885 37.3327 44.5897 37.3327Z" fill="white"/>
<path d="M44.2496 40.4054C44.7664 40.4054 45.1854 39.9864 45.1854 39.4695C45.1854 38.9527 44.7664 38.5337 44.2496 38.5337C43.7327 38.5337 43.3137 38.9527 43.3137 39.4695C43.3137 39.9864 43.7327 40.4054 44.2496 40.4054Z" fill="white"/>
<path d="M44.5897 44.2409C45.2944 44.2409 45.8657 43.6697 45.8657 42.9649C45.8657 42.2602 45.2944 41.689 44.5897 41.689C43.885 41.689 43.3137 42.2602 43.3137 42.9649C43.3137 43.6697 43.885 44.2409 44.5897 44.2409Z" fill="white"/>
<path d="M44.5897 47.6926C45.2944 47.6926 45.8657 47.1213 45.8657 46.4166C45.8657 45.7119 45.2944 45.1406 44.5897 45.1406C43.885 45.1406 43.3137 45.7119 43.3137 46.4166C43.3137 47.1213 43.885 47.6926 44.5897 47.6926Z" fill="white"/>
<path fill-rule="evenodd" clip-rule="evenodd" d="M45.0394 48.5947C45.2918 48.5947 45.5386 48.6695 45.7485 48.8098C45.9584 48.95 46.122 49.1494 46.2187 49.3826C46.3153 49.6158 46.3406 49.8724 46.2913 50.12C46.2421 50.3676 46.1205 50.5951 45.942 50.7736C45.7635 50.9521 45.5361 51.0737 45.2885 51.1229C45.0409 51.1722 44.7843 51.1469 44.5511 51.0503C44.3178 50.9537 44.1185 50.7901 43.9782 50.5802C43.838 50.3703 43.7631 50.1235 43.7631 49.8711C43.7631 49.5326 43.8976 49.208 44.1369 48.9686C44.3763 48.7292 44.7009 48.5948 45.0394 48.5947Z" fill="white"/>
<path d="M44.5897 54.5993C45.2944 54.5993 45.8657 54.0281 45.8657 53.3233C45.8657 52.6186 45.2944 52.0474 44.5897 52.0474C43.885 52.0474 43.3137 52.6186 43.3137 53.3233C43.3137 54.0281 43.885 54.5993 44.5897 54.5993Z" fill="white"/>
<path d="M47.6881 20.0644C48.2797 20.0644 48.7592 19.5849 48.7592 18.9934C48.7592 18.4019 48.2797 17.9224 47.6881 17.9224C47.0966 17.9224 46.6171 18.4019 46.6171 18.9934C46.6171 19.5849 47.0966 20.0644 47.6881 20.0644Z" fill="white"/>
<path fill-rule="evenodd" clip-rule="evenodd" d="M47.8925 20.9663C48.145 20.9663 48.3918 21.0411 48.6017 21.1814C48.8116 21.3216 48.9752 21.521 49.0718 21.7542C49.1684 21.9874 49.1937 22.2441 49.1445 22.4917C49.0952 22.7393 48.9737 22.9667 48.7952 23.1452C48.6167 23.3237 48.3892 23.4453 48.1416 23.4945C47.894 23.5438 47.6374 23.5185 47.4041 23.4219C47.1709 23.3252 46.9716 23.1616 46.8313 22.9517C46.6911 22.7418 46.6163 22.495 46.6163 22.2426C46.6163 21.9041 46.7508 21.5795 46.9901 21.3401C47.2295 21.1008 47.5541 20.9663 47.8925 20.9663Z" fill="white"/>
<path fill-rule="evenodd" clip-rule="evenodd" d="M47.8925 24.4204C48.145 24.4204 48.3918 24.4952 48.6017 24.6355C48.8116 24.7757 48.9752 24.9751 49.0718 25.2083C49.1684 25.4415 49.1937 25.6982 49.1445 25.9458C49.0952 26.1934 48.9737 26.4208 48.7952 26.5993C48.6167 26.7778 48.3892 26.8994 48.1416 26.9486C47.894 26.9979 47.6374 26.9726 47.4041 26.876C47.1709 26.7793 46.9716 26.6157 46.8313 26.4058C46.6911 26.1959 46.6163 25.9491 46.6163 25.6967C46.6163 25.3582 46.7507 25.0336 46.9901 24.7942C47.2294 24.5549 47.5541 24.4204 47.8925 24.4204Z" fill="white"/>
<path d="M47.8931 30.425C48.5978 30.425 49.1691 29.8537 49.1691 29.149C49.1691 28.4443 48.5978 27.873 47.8931 27.873C47.1884 27.873 46.6171 28.4443 46.6171 29.149C46.6171 29.8537 47.1884 30.425 47.8931 30.425Z" fill="white"/>
<path fill-rule="evenodd" clip-rule="evenodd" d="M47.8925 31.3271C48.145 31.3271 48.3918 31.402 48.6017 31.5422C48.8116 31.6824 48.9752 31.8818 49.0718 32.115C49.1684 32.3482 49.1937 32.6049 49.1445 32.8525C49.0953 33.1001 48.9737 33.3275 48.7952 33.506C48.6167 33.6845 48.3893 33.8061 48.1417 33.8553C47.8941 33.9046 47.6374 33.8793 47.4042 33.7827C47.171 33.6861 46.9716 33.5225 46.8314 33.3126C46.6911 33.1027 46.6163 32.856 46.6163 32.6035C46.6163 32.265 46.7507 31.9404 46.9901 31.701C47.2294 31.4617 47.554 31.3272 47.8925 31.3271Z" fill="white"/>
<path fill-rule="evenodd" clip-rule="evenodd" d="M47.8925 34.7808C48.145 34.7807 48.3918 34.8556 48.6017 34.9958C48.8116 35.1361 48.9752 35.3354 49.0718 35.5686C49.1684 35.8018 49.1937 36.0585 49.1445 36.3061C49.0953 36.5537 48.9737 36.7811 48.7952 36.9596C48.6167 37.1381 48.3893 37.2597 48.1417 37.309C47.8941 37.3582 47.6374 37.3329 47.4042 37.2363C47.171 37.1397 46.9716 36.9761 46.8314 36.7662C46.6911 36.5563 46.6163 36.3096 46.6163 36.0571C46.6163 35.7186 46.7507 35.394 46.9901 35.1546C47.2294 34.9153 47.554 34.7808 47.8925 34.7808Z" fill="white"/>
<path d="M47.4757 47.6917C47.9498 47.6917 48.3342 47.3073 48.3342 46.8332C48.3342 46.359 47.9498 45.9746 47.4757 45.9746C47.0015 45.9746 46.6171 46.359 46.6171 46.8332C46.6171 47.3073 47.0015 47.6917 47.4757 47.6917Z" fill="white"/>
<path fill-rule="evenodd" clip-rule="evenodd" d="M48.3431 48.5947C48.5956 48.5947 48.8423 48.6696 49.0522 48.8098C49.2621 48.9501 49.4257 49.1494 49.5223 49.3827C49.6189 49.6159 49.6442 49.8725 49.595 50.1201C49.5457 50.3677 49.4242 50.5951 49.2457 50.7736C49.0672 50.9521 48.8397 51.0737 48.5921 51.1229C48.3446 51.1722 48.0879 51.1469 47.8547 51.0503C47.6215 50.9537 47.4221 50.7901 47.2819 50.5802C47.1416 50.3703 47.0668 50.1235 47.0668 49.8711C47.0668 49.5326 47.2012 49.2079 47.4406 48.9686C47.68 48.7292 48.0046 48.5947 48.3431 48.5947Z" fill="white"/>
<path fill-rule="evenodd" clip-rule="evenodd" d="M47.8925 52.0474C48.145 52.0473 48.3918 52.1222 48.6017 52.2624C48.8116 52.4027 48.9752 52.6021 49.0719 52.8353C49.1685 53.0686 49.1937 53.3252 49.1445 53.5728C49.0952 53.8204 48.9736 54.0479 48.7951 54.2264C48.6165 54.4049 48.3891 54.5264 48.1414 54.5756C47.8938 54.6248 47.6372 54.5995 47.404 54.5028C47.1707 54.4062 46.9714 54.2425 46.8312 54.0326C46.691 53.8226 46.6162 53.5758 46.6163 53.3233C46.6164 52.9849 46.7509 52.6604 46.9902 52.4211C47.2295 52.1818 47.5541 52.0474 47.8925 52.0474Z" fill="white"/>
<path d="M50.662 23.5181C51.0714 23.5181 51.4032 23.1863 51.4032 22.7769C51.4032 22.3675 51.0714 22.0356 50.662 22.0356C50.2526 22.0356 49.9208 22.3675 49.9208 22.7769C49.9208 23.1863 50.2526 23.5181 50.662 23.5181Z" fill="white"/>
<path d="M51.1968 26.9719C51.9015 26.9719 52.4727 26.4006 52.4727 25.6959C52.4727 24.9912 51.9015 24.4199 51.1968 24.4199C50.4921 24.4199 49.9208 24.9912 49.9208 25.6959C49.9208 26.4006 50.4921 26.9719 51.1968 26.9719Z" fill="white"/>
<path fill-rule="evenodd" clip-rule="evenodd" d="M51.196 27.873C51.4485 27.873 51.6953 27.9479 51.9052 28.0882C52.1151 28.2284 52.2787 28.4278 52.3753 28.661C52.4719 28.8942 52.4971 29.1509 52.4479 29.3985C52.3986 29.646 52.2771 29.8735 52.0985 30.052C51.92 30.2305 51.6926 30.352 51.445 30.4013C51.1974 30.4505 50.9408 30.4252 50.7075 30.3286C50.4743 30.232 50.275 30.0684 50.1347 29.8585C49.9945 29.6485 49.9197 29.4018 49.9197 29.1493C49.9197 28.9817 49.9527 28.8157 50.0168 28.6609C50.081 28.506 50.175 28.3653 50.2935 28.2468C50.412 28.1283 50.5528 28.0343 50.7076 27.9702C50.8625 27.906 51.0284 27.873 51.196 27.873Z" fill="white"/>
<path d="M50.7793 33.0442C51.2535 33.0442 51.6379 32.6599 51.6379 32.1857C51.6379 31.7115 51.2535 31.3271 50.7793 31.3271C50.3052 31.3271 49.9208 31.7115 49.9208 32.1857C49.9208 32.6599 50.3052 33.0442 50.7793 33.0442Z" fill="white"/>
<path d="M50.6338 53.9997C51.0276 53.9997 51.3468 53.6805 51.3468 53.2867C51.3468 52.893 51.0276 52.5737 50.6338 52.5737C50.24 52.5737 49.9208 52.893 49.9208 53.2867C49.9208 53.6805 50.24 53.9997 50.6338 53.9997Z" fill="white"/>
</g>
</g>
<defs>
<filter id="filter0_d_0_4564" x="11.6631" y="9.79617" width="49.3355" height="57.5927" filterUnits="userSpaceOnUse" color-interpolation-filters="sRGB">
<feFlood flood-opacity="0" result="BackgroundImageFix"/>
<feColorMatrix in="SourceAlpha" type="matrix" values="0 0 0 0 0 0 0 0 0 0 0 0 0 0 0 0 0 0 127 0" result="hardAlpha"/>
<feOffset dy="4.26291"/>
<feGaussianBlur stdDeviation="4.26291"/>
<feComposite in2="hardAlpha" operator="out"/>
<feColorMatrix type="matrix" values="0 0 0 0 0.998568 0 0 0 0 0.308622 0 0 0 0 0.227452 0 0 0 0.04 0"/>
<feBlend mode="normal" in2="BackgroundImageFix" result="effect1_dropShadow_0_4564"/>
<feBlend mode="normal" in="SourceGraphic" in2="effect1_dropShadow_0_4564" result="shape"/>
</filter>
<linearGradient id="paint0_linear_0_4564" x1="38.3333" y1="-5.70922" x2="72.1698" y2="67.567" gradientUnits="userSpaceOnUse">
<stop stop-color="#FB7A6B"/>
<stop offset="1" stop-color="#FA5946"/>
</linearGradient>
<clipPath id="clip0_0_4564">
<rect width="47.5333" height="47.5333" fill="white" transform="translate(11.4432 10.563)"/>
</clipPath>
</defs>
</svg>
