<svg width="25" height="24" viewBox="0 0 25 24" fill="none" xmlns="http://www.w3.org/2000/svg">
<mask id="mask0_0_3698" style="mask-type:alpha" maskUnits="userSpaceOnUse" x="0" y="0" width="25" height="24">
<rect x="0.609558" width="24" height="24" fill="#D9D9D9"/>
</mask>
<g mask="url(#mask0_0_3698)">
<path d="M12.6096 21.4808C10.4467 20.8911 8.65605 19.618 7.23746 17.6616C5.81888 15.7052 5.10959 13.518 5.10959 11.1001V5.34625L12.6096 2.53857L20.1095 5.34625V11.0117C19.8762 10.9168 19.6313 10.8312 19.3749 10.7549C19.1185 10.6786 18.8634 10.6187 18.6096 10.5751V6.39045L12.6096 4.15007L6.60956 6.39045V11.1001C6.60956 11.986 6.73456 12.851 6.98456 13.6953C7.23456 14.5395 7.57912 15.3286 8.01824 16.0626C8.45734 16.7966 8.98202 17.4556 9.59229 18.0395C10.2026 18.6235 10.8647 19.0898 11.5788 19.4386L11.6077 19.429C11.7397 19.7956 11.9109 20.1469 12.1211 20.4828C12.3314 20.8186 12.5705 21.1238 12.8384 21.3981C12.7961 21.4109 12.758 21.4247 12.724 21.4395C12.69 21.4542 12.6519 21.468 12.6096 21.4808ZM17.6096 21.5001C16.3609 21.5001 15.2987 21.0622 14.423 20.1866C13.5474 19.311 13.1096 18.2488 13.1096 17.0001C13.1096 15.7514 13.5474 14.6892 14.423 13.8136C15.2987 12.9379 16.3609 12.5001 17.6096 12.5001C18.8583 12.5001 19.9204 12.9379 20.7961 13.8136C21.6717 14.6892 22.1095 15.7514 22.1095 17.0001C22.1095 18.2488 21.6717 19.311 20.7961 20.1866C19.9204 21.0622 18.8583 21.5001 17.6096 21.5001ZM17.1673 19.75H18.0519V17.4424H20.3595V16.5578H18.0519V14.2501H17.1673V16.5578H14.8596V17.4424H17.1673V19.75Z" fill="#0C0C0C" fill-opacity="0.7"/>
</g>
</svg>
